<svg width="121" height="84" viewBox="0 0 121 84" fill="none" xmlns="http://www.w3.org/2000/svg">
<path opacity="0.3" d="M41.092 35.696C48.8373 40.6787 52.71 47.3893 52.71 55.828C52.71 64.2667 50.221 70.9077 45.243 75.751C40.2623 80.5937 34.0363 83.015 26.565 83.015C19.5926 83.2027 12.8203 80.6725 7.679 75.959C2.55967 71.255 0 65.098 0 57.488C0 49.878 2.49033 42.4757 7.471 35.281L31.961 0H57.28L41.092 35.696ZM104.599 35.696C112.347 40.6767 116.221 47.387 116.221 55.827C116.221 64.267 113.731 70.9083 108.75 75.751C103.769 80.5937 97.5433 83.015 90.072 83.015C83.0996 83.2027 76.3273 80.6725 71.186 75.959C66.0687 71.255 63.51 65.098 63.51 57.488C63.51 49.878 66.0003 42.4757 70.981 35.281L95.47 0H120.79L104.599 35.696Z" fill="#D8D8D8"/>
</svg>
