<svg width="86" height="104" viewBox="0 0 86 104" fill="none" xmlns="http://www.w3.org/2000/svg">
<path d="M14.3889 17.562V28.2719C14.3889 38.9829 1.00098 38.9829 1.00098 52.3719V82.972C1.00098 88.1015 3.03869 93.021 6.66583 96.6481C10.293 100.275 15.2124 102.313 20.3419 102.313H64.667C69.7965 102.313 74.716 100.275 78.3431 96.6481C81.9703 93.021 84.0079 88.1015 84.0079 82.972V52.3719C84.0079 38.9839 70.62 38.9839 70.62 28.2719V17.562" stroke="#10192E" stroke-width="2" stroke-linecap="round" stroke-linejoin="round"/>
<path d="M62.5869 75.533V84.905C62.5869 87.123 53.5959 88.921 42.5049 88.921C31.4139 88.921 22.4219 87.123 22.4219 84.905V75.533" fill="white"/>
<path d="M62.5869 75.533V84.905C62.5869 87.123 53.5959 88.921 42.5049 88.921C31.4139 88.921 22.4219 87.123 22.4219 84.905V75.533" stroke="#10192E" stroke-width="2" stroke-linecap="round" stroke-linejoin="round"/>
<path d="M42.5039 79.549C53.5949 79.549 62.5859 77.7509 62.5859 75.533C62.5859 73.315 53.5949 71.517 42.5039 71.517C31.4129 71.517 22.4219 73.315 22.4219 75.533C22.4219 77.7509 31.4129 79.549 42.5039 79.549Z" fill="white" stroke="#10192E" stroke-width="2" stroke-linecap="round" stroke-linejoin="round"/>
<path d="M62.5869 59.467V68.839C62.5869 71.057 53.5959 72.855 42.5049 72.855C31.4139 72.855 22.4219 71.057 22.4219 68.839V59.467" fill="white"/>
<path d="M62.5869 59.467V68.839C62.5869 71.057 53.5959 72.855 42.5049 72.855C31.4139 72.855 22.4219 71.057 22.4219 68.839V59.467" stroke="#10192E" stroke-width="2" stroke-linecap="round" stroke-linejoin="round"/>
<path d="M42.5039 63.483C53.5949 63.483 62.5859 61.685 62.5859 59.467C62.5859 57.249 53.5949 55.451 42.5039 55.451C31.4129 55.451 22.4219 57.249 22.4219 59.467C22.4219 61.685 31.4129 63.483 42.5039 63.483Z" fill="white" stroke="#10192E" stroke-width="2" stroke-linecap="round" stroke-linejoin="round"/>
<path d="M53.3913 5.14815L60.0185 11.7753C61.5869 13.3437 56.5006 20.9729 48.6579 28.8156C40.8152 36.6583 33.1853 41.7453 31.6169 40.1769L24.9897 33.5497" fill="white"/>
<path d="M53.3913 5.14815L60.0185 11.7753C61.5869 13.3437 56.5006 20.9729 48.6579 28.8156C40.8152 36.6583 33.1853 41.7453 31.6169 40.1769L24.9897 33.5497" stroke="#FBB23D" stroke-width="2" stroke-linecap="round" stroke-linejoin="round"/>
<path d="M42.0299 22.1892C49.8726 14.3465 54.9589 6.71735 53.3906 5.14897C51.8222 3.58059 44.193 8.66692 36.3503 16.5096C28.5076 24.3523 23.4213 31.9814 24.9897 33.5498C26.5581 35.1182 34.1873 30.0319 42.0299 22.1892Z" fill="white" stroke="#FBB23D" stroke-width="2" stroke-linecap="round" stroke-linejoin="round"/>
</svg>
