<svg width="87" height="86" viewBox="0 0 87 86" fill="none" xmlns="http://www.w3.org/2000/svg">
<path d="M13.6943 51.696C16.0912 51.696 18.39 52.6482 20.0849 54.3431C21.7798 56.038 22.732 58.3368 22.732 60.7337C22.732 63.1307 21.7798 65.4294 20.0849 67.1243C18.39 68.8192 16.0912 69.7714 13.6943 69.7714C11.2974 69.7714 8.99858 68.8192 7.30369 67.1243C5.6088 65.4294 4.65662 63.1307 4.65662 60.7337C4.65662 58.3368 5.6088 56.038 7.30369 54.3431C8.99858 52.6482 11.2974 51.696 13.6943 51.696ZM13.6943 68.2357C15.178 68.2357 16.6285 67.7957 17.8622 66.9714C19.0959 66.147 20.0574 64.9754 20.6252 63.6046C21.193 62.2338 21.3416 60.7254 21.0521 59.2702C20.7626 57.8149 20.0482 56.4782 18.999 55.429C17.9498 54.3799 16.6131 53.6654 15.1579 53.3759C13.7026 53.0864 12.1942 53.235 10.8234 53.8028C9.45261 54.3706 8.28097 55.3322 7.45664 56.5659C6.63231 57.7995 6.19233 59.25 6.19233 60.7337C6.19457 62.7227 6.98567 64.6295 8.39207 66.0359C9.79848 67.4423 11.7053 68.2334 13.6943 68.2357Z" fill="#0088C8"/>
<path d="M26.6102 85.9999C26.4065 85.9999 26.2112 85.919 26.0672 85.775C25.9232 85.631 25.8423 85.4357 25.8423 85.2321C25.8551 83.6286 25.5502 82.0384 24.9454 80.5533C24.3406 79.0681 23.4478 77.7174 22.3184 76.579C21.189 75.4407 19.8455 74.5371 18.3652 73.9205C16.8849 73.3039 15.2972 72.9865 13.6937 72.9865C12.0901 72.9865 10.5024 73.3039 9.02212 73.9205C7.54185 74.5371 6.19828 75.4407 5.06891 76.579C3.93953 77.7174 3.0467 79.0681 2.44189 80.5533C1.83708 82.0384 1.53226 83.6286 1.54501 85.2321C1.54501 85.4357 1.46412 85.631 1.32012 85.775C1.17612 85.919 0.980801 85.9999 0.777152 85.9999C0.573504 85.9999 0.378207 85.919 0.234206 85.775C0.0902052 85.631 0.0092951 85.4357 0.0092951 85.2321C-0.00423098 83.4264 0.339732 81.6359 1.02137 79.9638C1.70301 78.2916 2.70885 76.7709 3.98091 75.4893C5.25296 74.2077 6.76608 73.1905 8.43306 72.4963C10.1 71.8022 11.8879 71.4448 13.6937 71.4448C15.4994 71.4448 17.2873 71.8022 18.9543 72.4963C20.6212 73.1905 22.1344 74.2077 23.4064 75.4893C24.6785 76.7709 25.6843 78.2916 26.3659 79.9638C27.0476 81.6359 27.3916 83.4264 27.378 85.2321C27.378 85.3329 27.3582 85.4328 27.3196 85.5259C27.281 85.6191 27.2244 85.7037 27.1531 85.775C27.0818 85.8463 26.9972 85.9029 26.904 85.9415C26.8109 85.9801 26.711 85.9999 26.6102 85.9999Z" fill="#0088C8"/>
<path d="M72.3836 51.696C74.7806 51.696 77.0793 52.6482 78.7742 54.3431C80.4691 56.038 81.4213 58.3368 81.4213 60.7337C81.4213 63.1307 80.4691 65.4294 78.7742 67.1243C77.0793 68.8192 74.7806 69.7714 72.3836 69.7714C69.9867 69.7714 67.6879 68.8192 65.993 67.1243C64.2981 65.4294 63.3459 63.1307 63.3459 60.7337C63.3459 58.3368 64.2981 56.038 65.993 54.3431C67.6879 52.6482 69.9867 51.696 72.3836 51.696ZM72.3836 68.2357C73.8674 68.2357 75.3178 67.7957 76.5515 66.9714C77.7852 66.147 78.7467 64.9754 79.3145 63.6046C79.8823 62.2338 80.0309 60.7254 79.7414 59.2702C79.452 57.8149 78.7375 56.4782 77.6883 55.429C76.6391 54.3799 75.3024 53.6654 73.8472 53.3759C72.3919 53.0864 70.8836 53.235 69.5127 53.8028C68.1419 54.3706 66.9703 55.3322 66.146 56.5659C65.3216 57.7995 64.8817 59.25 64.8817 60.7337C64.8839 62.7227 65.675 64.6295 67.0814 66.0359C68.4878 67.4423 70.3947 68.2334 72.3836 68.2357Z" fill="#0088C8"/>
<path d="M85.2995 85.9999C85.0959 85.9999 84.9005 85.919 84.7565 85.775C84.6125 85.631 84.5316 85.4357 84.5316 85.2321C84.5444 83.6286 84.2396 82.0384 83.6348 80.5533C83.03 79.0681 82.1371 77.7174 81.0077 76.579C79.8784 75.4407 78.5348 74.5371 77.0545 73.9205C75.5743 73.3039 73.9866 72.9865 72.383 72.9865C70.7794 72.9865 69.1917 73.3039 67.7115 73.9205C66.2312 74.5371 64.8876 75.4407 63.7582 76.579C62.6289 77.7174 61.736 79.0681 61.1312 80.5533C60.5264 82.0384 60.2216 83.6286 60.2343 85.2321C60.2343 85.4357 60.1535 85.631 60.0095 85.775C59.8655 85.919 59.6701 85.9999 59.4665 85.9999C59.2628 85.9999 59.0675 85.919 58.9235 85.775C58.7795 85.631 58.6986 85.4357 58.6986 85.2321C58.6851 83.4264 59.0291 81.6359 59.7107 79.9638C60.3923 78.2916 61.3982 76.7709 62.6702 75.4893C63.9423 74.2077 65.4554 73.1905 67.1224 72.4963C68.7894 71.8022 70.5773 71.4448 72.383 71.4448C74.1887 71.4448 75.9766 71.8022 77.6436 72.4963C79.3106 73.1905 80.8237 74.2077 82.0957 75.4893C83.3678 76.7709 84.3736 78.2916 85.0553 79.9638C85.7369 81.6359 86.0809 83.4264 86.0674 85.2321C86.0674 85.3329 86.0475 85.4328 86.0089 85.5259C85.9703 85.6191 85.9137 85.7037 85.8424 85.775C85.7711 85.8463 85.6865 85.9029 85.5934 85.9415C85.5002 85.9801 85.4003 85.9999 85.2995 85.9999Z" fill="#0088C8"/>
<path d="M13.6943 0C16.0912 0 18.39 0.952181 20.0849 2.64707C21.7798 4.34197 22.732 6.64074 22.732 9.03768C22.732 11.4346 21.7798 13.7334 20.0849 15.4283C18.39 17.1232 16.0912 18.0754 13.6943 18.0754C11.2974 18.0754 8.99858 17.1232 7.30369 15.4283C5.6088 13.7334 4.65662 11.4346 4.65662 9.03768C4.65662 6.64074 5.6088 4.34197 7.30369 2.64707C8.99858 0.952181 11.2974 0 13.6943 0ZM13.6943 16.5396C15.178 16.5396 16.6285 16.0997 17.8622 15.2753C19.0959 14.451 20.0574 13.2794 20.6252 11.9086C21.193 10.5377 21.3416 9.02936 21.0521 7.57412C20.7626 6.11888 20.0482 4.78216 18.999 3.73299C17.9498 2.68382 16.6131 1.96933 15.1579 1.67986C13.7026 1.3904 12.1942 1.53896 10.8234 2.10677C9.45261 2.67457 8.28097 3.63612 7.45664 4.86981C6.63231 6.1035 6.19233 7.55393 6.19233 9.03768C6.19457 11.0266 6.98567 12.9335 8.39207 14.3399C9.79848 15.7463 11.7053 16.5374 13.6943 16.5396Z" fill="#0088C8"/>
<path d="M26.6102 34.3049C26.4065 34.3049 26.2112 34.224 26.0672 34.08C25.9232 33.936 25.8423 33.7407 25.8423 33.537C25.8551 31.9335 25.5502 30.3433 24.9454 28.8582C24.3406 27.3731 23.4478 26.0224 22.3184 24.884C21.189 23.7456 19.8455 22.842 18.3652 22.2254C16.8849 21.6088 15.2972 21.2914 13.6937 21.2914C12.0901 21.2914 10.5024 21.6088 9.02212 22.2254C7.54185 22.842 6.19828 23.7456 5.06891 24.884C3.93953 26.0224 3.0467 27.3731 2.44189 28.8582C1.83708 30.3433 1.53226 31.9335 1.54501 33.537C1.54501 33.7407 1.46412 33.936 1.32012 34.08C1.17612 34.224 0.980801 34.3049 0.777152 34.3049C0.573504 34.3049 0.378207 34.224 0.234206 34.08C0.0902052 33.936 0.0092951 33.7407 0.0092951 33.537C-0.00423098 31.7313 0.339732 29.9408 1.02137 28.2687C1.70301 26.5966 2.70885 25.0759 3.98091 23.7942C5.25296 22.5126 6.76608 21.4954 8.43306 20.8013C10.1 20.1071 11.8879 19.7498 13.6937 19.7498C15.4994 19.7498 17.2873 20.1071 18.9543 20.8013C20.6212 21.4954 22.1344 22.5126 23.4064 23.7942C24.6785 25.0759 25.6843 26.5966 26.3659 28.2687C27.0476 29.9408 27.3916 31.7313 27.378 33.537C27.378 33.6378 27.3582 33.7377 27.3196 33.8309C27.281 33.924 27.2244 34.0087 27.1531 34.08C27.0818 34.1513 26.9972 34.2078 26.904 34.2464C26.8109 34.285 26.711 34.3049 26.6102 34.3049Z" fill="#0088C8"/>
<path d="M72.3836 0C74.7806 0 77.0793 0.952181 78.7742 2.64707C80.4691 4.34197 81.4213 6.64074 81.4213 9.03768C81.4213 11.4346 80.4691 13.7334 78.7742 15.4283C77.0793 17.1232 74.7806 18.0754 72.3836 18.0754C69.9867 18.0754 67.6879 17.1232 65.993 15.4283C64.2981 13.7334 63.3459 11.4346 63.3459 9.03768C63.3459 6.64074 64.2981 4.34197 65.993 2.64707C67.6879 0.952181 69.9867 0 72.3836 0ZM72.3836 16.5396C73.8674 16.5396 75.3178 16.0997 76.5515 15.2753C77.7852 14.451 78.7467 13.2794 79.3145 11.9086C79.8823 10.5377 80.0309 9.02936 79.7414 7.57412C79.452 6.11888 78.7375 4.78216 77.6883 3.73299C76.6391 2.68382 75.3024 1.96933 73.8472 1.67986C72.3919 1.3904 70.8836 1.53896 69.5127 2.10677C68.1419 2.67457 66.9703 3.63612 66.146 4.86981C65.3216 6.1035 64.8817 7.55393 64.8817 9.03768C64.8839 11.0266 65.675 12.9335 67.0814 14.3399C68.4878 15.7463 70.3947 16.5374 72.3836 16.5396Z" fill="#0088C8"/>
<path d="M85.2995 34.3049C85.0959 34.3049 84.9005 34.224 84.7565 34.08C84.6125 33.936 84.5316 33.7407 84.5316 33.537C84.5444 31.9335 84.2396 30.3433 83.6348 28.8582C83.03 27.3731 82.1371 26.0224 81.0077 24.884C79.8784 23.7456 78.5348 22.842 77.0545 22.2254C75.5743 21.6088 73.9866 21.2914 72.383 21.2914C70.7794 21.2914 69.1917 21.6088 67.7115 22.2254C66.2312 22.842 64.8876 23.7456 63.7582 24.884C62.6289 26.0224 61.736 27.3731 61.1312 28.8582C60.5264 30.3433 60.2216 31.9335 60.2343 33.537C60.2343 33.7407 60.1535 33.936 60.0095 34.08C59.8655 34.224 59.6701 34.3049 59.4665 34.3049C59.2628 34.3049 59.0675 34.224 58.9235 34.08C58.7795 33.936 58.6986 33.7407 58.6986 33.537C58.6851 31.7313 59.0291 29.9408 59.7107 28.2687C60.3923 26.5966 61.3982 25.0759 62.6702 23.7942C63.9423 22.5126 65.4554 21.4954 67.1224 20.8013C68.7894 20.1071 70.5773 19.7498 72.383 19.7498C74.1887 19.7498 75.9766 20.1071 77.6436 20.8013C79.3106 21.4954 80.8237 22.5126 82.0957 23.7942C83.3678 25.0759 84.3736 26.5966 85.0553 28.2687C85.7369 29.9408 86.0809 31.7313 86.0674 33.537C86.0674 33.6378 86.0475 33.7377 86.0089 33.8309C85.9703 33.924 85.9137 34.0087 85.8424 34.08C85.7711 34.1513 85.6865 34.2078 85.5934 34.2464C85.5002 34.285 85.4003 34.3049 85.2995 34.3049Z" fill="#0088C8"/>
<path d="M32.3295 8.59302H53.7473" stroke="black" stroke-width="2" stroke-linecap="round" stroke-linejoin="round"/>
<path d="M32.3295 73.0046H53.7473" stroke="black" stroke-width="2" stroke-linecap="round" stroke-linejoin="round"/>
<path d="M13.6938 45.1623V35.1802" stroke="black" stroke-width="2" stroke-linecap="round" stroke-linejoin="round"/>
<path d="M72.3839 45.1623V35.1802" stroke="black" stroke-width="2" stroke-linecap="round" stroke-linejoin="round"/>
<path d="M35.7885 12.0516L32.3331 8.59623L35.7885 5.14087" stroke="black" stroke-width="2" stroke-linecap="round" stroke-linejoin="round"/>
<path d="M50.2893 69.5464L53.7447 73.0017L50.2893 76.4571" stroke="black" stroke-width="2" stroke-linecap="round" stroke-linejoin="round"/>
</svg>
