<svg width="18" height="18" viewBox="0 0 18 18" fill="none" xmlns="http://www.w3.org/2000/svg">
<path fill-rule="evenodd" clip-rule="evenodd" d="M0.120117 2.21433C0.120117 1.834 0.271205 1.46924 0.540144 1.2003C0.809082 0.931363 1.17384 0.780275 1.55418 0.780275H15.8495C16.038 0.779968 16.2247 0.816839 16.3989 0.888779C16.5731 0.960719 16.7314 1.06631 16.8648 1.19952C16.9981 1.33273 17.1039 1.49093 17.176 1.66506C17.2482 1.8392 17.2852 2.02585 17.2851 2.21433V16.5097C17.2853 16.6982 17.2484 16.8849 17.1763 17.0591C17.1043 17.2333 16.9987 17.3916 16.8654 17.525C16.7321 17.6583 16.5739 17.7641 16.3997 17.8362C16.2255 17.9083 16.0388 17.9454 15.8503 17.9453H1.55418C1.36579 17.9453 1.17924 17.9082 1.00521 17.8361C0.831167 17.7639 0.673042 17.6582 0.539868 17.525C0.406693 17.3917 0.301077 17.2336 0.229055 17.0595C0.157032 16.8854 0.120015 16.6988 0.120117 16.5105V2.21433ZM6.91434 7.32483H9.23864V8.49205C9.57414 7.82105 10.4324 7.21716 11.7221 7.21716C14.1946 7.21716 14.7806 8.55369 14.7806 11.0059V15.5484H12.2784V11.5646C12.2784 10.168 11.9429 9.37995 11.0909 9.37995C9.90886 9.37995 9.41731 10.2296 9.41731 11.5646V15.5484H6.91434V7.32483ZM2.62309 15.4415H5.12606V7.21716H2.62309V15.4408V15.4415ZM5.48418 4.53473C5.4889 4.74904 5.45077 4.96213 5.37202 5.1615C5.29327 5.36087 5.17549 5.5425 5.02559 5.69574C4.87569 5.84897 4.6967 5.97072 4.49911 6.05384C4.30152 6.13696 4.08932 6.17978 3.87496 6.17978C3.66061 6.17978 3.44841 6.13696 3.25082 6.05384C3.05323 5.97072 2.87423 5.84897 2.72434 5.69574C2.57444 5.5425 2.45666 5.36087 2.37791 5.1615C2.29916 4.96213 2.26103 4.74904 2.26574 4.53473C2.27501 4.11408 2.44862 3.71377 2.7494 3.41954C3.05017 3.12531 3.45421 2.96056 3.87496 2.96056C4.29572 2.96056 4.69975 3.12531 5.00053 3.41954C5.30131 3.71377 5.47492 4.11408 5.48418 4.53473Z" fill="white"/>
</svg>
