<svg width="16" height="16" viewBox="0 0 16 16" fill="none" xmlns="http://www.w3.org/2000/svg">
<path d="M14.3688 2.66655C14.3082 2.6603 14.2472 2.6603 14.1866 2.66655H1.74215C1.66239 2.66778 1.58316 2.67974 1.50659 2.7021L7.92881 9.09766L14.3688 2.66655Z" fill="white"/>
<path d="M15.0266 3.28442L8.55544 9.72887C8.3889 9.89442 8.16361 9.98735 7.92878 9.98735C7.69395 9.98735 7.46866 9.89442 7.30211 9.72887L0.888777 3.33331C0.869061 3.40578 0.858608 3.48044 0.857666 3.55553V12.4444C0.857666 12.6802 0.951317 12.9063 1.11802 13.073C1.28471 13.2397 1.51081 13.3333 1.74655 13.3333H14.191C14.4267 13.3333 14.6528 13.2397 14.8195 13.073C14.9862 12.9063 15.0799 12.6802 15.0799 12.4444V3.55553C15.0764 3.46294 15.0584 3.37146 15.0266 3.28442ZM2.35544 12.4444H1.73767V11.8089L4.96878 8.60442L5.59544 9.23109L2.35544 12.4444ZM14.1821 12.4444H13.5599L10.3199 9.23109L10.9466 8.60442L14.1777 11.8089L14.1821 12.4444Z" fill="white"/>
</svg>
