<svg width="19" height="18" viewBox="0 0 19 18" fill="none" xmlns="http://www.w3.org/2000/svg">
<path fill-rule="evenodd" clip-rule="evenodd" d="M5.98802 0.831768C6.90323 0.789636 7.19503 0.780273 9.52636 0.780273C11.8577 0.780273 12.1495 0.790416 13.0639 0.831768C13.9783 0.873121 14.6025 1.01902 15.1487 1.23047C15.7206 1.44659 16.2394 1.78443 16.6686 2.22135C17.1055 2.6497 17.4426 3.16777 17.6579 3.74046C17.8701 4.28662 18.0152 4.9108 18.0574 5.82367C18.0995 6.74044 18.1089 7.03224 18.1089 9.36278C18.1089 11.6941 18.0987 11.9859 18.0574 12.9011C18.016 13.814 17.8701 14.4382 17.6579 14.9843C17.4425 15.5571 17.1049 16.076 16.6686 16.505C16.2394 16.9419 15.7206 17.279 15.1487 17.4943C14.6025 17.7065 13.9783 17.8517 13.0655 17.8938C12.1495 17.9359 11.8577 17.9453 9.52636 17.9453C7.19503 17.9453 6.90323 17.9351 5.98802 17.8938C5.07516 17.8524 4.45097 17.7065 3.90481 17.4943C3.33206 17.2789 2.81313 16.9413 2.38415 16.505C1.94752 16.0764 1.60963 15.5577 1.39404 14.9851C1.1826 14.4389 1.03748 13.8148 0.995343 12.9019C0.95321 11.9851 0.943848 11.6933 0.943848 9.36278C0.943848 7.03146 0.953991 6.73966 0.995343 5.82523C1.03669 4.9108 1.1826 4.28662 1.39404 3.74046C1.60995 3.16783 1.94809 2.64916 2.38493 2.22057C2.81331 1.78404 3.33171 1.44615 3.90403 1.23047C4.45019 1.01902 5.07438 0.873901 5.98724 0.831768H5.98802ZM12.9945 2.37662C12.0894 2.33527 11.8179 2.32669 9.52636 2.32669C7.23483 2.32669 6.96331 2.33527 6.05824 2.37662C5.22106 2.41485 4.76696 2.55451 4.46424 2.67233C4.06398 2.82837 3.77764 3.01329 3.47725 3.31367C3.1925 3.5907 2.97336 3.92793 2.8359 4.30066C2.71809 4.60339 2.57843 5.05748 2.54019 5.89467C2.49884 6.79973 2.49026 7.07125 2.49026 9.36278C2.49026 11.6543 2.49884 11.9258 2.54019 12.8309C2.57843 13.6681 2.71809 14.1222 2.8359 14.4249C2.97322 14.7971 3.19247 15.1349 3.47725 15.4119C3.75423 15.6967 4.09207 15.9159 4.46424 16.0532C4.76696 16.1711 5.22106 16.3107 6.05824 16.3489C6.96331 16.3903 7.23405 16.3989 9.52636 16.3989C11.8187 16.3989 12.0894 16.3903 12.9945 16.3489C13.8317 16.3107 14.2857 16.1711 14.5885 16.0532C14.9887 15.8972 15.2751 15.7123 15.5755 15.4119C15.8602 15.1349 16.0795 14.7971 16.2168 14.4249C16.3346 14.1222 16.4743 13.6681 16.5125 12.8309C16.5539 11.9258 16.5625 11.6543 16.5625 9.36278C16.5625 7.07125 16.5539 6.79973 16.5125 5.89467C16.4743 5.05748 16.3346 4.60339 16.2168 4.30066C16.0608 3.90041 15.8759 3.61406 15.5755 3.31367C15.2984 3.02895 14.9612 2.80981 14.5885 2.67233C14.2857 2.55451 13.8317 2.41485 12.9945 2.37662ZM8.43014 12.0085C9.04235 12.2634 9.72405 12.2978 10.3588 12.1058C10.9936 11.9139 11.542 11.5076 11.9104 10.9562C12.2789 10.4048 12.4445 9.74265 12.3789 9.08276C12.3134 8.42287 12.0207 7.80621 11.551 7.33809C11.2516 7.03885 10.8896 6.80973 10.491 6.66721C10.0924 6.52469 9.66713 6.47232 9.24586 6.51387C8.82459 6.55542 8.41777 6.68986 8.05469 6.90751C7.69161 7.12515 7.38131 7.42059 7.14612 7.77256C6.91092 8.12453 6.75669 8.52426 6.69453 8.94299C6.63237 9.36171 6.66382 9.78901 6.78662 10.1941C6.90941 10.5992 7.12051 10.9721 7.4047 11.2858C7.68889 11.5996 8.0391 11.8464 8.43014 12.0085ZM6.407 6.24343C6.81664 5.83379 7.30296 5.50885 7.83817 5.28715C8.37339 5.06546 8.94704 4.95135 9.52636 4.95135C10.1057 4.95135 10.6793 5.06546 11.2145 5.28715C11.7498 5.50885 12.2361 5.83379 12.6457 6.24343C13.0553 6.65307 13.3803 7.13938 13.602 7.6746C13.8237 8.20982 13.9378 8.78346 13.9378 9.36278C13.9378 9.9421 13.8237 10.5157 13.602 11.051C13.3803 11.5862 13.0553 12.0725 12.6457 12.4821C11.8184 13.3094 10.6963 13.7742 9.52636 13.7742C8.35637 13.7742 7.23431 13.3094 6.407 12.4821C5.5797 11.6548 5.11493 10.5328 5.11493 9.36278C5.11493 8.1928 5.5797 7.07073 6.407 6.24343ZM14.9162 5.60832C15.0177 5.51257 15.0989 5.39741 15.1552 5.26969C15.2114 5.14196 15.2414 5.00425 15.2434 4.86471C15.2454 4.72518 15.2195 4.58665 15.167 4.45734C15.1145 4.32803 15.0367 4.21055 14.938 4.11188C14.8393 4.0132 14.7218 3.93533 14.5925 3.88286C14.4632 3.8304 14.3247 3.80442 14.1852 3.80645C14.0456 3.80849 13.9079 3.8385 13.7802 3.89471C13.6525 3.95092 13.5373 4.03218 13.4415 4.13369C13.2553 4.33111 13.1533 4.59334 13.1573 4.86471C13.1613 5.13608 13.2708 5.39523 13.4627 5.58714C13.6546 5.77904 13.9138 5.8886 14.1852 5.89256C14.4565 5.89652 14.7188 5.79456 14.9162 5.60832Z" fill="white"/>
</svg>
