<svg width="20" height="13" viewBox="0 0 20 13" fill="none" xmlns="http://www.w3.org/2000/svg">
<path d="M18.9499 2.07684C18.8438 1.69861 18.6373 1.35618 18.3522 1.08595C18.0591 0.807416 17.6998 0.608171 17.3083 0.507025C15.843 0.120812 9.97255 0.120812 9.97255 0.120812C7.52523 0.0929682 5.07851 0.215434 2.64621 0.487519C2.25468 0.596137 1.89607 0.799834 1.60226 1.08049C1.31358 1.35825 1.10448 1.70077 0.995246 2.07606C0.73285 3.48964 0.60536 4.92494 0.614495 6.36264C0.605132 7.79904 0.73231 9.23387 0.995246 10.6492C1.10214 11.0229 1.31046 11.3639 1.59992 11.6393C1.88939 11.9147 2.24985 12.1137 2.64621 12.219C4.13098 12.6045 9.97255 12.6045 9.97255 12.6045C12.423 12.6323 14.8728 12.5099 17.3083 12.2378C17.6998 12.1366 18.0591 11.9374 18.3522 11.6588C18.6409 11.3834 18.8461 11.0409 18.9491 10.6679C19.2183 9.25491 19.3492 7.819 19.34 6.38058C19.3602 4.93607 19.2295 3.4934 18.9499 2.07606V2.07684ZM8.10624 9.03414V3.69192L12.9905 6.36342L8.10624 9.03414Z" fill="white"/>
</svg>
