<svg width="92" height="92" viewBox="0 0 92 92" fill="none" xmlns="http://www.w3.org/2000/svg">
<path d="M32.5636 22.0419C49.9957 22.0419 64.1272 17.3315 64.1272 11.5209C64.1272 5.71039 49.9957 1 32.5636 1C15.1315 1 1 5.71039 1 11.5209C1 17.3315 15.1315 22.0419 32.5636 22.0419Z" stroke="#10192E" stroke-width="2" stroke-miterlimit="10"/>
<path d="M64.1279 27.7148C64.1279 33.5255 49.9964 38.2358 32.5636 38.2358C15.1308 38.2358 1 33.5255 1 27.7148" stroke="#10192E" stroke-width="2" stroke-miterlimit="10"/>
<path d="M41.0485 54.0429C38.3487 54.2935 35.5028 54.4275 32.5636 54.4275C15.1315 54.4275 1 49.7164 1 43.9058" stroke="#10192E" stroke-width="2" stroke-miterlimit="10" stroke-linecap="round"/>
<path d="M36.4361 70.5399C35.1671 70.5901 33.8763 70.6152 32.5636 70.6152C15.1315 70.6152 1 65.9049 1 60.0942" stroke="#10192E" stroke-width="2" stroke-miterlimit="10" stroke-linecap="round"/>
<path d="M39.5055 86.5548C37.2716 86.7219 34.9488 86.8107 32.5636 86.8107C15.1315 86.8107 1 82.0982 1 76.286V11.5217" stroke="#10192E" stroke-width="2" stroke-miterlimit="10" stroke-linecap="round"/>
<path d="M64.1426 11.4336V35.8332" stroke="#10192E" stroke-width="2" stroke-miterlimit="10" stroke-linecap="round"/>
<path d="M67.2482 43.3374C72.8697 43.3417 78.3169 45.2888 82.6672 48.849C87.0176 52.4092 90.0036 57.3637 91.1196 62.8733C92.2356 68.3828 91.4129 74.1088 88.7909 79.0813C86.1689 84.0538 81.9087 87.9672 76.732 90.1586C70.7888 92.6099 64.1178 92.614 58.1716 90.1699C52.2253 87.7259 47.4855 83.0317 44.984 77.1094C42.4826 71.1871 42.4221 64.5164 44.8158 58.5497C47.2095 52.583 51.8635 47.8037 57.7645 45.2523C60.7647 43.9826 63.9904 43.3313 67.2482 43.3374ZM67.2482 90.5688C72.5226 90.5651 77.6335 88.7385 81.7154 85.3983C85.7973 82.0581 88.5991 77.4096 89.6464 72.2403C90.6936 67.071 89.9219 61.6985 87.4619 57.033C85.002 52.3675 81.0049 48.6956 76.1479 46.6394C70.5674 44.3156 64.2939 44.2958 58.6988 46.5842C53.1037 48.8727 48.6422 53.2832 46.2898 58.8517C43.9373 64.4202 43.8853 70.6936 46.1449 76.3003C48.4046 81.9071 52.7922 86.3911 58.3486 88.7721C61.164 89.9637 64.191 90.5748 67.2482 90.5688Z" fill="#0088C8"/>
<path d="M65.3074 54.4402L60.4617 69.0708L67.7303 67.9523L64.5623 81.4644L75.1856 63.1065L66.5659 64.4614L70.3865 54.444L65.3074 54.4402Z" stroke="#10192E" stroke-width="2" stroke-linecap="round" stroke-linejoin="round"/>
</svg>
