<svg width="16" height="16" viewBox="0 0 16 16" fill="none" xmlns="http://www.w3.org/2000/svg">
<path d="M5.5 2C5.10218 2 4.72064 2.15804 4.43934 2.43934C4.15804 2.72064 4 3.10218 4 3.5V6C3.46957 6 2.96086 6.21071 2.58579 6.58579C2.21071 6.96086 2 7.46957 2 8V12.5C2 12.8978 2.15804 13.2794 2.43934 13.5607C2.72064 13.842 3.10218 14 3.5 14H9.5C9.17473 13.5676 8.9992 13.0411 9 12.5V7.5C9 6.937 9.186 6.418 9.5 6H5V3.5C5 3.36739 5.05268 3.24021 5.14645 3.14645C5.24021 3.05268 5.36739 3 5.5 3H10.5C10.6326 3 10.7598 3.05268 10.8536 3.14645C10.9473 3.24021 11 3.36739 11 3.5V5.05C11.162 5.017 11.329 5 11.5 5H12V3.5C12 3.10218 11.842 2.72064 11.5607 2.43934C11.2794 2.15804 10.8978 2 10.5 2H5.5ZM4.5 9C4.36739 9 4.24021 8.94732 4.14645 8.85355C4.05268 8.75979 4 8.63261 4 8.5C4 8.36739 4.05268 8.24021 4.14645 8.14645C4.24021 8.05268 4.36739 8 4.5 8C4.63261 8 4.75979 8.05268 4.85355 8.14645C4.94732 8.24021 5 8.36739 5 8.5C5 8.63261 4.94732 8.75979 4.85355 8.85355C4.75979 8.94732 4.63261 9 4.5 9ZM4.5 11C4.36739 11 4.24021 10.9473 4.14645 10.8536C4.05268 10.7598 4 10.6326 4 10.5C4 10.3674 4.05268 10.2402 4.14645 10.1464C4.24021 10.0527 4.36739 10 4.5 10C4.63261 10 4.75979 10.0527 4.85355 10.1464C4.94732 10.2402 5 10.3674 5 10.5C5 10.6326 4.94732 10.7598 4.85355 10.8536C4.75979 10.9473 4.63261 11 4.5 11ZM7 8.5C7 8.63261 6.94732 8.75979 6.85355 8.85355C6.75979 8.94732 6.63261 9 6.5 9C6.36739 9 6.24021 8.94732 6.14645 8.85355C6.05268 8.75979 6 8.63261 6 8.5C6 8.36739 6.05268 8.24021 6.14645 8.14645C6.24021 8.05268 6.36739 8 6.5 8C6.63261 8 6.75979 8.05268 6.85355 8.14645C6.94732 8.24021 7 8.36739 7 8.5ZM6.5 11C6.36739 11 6.24021 10.9473 6.14645 10.8536C6.05268 10.7598 6 10.6326 6 10.5C6 10.3674 6.05268 10.2402 6.14645 10.1464C6.24021 10.0527 6.36739 10 6.5 10C6.63261 10 6.75979 10.0527 6.85355 10.1464C6.94732 10.2402 7 10.3674 7 10.5C7 10.6326 6.94732 10.7598 6.85355 10.8536C6.75979 10.9473 6.63261 11 6.5 11ZM10 7.5C10 7.10218 10.158 6.72064 10.4393 6.43934C10.7206 6.15804 11.1022 6 11.5 6H12.5C12.8978 6 13.2794 6.15804 13.5607 6.43934C13.842 6.72064 14 7.10218 14 7.5V12.5C14 12.8978 13.842 13.2794 13.5607 13.5607C13.2794 13.842 12.8978 14 12.5 14H11.5C11.1022 14 10.7206 13.842 10.4393 13.5607C10.158 13.2794 10 12.8978 10 12.5V7.5Z" fill="white"/>
</svg>
