<svg width="100" height="101" viewBox="0 0 100 101" fill="none" xmlns="http://www.w3.org/2000/svg">
<path d="M1 50.31C1 77.3719 22.938 99.31 50 99.31C77.062 99.31 99 77.3719 99 50.31C99 23.248 77.062 1.31 50 1.31C22.938 1.31 1 23.248 1 50.31Z" stroke="#10192E" stroke-width="2"/>
<path d="M84.356 16.237L69.564 31.029" stroke="#10192E" stroke-width="2" stroke-linecap="round"/>
<path d="M29.578 71.015L15.535 85.142" stroke="#10192E" stroke-width="2" stroke-linecap="round"/>
<path d="M35.5349 62.1409C35.5349 63.6946 35.8409 65.2331 36.4355 66.6685C37.0301 68.1039 37.9015 69.4081 39.0001 70.5067C41.2189 72.7255 44.2281 73.972 47.3659 73.972H52.1439C55.2817 73.972 58.2909 72.7255 60.5097 70.5067C62.7284 68.288 63.9749 65.2787 63.9749 62.1409C63.9749 60.5873 63.6689 59.0488 63.0743 57.6134C62.4798 56.178 61.6083 54.8738 60.5097 53.7752C59.4111 52.6766 58.1068 51.8051 56.6714 51.2105C55.236 50.616 53.6976 50.3099 52.1439 50.3099H47.3659C45.8122 50.3099 44.2738 50.0039 42.8384 49.4094C41.403 48.8148 40.0987 47.9433 39.0001 46.8447C37.9015 45.7461 37.0301 44.4419 36.4355 43.0065C35.8409 41.5711 35.5349 40.0326 35.5349 38.4789V38.4789C35.5349 36.9253 35.8409 35.3868 36.4355 33.9514C37.0301 32.516 37.9015 31.2118 39.0001 30.1132C40.0987 29.0146 41.403 28.1431 42.8384 27.5485C44.2738 26.954 45.8122 26.6479 47.3659 26.6479H52.1439C55.2817 26.6479 58.2909 27.8944 60.5097 30.1132C62.7284 32.3319 63.9749 35.3412 63.9749 38.4789V38.4789" stroke="#10192E" stroke-width="2" stroke-miterlimit="10" stroke-linecap="round"/>
<path d="M49.5349 19.405V81.215" stroke="#10192E" stroke-width="2" stroke-linecap="round"/>
</svg>
