<svg width="118" height="103" viewBox="0 0 118 103" fill="none" xmlns="http://www.w3.org/2000/svg">
<path d="M62.1058 1.30684C61.9528 1.30684 61.8058 1.31284 61.6488 1.31284C61.4918 1.31284 61.3488 1.30484 61.1918 1.30684C53.9713 1.39813 46.9469 3.66896 41.0394 7.82166C35.132 11.9744 30.6171 17.8151 28.0867 24.5783C25.5562 31.3414 25.1283 38.7113 26.8591 45.7219C28.5899 52.7324 32.3985 59.0564 37.7858 63.8648C40.9845 66.6967 43.5526 70.1691 45.3237 74.0568C46.9143 77.5029 47.752 81.2485 47.7807 85.0438V96.0068C47.7807 96.7028 47.9178 97.392 48.1842 98.0351C48.4505 98.6781 48.8409 99.2624 49.3331 99.7545C49.8252 100.247 50.4095 100.637 51.0525 100.903C51.6956 101.17 52.3848 101.307 53.0808 101.307H70.2157C70.9117 101.307 71.6009 101.17 72.244 100.903C72.887 100.637 73.4713 100.247 73.9634 99.7545C74.4556 99.2624 74.846 98.6781 75.1123 98.0351C75.3787 97.392 75.5158 96.7028 75.5158 96.0068V85.0468C75.5445 81.2515 76.3822 77.5059 77.9728 74.0598C79.7439 70.1721 82.312 66.6998 85.5108 63.8678C90.899 59.0597 94.7086 52.7355 96.44 45.7246C98.1715 38.7136 97.744 31.3431 95.2135 24.5793C92.6831 17.8155 88.1679 11.9743 82.2599 7.82133C76.3518 3.6684 69.3268 1.39766 62.1058 1.30684Z" stroke="black" stroke-width="2" stroke-miterlimit="10" stroke-linecap="round"/>
<path d="M48.3496 85.6028H75.2766" stroke="black" stroke-width="2" stroke-miterlimit="10" stroke-linecap="round"/>
<path d="M61.8417 16.1649H61.6217C61.6217 16.1649 28.9217 45.6768 61.6217 55.4548V55.5238L61.7317 55.4889L61.8417 55.5238V55.4548C94.5407 45.6768 61.8417 16.1649 61.8417 16.1649Z" stroke="#4AAA67" stroke-width="2" stroke-linecap="round" stroke-linejoin="round"/>
<path d="M61.6206 36.5428V67.5408" stroke="#4AAA67" stroke-width="2" stroke-linecap="round" stroke-linejoin="round"/>
<path d="M106.014 36.0858H116.485" stroke="black" stroke-width="2" stroke-miterlimit="10" stroke-linecap="round"/>
<path d="M101.148 47.8339L108.552 55.2379" stroke="black" stroke-width="2" stroke-miterlimit="10" stroke-linecap="round"/>
<path d="M108.552 16.9338L101.148 24.3378" stroke="black" stroke-width="2" stroke-miterlimit="10" stroke-linecap="round"/>
<path d="M11.9847 36.0858H1.51367" stroke="black" stroke-width="2" stroke-miterlimit="10" stroke-linecap="round"/>
<path d="M16.8508 24.3378L9.44678 16.9338" stroke="black" stroke-width="2" stroke-miterlimit="10" stroke-linecap="round"/>
<path d="M9.44678 55.2379L16.8508 47.8339" stroke="black" stroke-width="2" stroke-miterlimit="10" stroke-linecap="round"/>
</svg>
