<svg width="19" height="15" viewBox="0 0 19 15" fill="none" xmlns="http://www.w3.org/2000/svg">
<path d="M18.3357 1.85188C17.6842 2.14056 16.9844 2.33562 16.2486 2.42379C17.0078 1.96953 17.5757 1.25459 17.8465 0.412358C17.1333 0.836013 16.3527 1.13422 15.5386 1.29402C14.9912 0.709519 14.2661 0.322106 13.4759 0.191923C12.6858 0.0617402 11.8747 0.196072 11.1687 0.574062C10.4627 0.952052 9.90129 1.55255 9.57155 2.28233C9.24181 3.01211 9.16223 3.83034 9.34516 4.60998C7.89994 4.53742 6.48612 4.16178 5.19546 3.50745C3.90481 2.85311 2.76616 1.93471 1.85341 0.811834C1.54132 1.35019 1.36187 1.97437 1.36187 2.63913C1.36152 3.23756 1.50889 3.82682 1.7909 4.35464C2.07291 4.88246 2.48084 5.33251 2.9785 5.66485C2.40135 5.64649 1.83693 5.49054 1.33222 5.20998V5.25679C1.33216 6.09612 1.62249 6.90961 2.15394 7.55924C2.6854 8.20888 3.42524 8.65463 4.24793 8.82088C3.71253 8.96578 3.1512 8.98712 2.60633 8.88329C2.83845 9.60548 3.29059 10.237 3.89946 10.6895C4.50833 11.1419 5.24344 11.3926 6.00189 11.4066C4.71438 12.4173 3.12432 12.9655 1.48749 12.9631C1.19754 12.9632 0.907837 12.9463 0.619873 12.9124C2.28135 13.9807 4.21543 14.5476 6.1907 14.5454C12.8773 14.5454 16.5326 9.00735 16.5326 4.20427C16.5326 4.04822 16.5287 3.89061 16.5217 3.73457C17.2327 3.22038 17.8465 2.58365 18.3342 1.85422L18.3357 1.85188Z" fill="white"/>
</svg>
