<svg width="56" height="90" viewBox="0 0 56 90" fill="none" xmlns="http://www.w3.org/2000/svg">
<path d="M46.4242 42.7519C46.2285 42.7519 46.0409 42.6742 45.9025 42.5358C45.7642 42.3975 45.6865 42.2098 45.6865 42.0142V30.5249C45.6865 30.4932 45.6865 30.4615 45.6865 30.4312C45.6865 30.4312 45.6865 30.4246 45.6865 30.4217C45.6816 29.8646 45.8137 29.315 46.0709 28.8209C46.3282 28.3269 46.7028 27.9035 47.1619 27.5881C49.2086 26.165 50.8804 24.2676 52.0343 22.058C53.1882 19.8483 53.7899 17.3921 53.7881 14.8993C53.789 12.2275 53.0973 9.60105 51.7804 7.27632C50.4636 4.95159 48.5665 3.00794 46.2744 1.63506C46.1026 1.53204 45.9066 1.4764 45.7064 1.47379C45.5061 1.47119 45.3087 1.52172 45.1343 1.62024C44.9599 1.71876 44.8147 1.86174 44.7136 2.03463C44.6124 2.20751 44.5589 2.40412 44.5585 2.60442V12.6987C44.5594 14.3402 43.9688 15.927 42.8949 17.1685C41.8259 18.4174 40.3167 19.2064 38.6811 19.3713C37.7747 19.4594 36.8598 19.3572 35.9952 19.0712C35.1306 18.7852 34.3352 18.3218 33.66 17.7107C32.9849 17.0995 32.4448 16.3541 32.0744 15.5222C31.704 14.6902 31.5113 13.7901 31.5089 12.8794V2.99395C31.5087 2.78807 31.4524 2.58615 31.346 2.40988C31.2396 2.23361 31.0872 2.08965 30.9052 1.99347C30.7231 1.8973 30.5183 1.85254 30.3127 1.864C30.1072 1.87545 29.9086 1.9427 29.7384 2.05851C27.7915 3.37188 26.1621 5.10306 24.969 7.12591C23.7544 9.19448 23.0416 11.519 22.8879 13.9129C22.7152 16.5681 23.2316 19.2228 24.387 21.6196C25.5424 24.0164 27.2977 26.0739 29.4824 27.5925C29.9417 27.9109 30.3162 28.3367 30.5733 28.8329C30.8305 29.329 30.9625 29.8805 30.9579 30.4394V36.0992C30.9579 36.2948 30.8802 36.4824 30.7418 36.6208C30.6035 36.7591 30.4158 36.8369 30.2202 36.8369C30.0245 36.8369 29.8368 36.7591 29.6985 36.6208C29.5601 36.4824 29.4824 36.2948 29.4824 36.0992V30.4357C29.4824 30.4357 29.4824 30.4298 29.4824 30.4268C29.4847 30.1079 29.4089 29.7933 29.2617 29.5104C29.1144 29.2275 28.9002 28.9849 28.6377 28.8038C26.2454 27.1402 24.3234 24.8868 23.0581 22.262C21.7927 19.6372 21.2269 16.73 21.4155 13.8222C21.5843 11.1982 22.3658 8.65039 23.6972 6.38303C25.0022 4.16995 26.7846 2.27593 28.9144 0.839049C29.3066 0.574173 29.7635 0.421002 30.2361 0.395916C30.7087 0.370831 31.1792 0.474783 31.5972 0.696651C32.0153 0.91852 32.3651 1.24995 32.6092 1.65541C32.8533 2.06087 32.9825 2.52509 32.9829 2.99836V12.8838C32.9848 13.5885 33.1339 14.285 33.4206 14.9287C33.7074 15.5724 34.1254 16.1491 34.6479 16.6219C35.1683 17.0988 35.7838 17.46 36.454 17.6817C37.1241 17.9035 37.8336 17.9808 38.5357 17.9084C39.7963 17.7806 40.959 17.1715 41.7817 16.208C42.6233 15.2349 43.0861 13.9911 43.0853 12.7046V2.60662C43.0856 2.14511 43.2084 1.69198 43.4411 1.29342C43.6737 0.894854 44.008 0.565153 44.4097 0.337967C44.8114 0.110781 45.2662 -0.00577338 45.7277 0.000220012C46.1892 0.00621341 46.6408 0.134532 47.0365 0.372075C49.463 1.82522 51.4868 3.86306 52.9232 6.29953C54.3596 8.736 55.1628 11.4935 55.2594 14.3202C55.356 17.1469 54.743 19.9528 53.4763 22.4816C52.2097 25.0105 50.3297 27.1818 48.0081 28.7972C47.7473 28.9743 47.5339 29.2127 47.3865 29.4914C47.2392 29.77 47.1623 30.0806 47.1627 30.3958C47.1627 30.4379 47.1627 30.4814 47.1627 30.5242V42.0127C47.1629 42.1098 47.1439 42.2059 47.1068 42.2957C47.0698 42.3854 47.0155 42.4669 46.9468 42.5356C46.8782 42.6042 46.7968 42.6587 46.7071 42.6958C46.6174 42.733 46.5212 42.752 46.4242 42.7519Z" fill="#0088C8"/>
<path d="M38.3289 90.0001C37.9674 90.0001 37.6063 89.9784 37.2474 89.9352C35.077 89.6677 33.0878 88.59 31.6784 86.9179C30.2617 85.2507 29.4843 83.1339 29.4851 80.9461V76.8148C29.4851 76.6192 29.5628 76.4315 29.7012 76.2932C29.8395 76.1548 30.0272 76.0771 30.2228 76.0771C30.4185 76.0771 30.6061 76.1548 30.7445 76.2932C30.8828 76.4315 30.9605 76.6192 30.9605 76.8148V80.9461C30.9602 82.7842 31.6139 84.5624 32.8049 85.9626C33.9741 87.3515 35.6249 88.2474 37.4267 88.4708C38.4613 88.5948 39.5105 88.4984 40.5052 88.188C41.4999 87.8775 42.4176 87.3601 43.1981 86.6696C43.9785 85.9791 44.6039 85.1313 45.0333 84.1818C45.4626 83.2324 45.6861 82.2028 45.6891 81.1607V76.3427C45.6891 76.147 45.7669 75.9594 45.9052 75.821C46.0436 75.6827 46.2312 75.605 46.4268 75.605C46.6225 75.605 46.8102 75.6827 46.9485 75.821C47.0869 75.9594 47.1646 76.147 47.1646 76.3427V81.1607C47.1575 83.0296 46.5609 84.8486 45.4598 86.3586C44.3586 87.8686 42.8091 88.9927 41.0319 89.5708C40.1591 89.8551 39.2469 90 38.3289 90.0001Z" fill="#0088C8"/>
<path d="M35.43 42.5253C35.2343 42.5253 35.0467 42.4476 34.9083 42.3093C34.77 42.1709 34.6923 41.9833 34.6923 41.7876V30.5248C34.6932 29.7156 35.0152 28.9398 35.5875 28.3676C36.1598 27.7954 36.9357 27.4737 37.7449 27.4729H38.9017C39.7109 27.4737 40.4869 27.7954 41.0592 28.3676C41.6315 28.9398 41.9534 29.7156 41.9544 30.5248V32.7528C41.9544 32.9484 41.8766 33.1361 41.7383 33.2744C41.5999 33.4128 41.4123 33.4905 41.2167 33.4905C41.021 33.4905 40.8334 33.4128 40.695 33.2744C40.5567 33.1361 40.4789 32.9484 40.4789 32.7528V30.5248C40.4784 30.1068 40.312 29.706 40.0163 29.4105C39.7206 29.1149 39.3198 28.9487 38.9017 28.9483H37.7449C37.3269 28.9487 36.926 29.1149 36.6304 29.4105C36.3347 29.706 36.1683 30.1068 36.1677 30.5248V41.7884C36.1675 41.9839 36.0897 42.1713 35.9514 42.3095C35.8131 42.4477 35.6255 42.5253 35.43 42.5253Z" fill="#0088C8"/>
<path d="M38.9017 84.7888H37.7449C36.9356 84.7878 36.1597 84.4659 35.5874 83.8936C35.0152 83.3213 34.6932 82.5454 34.6923 81.7361V76.9062C34.6923 76.7106 34.77 76.5229 34.9083 76.3846C35.0467 76.2462 35.2343 76.1685 35.43 76.1685C35.6256 76.1685 35.8133 76.2462 35.9516 76.3846C36.09 76.5229 36.1677 76.7106 36.1677 76.9062V81.7361C36.1681 82.1543 36.3344 82.5552 36.6301 82.8509C36.9258 83.1466 37.3268 83.313 37.7449 83.3133H38.9017C39.3199 83.313 39.7208 83.1466 40.0166 82.8509C40.3123 82.5552 40.4785 82.1543 40.4789 81.7361V76.8627C40.4789 76.6671 40.5567 76.4794 40.695 76.3411C40.8334 76.2027 41.021 76.125 41.2167 76.125C41.4123 76.125 41.5999 76.2027 41.7383 76.3411C41.8766 76.4794 41.9544 76.6671 41.9544 76.8627V81.7361C41.9534 82.5454 41.6315 83.3213 41.0592 83.8936C40.4869 84.4659 39.711 84.7878 38.9017 84.7888Z" fill="#0088C8"/>
<path d="M41.2162 42.6132C41.0206 42.6132 40.8329 42.5355 40.6946 42.3972C40.5562 42.2588 40.4785 42.0712 40.4785 41.8755V37.7133C40.4785 37.5177 40.5562 37.33 40.6946 37.1917C40.8329 37.0533 41.0206 36.9756 41.2162 36.9756C41.4119 36.9756 41.5995 37.0533 41.7379 37.1917C41.8762 37.33 41.954 37.5177 41.954 37.7133V41.8755C41.954 42.0712 41.8762 42.2588 41.7379 42.3972C41.5995 42.5355 41.4119 42.6132 41.2162 42.6132Z" fill="#0088C8"/>
<path d="M6.51446 41.23H4.16556C2.41727 41.23 1 42.6472 1 44.3955V73.3621C1 75.1104 2.41727 76.5277 4.16556 76.5277H6.51446C8.26275 76.5277 9.68002 75.1104 9.68002 73.3621V44.3955C9.68002 42.6472 8.26275 41.23 6.51446 41.23Z" stroke="#10192E" stroke-width="2" stroke-linecap="round" stroke-linejoin="round"/>
<path d="M45.8272 50.7776H47.8707C49.0208 50.7743 50.1228 50.316 50.9359 49.5028C51.7491 48.6896 52.2074 47.5876 52.2107 46.4376V46.4376C52.2076 45.2875 51.7494 44.1853 50.9362 43.3719C50.123 42.5586 49.0209 42.1002 47.8707 42.0969H34.5615C30.5114 42.0969 30.2215 39.4934 30.2215 36.0217H27.039C21.8307 36.0217 20.6739 45.8593 13.7298 45.8593H10.2581" stroke="#10192E" stroke-width="2" stroke-linecap="round" stroke-linejoin="round"/>
<path d="M46.7134 50.7781C47.8635 50.7812 48.9657 51.2394 49.779 52.0526C50.5924 52.8658 51.0508 53.9679 51.0541 55.1181C51.0508 56.2682 50.5924 57.3703 49.779 58.1835C48.9657 58.9968 47.8635 59.455 46.7134 59.4581H44.6707" stroke="#10192E" stroke-width="2" stroke-linecap="round" stroke-linejoin="round"/>
<path d="M45.5562 59.4575C46.7064 59.4608 47.8084 59.9192 48.6216 60.7326C49.4349 61.5459 49.8931 62.6481 49.8962 63.7983V63.7983C49.8929 64.9483 49.4346 66.0503 48.6214 66.8635C47.8082 67.6767 46.7062 68.135 45.5562 68.1383H43.5134" stroke="#10192E" stroke-width="2" stroke-linecap="round" stroke-linejoin="round"/>
<path d="M43.8215 68.1377C44.9716 68.141 46.0735 68.5993 46.8867 69.4125C47.6999 70.2257 48.1582 71.3277 48.1616 72.4777V72.4777C48.159 73.6282 47.701 74.731 46.8877 75.5448C46.0745 76.3586 44.9721 76.8173 43.8215 76.8207H30.2039C24.7241 76.8207 21.2524 71.9023 16.6232 71.9023H9.67981" stroke="#10192E" stroke-width="2" stroke-linecap="round" stroke-linejoin="round"/>
</svg>
