<svg width="102" height="88" viewBox="0 0 102 88" fill="none" xmlns="http://www.w3.org/2000/svg">
<path d="M90.8616 1.87012H11.8751C6.34951 1.87012 1.87012 6.34951 1.87012 11.8751V13.02C1.87012 18.5457 6.34951 23.025 11.8751 23.025H90.8616C96.3872 23.025 100.867 18.5457 100.867 13.02V11.8751C100.867 6.34951 96.3872 1.87012 90.8616 1.87012Z" stroke="#10192E" stroke-width="2" stroke-linecap="round" stroke-linejoin="round"/>
<path d="M90.8616 33.9226H11.8751C6.34951 33.9226 1.87012 38.402 1.87012 43.9276V45.0725C1.87012 50.5981 6.34951 55.0775 11.8751 55.0775H90.8616C96.3872 55.0775 100.867 50.5981 100.867 45.0725V43.9276C100.867 38.402 96.3872 33.9226 90.8616 33.9226Z" stroke="#10192E" stroke-width="2" stroke-linecap="round" stroke-linejoin="round"/>
<path d="M90.8615 65.105H11.875C5.86891 65.105 1 69.9739 1 75.98V77.1249C1 83.131 5.86891 87.9999 11.875 87.9999H90.8615C96.8676 87.9999 101.736 83.131 101.736 77.1249V75.98C101.736 69.9739 96.8676 65.105 90.8615 65.105Z" fill="#0088C8"/>
<path d="M12.0897 77.2137L14.9398 80.0638L22.4219 72.5818" stroke="white" stroke-width="3" stroke-linecap="round" stroke-linejoin="round"/>
</svg>
