<svg width="113" height="104" viewBox="0 0 113 104" fill="none" xmlns="http://www.w3.org/2000/svg">
<path d="M104.83 73.8362L101.448 69.6745C101.321 69.5183 101.167 69.3877 100.993 69.29C100.82 69.1924 100.631 69.1297 100.437 69.1055C100.244 69.0814 100.049 69.0962 99.8648 69.1491C99.6806 69.2021 99.5102 69.2921 99.3634 69.4141L78.1182 87.0544C77.9714 87.1763 77.8509 87.3278 77.7638 87.5002C77.6767 87.6725 77.6246 87.8625 77.6105 88.0591C77.5964 88.2557 77.6206 88.4552 77.6817 88.6461C77.7427 88.837 77.8395 89.0156 77.9665 89.1718L81.3487 93.3334" stroke="#CECECE" stroke-width="1.5" stroke-linecap="round" stroke-linejoin="round"/>
<path d="M79.4354 86.7504L76.8953 83.6996C76.4072 83.1134 75.8007 82.6351 75.1187 82.2987C74.4367 81.9623 73.6959 81.776 72.9491 81.7531L45.895 80.9084C45.1483 80.8853 44.4078 80.699 43.7259 80.3628C43.044 80.0265 42.4376 79.5485 41.9494 78.9626L18.5636 50.8758C17.6185 49.7407 17.1471 48.3001 17.2531 46.871C17.3592 45.4419 18.0339 44.1414 19.129 43.2554V43.2554C20.2241 42.3696 21.6498 41.971 23.0923 42.1472C24.5349 42.3234 25.8763 43.0601 26.8214 44.1952L35.1362 54.1815" stroke="#CECECE" stroke-width="1.5" stroke-linecap="round" stroke-linejoin="round"/>
<path d="M96.9685 72.2904L85.2672 58.1381C84.7816 57.5509 84.1795 57.0704 83.5027 56.7302C82.8258 56.39 82.0904 56.1981 81.3475 56.1678L46.1771 54.7299C44.725 54.6704 43.3345 55.1785 42.2991 56.147C41.2637 57.1155 40.6644 58.4687 40.6275 59.9209V59.9209C40.5905 61.3816 41.1253 62.8273 42.1179 63.9498C43.1106 65.0723 44.4826 65.7827 45.9413 65.9297L63.734 67.7194" stroke="#CECECE" stroke-width="1.5" stroke-linecap="round" stroke-linejoin="round"/>
<path d="M55.7285 14.3721L51.0086 28.6228L58.0887 27.5334L55.0025 40.695L65.3501 22.8134L56.9539 24.1296L60.6756 14.3727L55.7285 14.3721Z" fill="#0088C8"/>
<path d="M57.3404 49.7856C70.7193 49.7856 81.565 38.9399 81.565 25.561C81.565 12.1821 70.7193 1.33643 57.3404 1.33643C43.9615 1.33643 33.1158 12.1821 33.1158 25.561C33.1158 38.9399 43.9615 49.7856 57.3404 49.7856Z" stroke="#10192E" stroke-width="1.5"/>
</svg>
