<svg width="138" height="112" viewBox="0 0 138 112" fill="none" xmlns="http://www.w3.org/2000/svg">
<path d="M134.709 10.4264H16.9531C15.6878 10.4264 14.6621 11.4521 14.6621 12.7174V95.6505C14.6621 96.9158 15.6878 97.9415 16.9531 97.9415H134.709C135.974 97.9415 137 96.9158 137 95.6505V12.7174C137 11.4521 135.974 10.4264 134.709 10.4264Z" stroke="#CECECE" stroke-width="1.5" stroke-linecap="round" stroke-linejoin="round"/>
<path d="M15.3494 85.7993H136.313" stroke="#CECECE" stroke-width="1.5" stroke-linecap="round" stroke-linejoin="round"/>
<path d="M86.3696 98.0097V104.585L93.4446 109.538C93.5847 109.636 93.6898 109.776 93.7447 109.938C93.7997 110.1 93.8016 110.275 93.7502 110.438C93.6988 110.601 93.5968 110.743 93.4589 110.844C93.3211 110.946 93.1546 111 92.9837 111H58.6786C58.5077 111 58.3412 110.946 58.2034 110.844C58.0655 110.743 57.9635 110.601 57.9121 110.438C57.8607 110.275 57.8626 110.1 57.9176 109.938C57.9725 109.776 58.0776 109.636 58.2177 109.538L65.2927 104.585V97.9213" stroke="#CECECE" stroke-width="1.5" stroke-linecap="round" stroke-linejoin="round"/>
<path d="M131.273 14.7792H20.3897C19.8836 14.7792 19.4733 15.1895 19.4733 15.6956V80.301C19.4733 80.8071 19.8836 81.2174 20.3897 81.2174H131.273C131.779 81.2174 132.189 80.8071 132.189 80.301V15.6956C132.189 15.1895 131.779 14.7792 131.273 14.7792Z" stroke="#CECECE" stroke-width="1.5" stroke-linecap="round" stroke-linejoin="round"/>
<path d="M102.542 29.6705H49.121C48.6895 29.6705 48.3398 30.0203 48.3398 30.4518V38.0532C48.3398 38.4847 48.6895 38.8344 49.121 38.8344H102.542C102.973 38.8344 103.323 38.4847 103.323 38.0532V30.4518C103.323 30.0203 102.973 29.6705 102.542 29.6705Z" stroke="#08122A" stroke-width="0.728778" stroke-linecap="round" stroke-linejoin="round"/>
<path d="M102.542 43.4164H49.121C48.6896 43.4164 48.3398 43.7661 48.3398 44.1976V51.799C48.3398 52.2305 48.6896 52.5803 49.121 52.5803H102.542C102.973 52.5803 103.323 52.2305 103.323 51.799V44.1976C103.323 43.7661 102.973 43.4164 102.542 43.4164Z" stroke="#08122A" stroke-width="0.728778" stroke-linecap="round" stroke-linejoin="round"/>
<path d="M102.542 57.1622H49.121C48.6896 57.1622 48.3398 57.512 48.3398 57.9435V65.5449C48.3398 65.9764 48.6896 66.3261 49.121 66.3261H102.542C102.973 66.3261 103.323 65.9764 103.323 65.5449V57.9435C103.323 57.512 102.973 57.1622 102.542 57.1622Z" fill="#0088C8"/>
<g filter="url(#filter0_d)">
<path d="M101.497 62.9636L102.072 72.9525L105.519 69.93L109.86 68.4558L101.497 62.9636Z" fill="#08122A" stroke="white" stroke-width="0.364389" stroke-linecap="round" stroke-linejoin="round"/>
</g>
<path d="M18.0987 36.5434C28.0943 36.5434 36.1973 28.4404 36.1973 18.4447C36.1973 8.44912 28.0943 0.346069 18.0987 0.346069C8.10305 0.346069 0 8.44912 0 18.4447C0 28.4404 8.10305 36.5434 18.0987 36.5434Z" fill="#FCFCFC"/>
<path d="M18.0989 32.4197C25.817 32.4197 32.0738 26.1629 32.0738 18.4448C32.0738 10.7266 25.817 4.46985 18.0989 4.46985C10.3807 4.46985 4.12393 10.7266 4.12393 18.4448C4.12393 26.1629 10.3807 32.4197 18.0989 32.4197Z" fill="#FCFCFC"/>
<path d="M18.0984 31.9615C25.5635 31.9615 31.6151 25.9099 31.6151 18.4448C31.6151 10.9797 25.5635 4.92804 18.0984 4.92804C10.6333 4.92804 4.58167 10.9797 4.58167 18.4448C4.58167 25.9099 10.6333 31.9615 18.0984 31.9615Z" stroke="#10192E" stroke-width="0.728778"/>
<path d="M25.0201 18.604C25.3207 18.2067 25.4872 17.7199 25.4872 17.2133C25.4872 16.4097 25.038 15.649 24.3149 15.2249C24.1287 15.1157 23.9168 15.0582 23.701 15.0584H19.409L19.5164 12.8587C19.5414 12.3271 19.3535 11.8224 18.9884 11.4376C18.8092 11.2479 18.593 11.097 18.3532 10.9942C18.1134 10.8914 17.855 10.8388 17.5941 10.8398C16.6634 10.8398 15.8401 11.4662 15.5931 12.3629L14.0556 17.9293H11.7414C11.4246 17.9293 11.1686 18.1852 11.1686 18.502V25.017C11.1686 25.3338 11.4246 25.5897 11.7414 25.5897H22.5036C22.6682 25.5897 22.8293 25.5575 22.9779 25.493C23.8298 25.1297 24.3793 24.2974 24.3793 23.3739C24.3793 23.1484 24.3471 22.9264 24.2826 22.7117C24.5833 22.3143 24.7498 21.8275 24.7498 21.321C24.7498 21.0955 24.7176 20.8735 24.6531 20.6587C24.9538 20.2614 25.1203 19.7746 25.1203 19.2681C25.1167 19.0425 25.0845 18.8188 25.0201 18.604ZM12.4573 24.301V19.2179H13.9071V24.301H12.4573ZM23.8477 17.983L23.4558 18.323L23.7045 18.7776C23.7865 18.9274 23.829 19.0956 23.828 19.2663C23.828 19.5616 23.6992 19.8426 23.4772 20.0359L23.0853 20.376L23.334 20.8306C23.416 20.9803 23.4585 21.1485 23.4575 21.3192C23.4575 21.6145 23.3287 21.8955 23.1067 22.0888L22.7148 22.4289L22.9635 22.8835C23.0455 23.0332 23.088 23.2014 23.087 23.3721C23.087 23.773 22.8508 24.1346 22.4857 24.2992H15.0525V19.1607L16.8334 12.7084C16.8793 12.543 16.9779 12.3971 17.1142 12.2928C17.2505 12.1884 17.4171 12.1314 17.5887 12.1303C17.7247 12.1303 17.859 12.1696 17.9664 12.2502C18.1436 12.3826 18.2384 12.5831 18.2277 12.7961L18.0559 16.3471H23.6831C24.0016 16.5422 24.1985 16.8715 24.1985 17.2133C24.1985 17.5087 24.0697 17.7879 23.8477 17.983Z" fill="black"/>
<defs>
<filter id="filter0_d" x="99.1285" y="61.6883" width="13.1004" height="14.7259" filterUnits="userSpaceOnUse" color-interpolation-filters="sRGB">
<feFlood flood-opacity="0" result="BackgroundImageFix"/>
<feColorMatrix in="SourceAlpha" type="matrix" values="0 0 0 0 0 0 0 0 0 0 0 0 0 0 0 0 0 0 127 0" result="hardAlpha"/>
<feOffset dy="1.09317"/>
<feGaussianBlur stdDeviation="1.09317"/>
<feColorMatrix type="matrix" values="0 0 0 0 0 0 0 0 0 0 0 0 0 0 0 0 0 0 0.161 0"/>
<feBlend mode="normal" in2="BackgroundImageFix" result="effect1_dropShadow"/>
<feBlend mode="normal" in="SourceGraphic" in2="effect1_dropShadow" result="shape"/>
</filter>
</defs>
</svg>
