<svg width="693" height="690" viewBox="0 0 693 690" fill="none" xmlns="http://www.w3.org/2000/svg">
<path d="M89.5762 570.9V228.991H202.876V540.9" stroke="white" stroke-width="2" stroke-linecap="round" stroke-linejoin="round"/>
<path d="M464.589 540.9V298.926H544.316V580.9" stroke="white" stroke-width="2" stroke-linecap="round" stroke-linejoin="round"/>
<path d="M514.943 297.55V227.592H603.062V570.9" stroke="white" stroke-width="2" stroke-linecap="round" stroke-linejoin="round"/>
<path d="M435.87 540.9V293.332H419.086V175.839H399.504V146.466H386.915V121.29H364.536V33.17H300.936V121.289H278.556V146.466H265.976V175.839H246.394V293.331H229.61V540.9" stroke="white" stroke-width="2" stroke-linecap="round" stroke-linejoin="round"/>
<path d="M265.971 175.839H405.843" stroke="white" stroke-width="2" stroke-linecap="round" stroke-linejoin="round"/>
<path d="M278.559 146.466H386.26" stroke="white" stroke-width="2" stroke-linecap="round" stroke-linejoin="round"/>
<path d="M333.11 33.17V1" stroke="white" stroke-width="2" stroke-linecap="round" stroke-linejoin="round"/>
<path d="M333.11 121.29V51.354" stroke="white" stroke-width="2" stroke-linecap="round" stroke-linejoin="round"/>
<path d="M290.776 293.332V538.993" stroke="white" stroke-width="2" stroke-linecap="round" stroke-linejoin="round"/>
<path d="M318.75 223.396V558.993" stroke="white" stroke-width="2" stroke-linecap="round" stroke-linejoin="round"/>
<path d="M346.725 223.396V558.993" stroke="white" stroke-width="2" stroke-linecap="round" stroke-linejoin="round"/>
<path d="M374.699 293.332V538.993" stroke="white" stroke-width="2" stroke-linecap="round" stroke-linejoin="round"/>
<path d="M118.25 259.762V515.727" stroke="white" stroke-width="2" stroke-linecap="round" stroke-linejoin="round" stroke-dasharray="12 12"/>
<path d="M146.224 259.762V515.727" stroke="white" stroke-width="2" stroke-linecap="round" stroke-linejoin="round" stroke-dasharray="12 12"/>
<path d="M174.198 259.762V515.727" stroke="white" stroke-width="2" stroke-linecap="round" stroke-linejoin="round" stroke-dasharray="12 12"/>
<path d="M490.464 312.844V527.528" stroke="white" stroke-width="2" stroke-linecap="round" stroke-linejoin="round" stroke-dasharray="12 12"/>
<path d="M518.438 312.844V527.528" stroke="white" stroke-width="2" stroke-linecap="round" stroke-linejoin="round" stroke-dasharray="12 12"/>
<path d="M545.015 242.908V289.746" stroke="white" stroke-width="2" stroke-linecap="round" stroke-linejoin="round" stroke-dasharray="12 12"/>
<path d="M572.989 242.908V527.528" stroke="white" stroke-width="2" stroke-linecap="round" stroke-linejoin="round" stroke-dasharray="12 12"/>
<path d="M290.776 263.959V190.585" stroke="white" stroke-width="2" stroke-linecap="round" stroke-linejoin="round" stroke-dasharray="12 12"/>
<path d="M318.75 263.959V190.585" stroke="white" stroke-width="2" stroke-linecap="round" stroke-linejoin="round" stroke-dasharray="12 12"/>
<path d="M346.725 263.959V190.585" stroke="white" stroke-width="2" stroke-linecap="round" stroke-linejoin="round" stroke-dasharray="12 12"/>
<path d="M374.699 263.959V190.585" stroke="white" stroke-width="2" stroke-linecap="round" stroke-linejoin="round" stroke-dasharray="12 12"/>
<path d="M36.095 666.117C24.221 668.355 12.5227 670.72 1 673.211" stroke="white" stroke-width="2" stroke-linecap="round" stroke-linejoin="round"/>
<path d="M210.3 643.727C188.176 645.345 166.415 647.369 145.017 649.798" stroke="white" stroke-width="2" stroke-linecap="round" stroke-linejoin="round"/>
<path d="M379.824 639.58C366.091 639.262 352.257 639.102 338.324 639.1C333.843 639.1 329.372 639.117 324.909 639.15" stroke="white" stroke-width="2" stroke-linecap="round" stroke-linejoin="round"/>
<path d="M542.931 651.121C528.931 649.433 514.759 647.916 500.416 646.569" stroke="white" stroke-width="2" stroke-linecap="round" stroke-linejoin="round"/>
<path d="M691.959 676.849C685.235 675.304 678.446 673.802 671.592 672.343" stroke="white" stroke-width="2" stroke-linecap="round" stroke-linejoin="round"/>
<path d="M572.011 680.089L537.671 614.843H640.689L675.029 680.089H572.011Z" stroke="white" stroke-width="2" stroke-linecap="round" stroke-linejoin="round"/>
<path d="M666.444 688.674H563.425L529.086 623.429" stroke="white" stroke-width="2" stroke-linecap="round" stroke-linejoin="round"/>
<path d="M571.842 615.313L606.135 679.943" stroke="white" stroke-width="2" stroke-linecap="round" stroke-linejoin="round"/>
<path d="M606.135 615.313L640.428 679.943" stroke="white" stroke-width="2" stroke-linecap="round" stroke-linejoin="round"/>
<path d="M555.228 647.466H657.921" stroke="white" stroke-width="2" stroke-linecap="round" stroke-linejoin="round"/>
<path d="M400.545 653.71L366.206 588.464H469.224L503.563 653.71H400.545Z" stroke="white" stroke-width="2" stroke-linecap="round" stroke-linejoin="round"/>
<path d="M494.976 662.3H391.96L357.62 597.054" stroke="white" stroke-width="2" stroke-linecap="round" stroke-linejoin="round"/>
<path d="M400.376 588.934L434.669 653.564" stroke="white" stroke-width="2" stroke-linecap="round" stroke-linejoin="round"/>
<path d="M434.671 588.934L468.964 653.564" stroke="white" stroke-width="2" stroke-linecap="round" stroke-linejoin="round"/>
<path d="M383.762 621.086H486.455" stroke="white" stroke-width="2" stroke-linecap="round" stroke-linejoin="round"/>
<path d="M229.076 653.71L194.736 588.464H297.755L332.094 653.71H229.076Z" stroke="white" stroke-width="2" stroke-linecap="round" stroke-linejoin="round"/>
<path d="M323.512 662.3H220.494L186.154 597.054" stroke="white" stroke-width="2" stroke-linecap="round" stroke-linejoin="round"/>
<path d="M228.91 588.934L263.203 653.564" stroke="white" stroke-width="2" stroke-linecap="round" stroke-linejoin="round"/>
<path d="M263.203 588.934L297.496 653.564" stroke="white" stroke-width="2" stroke-linecap="round" stroke-linejoin="round"/>
<path d="M212.296 621.086H314.989" stroke="white" stroke-width="2" stroke-linecap="round" stroke-linejoin="round"/>
<path d="M57.6121 680.089L23.2732 614.843H126.291L160.631 680.089H57.6121Z" stroke="white" stroke-width="2" stroke-linecap="round" stroke-linejoin="round"/>
<path d="M152.045 688.674H49.0271L14.688 623.429" stroke="white" stroke-width="2" stroke-linecap="round" stroke-linejoin="round"/>
<path d="M57.4441 615.313L91.7371 679.943" stroke="white" stroke-width="2" stroke-linecap="round" stroke-linejoin="round"/>
<path d="M91.7371 615.313L126.03 679.943" stroke="white" stroke-width="2" stroke-linecap="round" stroke-linejoin="round"/>
<path d="M40.8301 647.466H143.523" stroke="white" stroke-width="2" stroke-linecap="round" stroke-linejoin="round"/>
</svg>
