<svg width="530" height="560" viewBox="0 0 530 560" fill="none" xmlns="http://www.w3.org/2000/svg">
<g filter="url(#filter0_d)">
<rect x="40" y="36" width="450" height="480" rx="10" fill="white"/>
<rect x="40.5" y="36.5" width="449" height="479" rx="9.5" stroke="white"/>
</g>
<path d="M94.56 197.2V207.4L86.208 197.2H82.992V214H86.832V203.8L95.208 214H98.4V197.2H94.56ZM110.511 214.288C115.791 214.288 119.703 210.616 119.703 205.6C119.703 200.584 115.791 196.912 110.511 196.912C105.207 196.912 101.319 200.608 101.319 205.6C101.319 210.592 105.207 214.288 110.511 214.288ZM110.511 210.976C107.511 210.976 105.255 208.792 105.255 205.6C105.255 202.408 107.511 200.224 110.511 200.224C113.511 200.224 115.767 202.408 115.767 205.6C115.767 208.792 113.511 210.976 110.511 210.976ZM125.87 214H129.758V200.368H135.134V197.2H120.494V200.368H125.87V214ZM148.746 197.2V203.824H141.114V197.2H137.226V214H141.114V207.112H148.746V214H152.634V197.2H148.746ZM156.609 214H160.497V197.2H156.609V214ZM176.052 197.2V207.4L167.7 197.2H164.484V214H168.324V203.8L176.7 214H179.892V197.2H176.052ZM195.219 210.256C194.235 210.784 193.251 210.976 192.195 210.976C188.979 210.976 186.747 208.744 186.747 205.6C186.747 202.408 188.979 200.224 192.243 200.224C193.947 200.224 195.363 200.824 196.587 202.12L199.083 199.816C197.451 197.92 195.003 196.912 192.051 196.912C186.699 196.912 182.811 200.536 182.811 205.6C182.811 210.664 186.699 214.288 191.979 214.288C194.379 214.288 196.923 213.544 198.771 212.152V205.336H195.219V210.256ZM217.22 214.288C220.148 214.288 222.572 213.232 224.156 211.288L221.66 208.984C220.532 210.304 219.116 210.976 217.436 210.976C214.292 210.976 212.06 208.768 212.06 205.6C212.06 202.432 214.292 200.224 217.436 200.224C219.116 200.224 220.532 200.896 221.66 202.192L224.156 199.888C222.572 197.968 220.148 196.912 217.244 196.912C212.012 196.912 208.124 200.536 208.124 205.6C208.124 210.664 212.012 214.288 217.22 214.288ZM238.301 197.2V203.824H230.669V197.2H226.781V214H230.669V207.112H238.301V214H242.189V197.2H238.301ZM258.716 214H262.796L255.284 197.2H251.444L243.956 214H247.94L249.428 210.4H257.228L258.716 214ZM250.676 207.448L253.34 201.016L256.004 207.448H250.676ZM276.107 197.2V207.4L267.755 197.2H264.539V214H268.379V203.8L276.755 214H279.947V197.2H276.107ZM295.274 210.256C294.29 210.784 293.306 210.976 292.25 210.976C289.034 210.976 286.802 208.744 286.802 205.6C286.802 202.408 289.034 200.224 292.298 200.224C294.002 200.224 295.418 200.824 296.642 202.12L299.138 199.816C297.506 197.92 295.058 196.912 292.106 196.912C286.754 196.912 282.866 200.536 282.866 205.6C282.866 210.664 286.754 214.288 292.034 214.288C294.434 214.288 296.978 213.544 298.826 212.152V205.336H295.274V210.256ZM306.301 210.88V206.992H314.101V203.968H306.301V200.32H315.133V197.2H302.437V214H315.445V210.88H306.301ZM324.059 214.288C328.859 214.288 331.187 211.888 331.187 209.08C331.187 202.912 321.419 205.048 321.419 201.952C321.419 200.896 322.307 200.032 324.611 200.032C326.099 200.032 327.707 200.464 329.267 201.352L330.467 198.4C328.907 197.416 326.747 196.912 324.635 196.912C319.859 196.912 317.555 199.288 317.555 202.144C317.555 208.384 327.323 206.224 327.323 209.368C327.323 210.4 326.387 211.168 324.083 211.168C322.067 211.168 319.955 210.448 318.539 209.416L317.219 212.344C318.707 213.496 321.395 214.288 324.059 214.288ZM95.688 224.32V221.2H82.992V238H86.88V231.88H94.656V228.76H86.88V224.32H95.688ZM106.292 238.288C111.572 238.288 115.484 234.616 115.484 229.6C115.484 224.584 111.572 220.912 106.292 220.912C100.988 220.912 97.1001 224.608 97.1001 229.6C97.1001 234.592 100.988 238.288 106.292 238.288ZM106.292 234.976C103.292 234.976 101.036 232.792 101.036 229.6C101.036 226.408 103.292 224.224 106.292 224.224C109.292 224.224 111.548 226.408 111.548 229.6C111.548 232.792 109.292 234.976 106.292 234.976ZM133.286 238L129.518 232.6C131.702 231.664 132.974 229.816 132.974 227.296C132.974 223.528 130.166 221.2 125.678 221.2H118.406V238H122.294V233.32H125.678H125.87L129.11 238H133.286ZM129.038 227.296C129.038 229.12 127.838 230.224 125.462 230.224H122.294V224.368H125.462C127.838 224.368 129.038 225.448 129.038 227.296ZM157.443 221.2H153.627L149.139 228.664L144.651 221.2H140.523L147.027 232V238H150.915V232.048L157.443 221.2ZM166.48 238.288C171.76 238.288 175.672 234.616 175.672 229.6C175.672 224.584 171.76 220.912 166.48 220.912C161.176 220.912 157.288 224.608 157.288 229.6C157.288 234.592 161.176 238.288 166.48 238.288ZM166.48 234.976C163.48 234.976 161.224 232.792 161.224 229.6C161.224 226.408 163.48 224.224 166.48 224.224C169.48 224.224 171.736 226.408 171.736 229.6C171.736 232.792 169.48 234.976 166.48 234.976ZM186.058 238.288C190.834 238.288 193.666 235.552 193.666 230.608V221.2H189.826V230.464C189.826 233.656 188.458 234.976 186.082 234.976C183.73 234.976 182.338 233.656 182.338 230.464V221.2H178.45V230.608C178.45 235.552 181.282 238.288 186.058 238.288ZM198.496 238.192C199.792 238.192 200.824 237.208 200.824 235.84C200.824 234.448 199.792 233.536 198.496 233.536C197.2 233.536 196.168 234.448 196.168 235.84C196.168 237.208 197.2 238.192 198.496 238.192Z" fill="#08122A"/>
<path d="M92.16 253.4H91.206L86.652 260.816L82.098 253.4H81.09L86.166 261.662V266H87.084V261.662L92.16 253.4ZM96.7577 266.072C99.4577 266.072 101.456 264.092 101.456 261.302C101.456 258.512 99.4577 256.532 96.7577 256.532C94.0577 256.532 92.0597 258.512 92.0597 261.302C92.0597 264.092 94.0577 266.072 96.7577 266.072ZM96.7577 265.262C94.5977 265.262 92.9777 263.66 92.9777 261.302C92.9777 258.944 94.5977 257.342 96.7577 257.342C98.9177 257.342 100.538 258.944 100.538 261.302C100.538 263.66 98.9177 265.262 96.7577 265.262ZM111.574 256.604V261.608C111.574 263.84 110.26 265.262 108.136 265.262C106.174 265.262 105.04 264.146 105.04 262.022V256.604H104.14V262.094C104.14 264.722 105.67 266.072 108.064 266.072C109.72 266.072 110.998 265.298 111.61 263.984V266H112.474V256.604H111.574ZM133.512 256.604L130.344 264.974L127.158 256.604H126.384L123.18 264.992L120.048 256.604H119.184L122.748 266H123.576L126.762 257.846L129.93 266H130.776L134.34 256.604H133.512ZM136.883 254.318C137.297 254.318 137.621 253.994 137.621 253.58C137.621 253.184 137.297 252.86 136.883 252.86C136.469 252.86 136.145 253.202 136.145 253.598C136.145 253.994 136.469 254.318 136.883 254.318ZM136.433 266H137.333V256.604H136.433V266ZM141.127 266H142.027V252.644H141.127V266ZM145.82 266H146.72V252.644H145.82V266ZM158.863 266.072C160.357 266.072 161.653 265.478 162.427 264.344L161.761 263.858C161.077 264.812 160.033 265.262 158.863 265.262C156.649 265.262 155.029 263.678 155.029 261.302C155.029 258.926 156.649 257.342 158.863 257.342C160.033 257.342 161.077 257.792 161.761 258.746L162.427 258.26C161.653 257.108 160.357 256.532 158.863 256.532C156.109 256.532 154.111 258.494 154.111 261.302C154.111 264.092 156.109 266.072 158.863 266.072ZM168.635 266.072C171.335 266.072 173.333 264.092 173.333 261.302C173.333 258.512 171.335 256.532 168.635 256.532C165.935 256.532 163.937 258.512 163.937 261.302C163.937 264.092 165.935 266.072 168.635 266.072ZM168.635 265.262C166.475 265.262 164.855 263.66 164.855 261.302C164.855 258.944 166.475 257.342 168.635 257.342C170.795 257.342 172.415 258.944 172.415 261.302C172.415 263.66 170.795 265.262 168.635 265.262ZM180.715 256.532C178.933 256.532 177.619 257.324 176.989 258.638V256.604H176.125V266H177.025V260.996C177.025 258.764 178.375 257.342 180.589 257.342C182.497 257.342 183.631 258.458 183.631 260.582V266H184.531V260.51C184.531 257.882 183.001 256.532 180.715 256.532ZM192.52 264.776C192.142 265.118 191.62 265.298 191.062 265.298C189.91 265.298 189.316 264.632 189.316 263.426V257.378H192.304V256.604H189.316V254.552H188.416V256.604H186.688V257.378H188.416V263.516C188.416 265.1 189.316 266.072 190.972 266.072C191.674 266.072 192.43 265.856 192.898 265.406L192.52 264.776ZM195.858 254.318C196.272 254.318 196.596 253.994 196.596 253.58C196.596 253.184 196.272 252.86 195.858 252.86C195.444 252.86 195.12 253.202 195.12 253.598C195.12 253.994 195.444 254.318 195.858 254.318ZM195.408 266H196.308V256.604H195.408V266ZM204.691 256.532C202.909 256.532 201.595 257.324 200.965 258.638V256.604H200.101V266H201.001V260.996C201.001 258.764 202.351 257.342 204.565 257.342C206.473 257.342 207.607 258.458 207.607 260.582V266H208.507V260.51C208.507 257.882 206.977 256.532 204.691 256.532ZM219.539 256.604V261.608C219.539 263.84 218.225 265.262 216.101 265.262C214.139 265.262 213.005 264.146 213.005 262.022V256.604H212.105V262.094C212.105 264.722 213.635 266.072 216.029 266.072C217.685 266.072 218.963 265.298 219.575 263.984V266H220.439V256.604H219.539ZM232.21 261.266C232.21 258.476 230.302 256.532 227.728 256.532C225.154 256.532 223.228 258.512 223.228 261.302C223.228 264.092 225.226 266.072 228.07 266.072C229.492 266.072 230.788 265.55 231.616 264.542L231.094 263.948C230.374 264.83 229.276 265.262 228.088 265.262C225.838 265.262 224.2 263.75 224.11 261.518H232.192C232.192 261.428 232.21 261.338 232.21 261.266ZM227.728 257.324C229.726 257.324 231.202 258.782 231.328 260.816H224.128C224.272 258.764 225.73 257.324 227.728 257.324ZM243.901 264.776C243.523 265.118 243.001 265.298 242.443 265.298C241.291 265.298 240.697 264.632 240.697 263.426V257.378H243.685V256.604H240.697V254.552H239.797V256.604H238.069V257.378H239.797V263.516C239.797 265.1 240.697 266.072 242.353 266.072C243.055 266.072 243.811 265.856 244.279 265.406L243.901 264.776ZM250.127 266.072C252.827 266.072 254.825 264.092 254.825 261.302C254.825 258.512 252.827 256.532 250.127 256.532C247.427 256.532 245.429 258.512 245.429 261.302C245.429 264.092 247.427 266.072 250.127 266.072ZM250.127 265.262C247.967 265.262 246.347 263.66 246.347 261.302C246.347 258.944 247.967 257.342 250.127 257.342C252.287 257.342 253.907 258.944 253.907 261.302C253.907 263.66 252.287 265.262 250.127 265.262ZM269.566 256.604V261.608C269.566 263.84 268.252 265.262 266.128 265.262C264.166 265.262 263.032 264.146 263.032 262.022V256.604H262.132V262.094C262.132 264.722 263.662 266.072 266.056 266.072C267.712 266.072 268.99 265.298 269.602 263.984V266H270.466V256.604H269.566ZM276.657 266.072C279.051 266.072 280.365 265.028 280.365 263.498C280.365 259.916 274.137 261.914 274.137 259.088C274.137 258.08 274.947 257.324 276.783 257.324C277.791 257.324 278.817 257.594 279.609 258.17L280.023 257.45C279.285 256.892 277.989 256.532 276.801 256.532C274.425 256.532 273.237 257.684 273.237 259.106C273.237 262.796 279.465 260.78 279.465 263.516C279.465 264.578 278.673 265.28 276.693 265.28C275.307 265.28 274.029 264.758 273.309 264.146L272.895 264.866C273.633 265.55 275.109 266.072 276.657 266.072ZM290.833 261.266C290.833 258.476 288.925 256.532 286.351 256.532C283.777 256.532 281.851 258.512 281.851 261.302C281.851 264.092 283.849 266.072 286.693 266.072C288.115 266.072 289.411 265.55 290.239 264.542L289.717 263.948C288.997 264.83 287.899 265.262 286.711 265.262C284.461 265.262 282.823 263.75 282.733 261.518H290.815C290.815 261.428 290.833 261.338 290.833 261.266ZM286.351 257.324C288.349 257.324 289.825 258.782 289.951 260.816H282.751C282.895 258.764 284.353 257.324 286.351 257.324ZM306.196 261.266C306.196 258.476 304.288 256.532 301.714 256.532C299.14 256.532 297.214 258.512 297.214 261.302C297.214 264.092 299.212 266.072 302.056 266.072C303.478 266.072 304.774 265.55 305.602 264.542L305.08 263.948C304.36 264.83 303.262 265.262 302.074 265.262C299.824 265.262 298.186 263.75 298.096 261.518H306.178C306.178 261.428 306.196 261.338 306.196 261.266ZM301.714 257.324C303.712 257.324 305.188 258.782 305.314 260.816H298.114C298.258 258.764 299.716 257.324 301.714 257.324ZM308.98 266H309.88V252.644H308.98V266ZM321.63 261.266C321.63 258.476 319.722 256.532 317.148 256.532C314.574 256.532 312.648 258.512 312.648 261.302C312.648 264.092 314.646 266.072 317.49 266.072C318.912 266.072 320.208 265.55 321.036 264.542L320.514 263.948C319.794 264.83 318.696 265.262 317.508 265.262C315.258 265.262 313.62 263.75 313.53 261.518H321.612C321.612 261.428 321.63 261.338 321.63 261.266ZM317.148 257.324C319.146 257.324 320.622 258.782 320.748 260.816H313.548C313.692 258.764 315.15 257.324 317.148 257.324ZM328.14 266.072C329.634 266.072 330.93 265.478 331.704 264.344L331.038 263.858C330.354 264.812 329.31 265.262 328.14 265.262C325.926 265.262 324.306 263.678 324.306 261.302C324.306 258.926 325.926 257.342 328.14 257.342C329.31 257.342 330.354 257.792 331.038 258.746L331.704 258.26C330.93 257.108 329.634 256.532 328.14 256.532C325.386 256.532 323.388 258.494 323.388 261.302C323.388 264.092 325.386 266.072 328.14 266.072ZM338.788 264.776C338.41 265.118 337.888 265.298 337.33 265.298C336.178 265.298 335.584 264.632 335.584 263.426V257.378H338.572V256.604H335.584V254.552H334.684V256.604H332.956V257.378H334.684V263.516C334.684 265.1 335.584 266.072 337.24 266.072C337.942 266.072 338.698 265.856 339.166 265.406L338.788 264.776ZM342.54 258.656V256.604H341.676V266H342.576V261.104C342.576 258.782 343.818 257.396 345.906 257.396C345.978 257.396 346.05 257.414 346.122 257.414V256.532C344.358 256.532 343.116 257.288 342.54 258.656ZM349.051 254.318C349.465 254.318 349.789 253.994 349.789 253.58C349.789 253.184 349.465 252.86 349.051 252.86C348.637 252.86 348.313 253.202 348.313 253.598C348.313 253.994 348.637 254.318 349.051 254.318ZM348.601 266H349.501V256.604H348.601V266ZM357.021 266.072C358.515 266.072 359.811 265.478 360.585 264.344L359.919 263.858C359.235 264.812 358.191 265.262 357.021 265.262C354.807 265.262 353.187 263.678 353.187 261.302C353.187 258.926 354.807 257.342 357.021 257.342C358.191 257.342 359.235 257.792 359.919 258.746L360.585 258.26C359.811 257.108 358.515 256.532 357.021 256.532C354.267 256.532 352.269 258.494 352.269 261.302C352.269 264.092 354.267 266.072 357.021 266.072ZM363.729 254.318C364.143 254.318 364.467 253.994 364.467 253.58C364.467 253.184 364.143 252.86 363.729 252.86C363.315 252.86 362.991 253.202 362.991 253.598C362.991 253.994 363.315 254.318 363.729 254.318ZM363.279 266H364.179V256.604H363.279V266ZM372.256 264.776C371.878 265.118 371.356 265.298 370.798 265.298C369.646 265.298 369.052 264.632 369.052 263.426V257.378H372.04V256.604H369.052V254.552H368.152V256.604H366.424V257.378H368.152V263.516C368.152 265.1 369.052 266.072 370.708 266.072C371.41 266.072 372.166 265.856 372.634 265.406L372.256 264.776ZM381.593 256.604L377.831 265.01L374.069 256.604H373.115L377.345 265.964L376.841 267.098C376.265 268.376 375.635 268.772 374.771 268.772C374.069 268.772 373.511 268.538 373.025 268.034L372.575 268.718C373.115 269.276 373.907 269.564 374.753 269.564C375.995 269.564 376.931 269.006 377.687 267.278L382.511 256.604H381.593ZM392.269 256.532C390.811 256.532 389.443 257.036 388.507 257.864L388.957 258.512C389.731 257.81 390.901 257.324 392.197 257.324C394.033 257.324 394.987 258.26 394.987 260.006V260.762H391.765C389.155 260.762 388.255 261.968 388.255 263.39C388.255 264.992 389.533 266.072 391.639 266.072C393.277 266.072 394.429 265.406 395.023 264.326V266H395.887V260.042C395.887 257.72 394.591 256.532 392.269 256.532ZM391.765 265.334C390.109 265.334 389.155 264.578 389.155 263.354C389.155 262.274 389.839 261.464 391.783 261.464H394.987V263.228C394.447 264.578 393.349 265.334 391.765 265.334ZM404.186 256.532C402.404 256.532 401.09 257.324 400.46 258.638V256.604H399.596V266H400.496V260.996C400.496 258.764 401.846 257.342 404.06 257.342C405.968 257.342 407.102 258.458 407.102 260.582V266H408.002V260.51C408.002 257.882 406.472 256.532 404.186 256.532ZM419.176 252.644V258.782C418.42 257.36 417.016 256.532 415.342 256.532C412.696 256.532 410.698 258.476 410.698 261.302C410.698 264.11 412.696 266.072 415.342 266.072C417.034 266.072 418.456 265.244 419.194 263.786V266H420.076V252.644H419.176ZM415.396 265.262C413.236 265.262 411.616 263.66 411.616 261.302C411.616 258.944 413.236 257.342 415.396 257.342C417.556 257.342 419.176 258.944 419.176 261.302C419.176 263.66 417.556 265.262 415.396 265.262ZM83.772 280.656V278.604H82.908V288H83.808V283.104C83.808 280.782 85.05 279.396 87.138 279.396C87.21 279.396 87.282 279.414 87.354 279.414V278.532C85.59 278.532 84.348 279.288 83.772 280.656ZM97.7019 283.266C97.7019 280.476 95.7939 278.532 93.2199 278.532C90.6459 278.532 88.7199 280.512 88.7199 283.302C88.7199 286.092 90.7179 288.072 93.5619 288.072C94.9839 288.072 96.2799 287.55 97.1079 286.542L96.5859 285.948C95.8659 286.83 94.7679 287.262 93.5799 287.262C91.3299 287.262 89.6919 285.75 89.6019 283.518H97.6839C97.6839 283.428 97.7019 283.338 97.7019 283.266ZM93.2199 279.324C95.2179 279.324 96.6939 280.782 96.8199 282.816H89.6199C89.7639 280.764 91.2219 279.324 93.2199 279.324ZM104.212 288.072C105.706 288.072 107.002 287.478 107.776 286.344L107.11 285.858C106.426 286.812 105.382 287.262 104.212 287.262C101.998 287.262 100.378 285.678 100.378 283.302C100.378 280.926 101.998 279.342 104.212 279.342C105.382 279.342 106.426 279.792 107.11 280.746L107.776 280.26C107.002 279.108 105.706 278.532 104.212 278.532C101.458 278.532 99.4601 280.494 99.4601 283.302C99.4601 286.092 101.458 288.072 104.212 288.072ZM118.268 283.266C118.268 280.476 116.36 278.532 113.786 278.532C111.212 278.532 109.286 280.512 109.286 283.302C109.286 286.092 111.284 288.072 114.128 288.072C115.55 288.072 116.846 287.55 117.674 286.542L117.152 285.948C116.432 286.83 115.334 287.262 114.146 287.262C111.896 287.262 110.258 285.75 110.168 283.518H118.25C118.25 283.428 118.268 283.338 118.268 283.266ZM113.786 279.324C115.784 279.324 117.26 280.782 117.386 282.816H110.186C110.33 280.764 111.788 279.324 113.786 279.324ZM121.503 276.318C121.917 276.318 122.241 275.994 122.241 275.58C122.241 275.184 121.917 274.86 121.503 274.86C121.089 274.86 120.765 275.202 120.765 275.598C120.765 275.994 121.089 276.318 121.503 276.318ZM121.053 288H121.953V278.604H121.053V288ZM132.37 278.604L128.59 287.01L124.846 278.604H123.892L128.122 288H129.04L133.288 278.604H132.37ZM142.948 283.266C142.948 280.476 141.04 278.532 138.466 278.532C135.892 278.532 133.966 280.512 133.966 283.302C133.966 286.092 135.964 288.072 138.808 288.072C140.23 288.072 141.526 287.55 142.354 286.542L141.832 285.948C141.112 286.83 140.014 287.262 138.826 287.262C136.576 287.262 134.938 285.75 134.848 283.518H142.93C142.93 283.428 142.948 283.338 142.948 283.266ZM138.466 279.324C140.464 279.324 141.94 280.782 142.066 282.816H134.866C135.01 280.764 136.468 279.324 138.466 279.324ZM156.979 278.604L153.217 287.01L149.455 278.604H148.501L152.731 287.964L152.227 289.098C151.651 290.376 151.021 290.772 150.157 290.772C149.455 290.772 148.897 290.538 148.411 290.034L147.961 290.718C148.501 291.276 149.293 291.564 150.139 291.564C151.381 291.564 152.317 291.006 153.073 289.278L157.897 278.604H156.979ZM163.273 288.072C165.973 288.072 167.971 286.092 167.971 283.302C167.971 280.512 165.973 278.532 163.273 278.532C160.573 278.532 158.575 280.512 158.575 283.302C158.575 286.092 160.573 288.072 163.273 288.072ZM163.273 287.262C161.113 287.262 159.493 285.66 159.493 283.302C159.493 280.944 161.113 279.342 163.273 279.342C165.433 279.342 167.053 280.944 167.053 283.302C167.053 285.66 165.433 287.262 163.273 287.262ZM178.089 278.604V283.608C178.089 285.84 176.775 287.262 174.651 287.262C172.689 287.262 171.555 286.146 171.555 284.022V278.604H170.655V284.094C170.655 286.722 172.185 288.072 174.579 288.072C176.235 288.072 177.513 287.298 178.125 285.984V288H178.989V278.604H178.089ZM183.668 280.656V278.604H182.804V288H183.704V283.104C183.704 280.782 184.946 279.396 187.034 279.396C187.106 279.396 187.178 279.414 187.25 279.414V278.532C185.486 278.532 184.244 279.288 183.668 280.656ZM195.376 280.656V278.604H194.512V288H195.412V283.104C195.412 280.782 196.654 279.396 198.742 279.396C198.814 279.396 198.886 279.414 198.958 279.414V278.532C197.194 278.532 195.952 279.288 195.376 280.656ZM209.305 283.266C209.305 280.476 207.397 278.532 204.823 278.532C202.249 278.532 200.323 280.512 200.323 283.302C200.323 286.092 202.321 288.072 205.165 288.072C206.587 288.072 207.883 287.55 208.711 286.542L208.189 285.948C207.469 286.83 206.371 287.262 205.183 287.262C202.933 287.262 201.295 285.75 201.205 283.518H209.287C209.287 283.428 209.305 283.338 209.305 283.266ZM204.823 279.324C206.821 279.324 208.297 280.782 208.423 282.816H201.223C201.367 280.764 202.825 279.324 204.823 279.324ZM219.686 278.604V280.728C218.93 279.324 217.472 278.532 215.744 278.532C213.08 278.532 211.064 280.404 211.064 283.086C211.064 285.768 213.08 287.658 215.744 287.658C217.436 287.658 218.876 286.884 219.65 285.516V287.1C219.65 289.602 218.48 290.754 215.978 290.754C214.466 290.754 213.116 290.25 212.18 289.386L211.694 290.07C212.648 291.024 214.286 291.564 215.996 291.564C219.02 291.564 220.55 290.142 220.55 286.992V278.604H219.686ZM215.816 286.848C213.602 286.848 211.982 285.3 211.982 283.086C211.982 280.872 213.602 279.342 215.816 279.342C218.048 279.342 219.668 280.872 219.668 283.086C219.668 285.3 218.048 286.848 215.816 286.848ZM231.685 278.604V283.608C231.685 285.84 230.371 287.262 228.247 287.262C226.285 287.262 225.151 286.146 225.151 284.022V278.604H224.251V284.094C224.251 286.722 225.781 288.072 228.175 288.072C229.831 288.072 231.109 287.298 231.721 285.984V288H232.585V278.604H231.685ZM236.4 288H237.3V274.644H236.4V288ZM244.262 278.532C242.804 278.532 241.436 279.036 240.5 279.864L240.95 280.512C241.724 279.81 242.894 279.324 244.19 279.324C246.026 279.324 246.98 280.26 246.98 282.006V282.762H243.758C241.148 282.762 240.248 283.968 240.248 285.39C240.248 286.992 241.526 288.072 243.632 288.072C245.27 288.072 246.422 287.406 247.016 286.326V288H247.88V282.042C247.88 279.72 246.584 278.532 244.262 278.532ZM243.758 287.334C242.102 287.334 241.148 286.578 241.148 285.354C241.148 284.274 241.832 283.464 243.776 283.464H246.98V285.228C246.44 286.578 245.342 287.334 243.758 287.334ZM252.452 280.656V278.604H251.588V288H252.488V283.104C252.488 280.782 253.73 279.396 255.818 279.396C255.89 279.396 255.962 279.414 256.034 279.414V278.532C254.27 278.532 253.028 279.288 252.452 280.656ZM274.995 278.532C273.177 278.532 271.809 279.432 271.197 280.8C270.693 279.306 269.451 278.532 267.759 278.532C266.049 278.532 264.771 279.306 264.159 280.62V278.604H263.295V288H264.195V282.996C264.195 280.764 265.509 279.342 267.633 279.342C269.469 279.342 270.567 280.458 270.567 282.582V288H271.467V282.996C271.467 280.764 272.781 279.342 274.905 279.342C276.741 279.342 277.839 280.458 277.839 282.582V288H278.739V282.51C278.739 279.882 277.263 278.532 274.995 278.532ZM286.144 288.072C288.844 288.072 290.842 286.092 290.842 283.302C290.842 280.512 288.844 278.532 286.144 278.532C283.444 278.532 281.446 280.512 281.446 283.302C281.446 286.092 283.444 288.072 286.144 288.072ZM286.144 287.262C283.984 287.262 282.364 285.66 282.364 283.302C282.364 280.944 283.984 279.342 286.144 279.342C288.304 279.342 289.924 280.944 289.924 283.302C289.924 285.66 288.304 287.262 286.144 287.262ZM298.225 278.532C296.443 278.532 295.129 279.324 294.499 280.638V278.604H293.635V288H294.535V282.996C294.535 280.764 295.885 279.342 298.099 279.342C300.007 279.342 301.141 280.458 301.141 282.582V288H302.041V282.51C302.041 279.882 300.511 278.532 298.225 278.532ZM310.03 286.776C309.652 287.118 309.13 287.298 308.572 287.298C307.42 287.298 306.826 286.632 306.826 285.426V279.378H309.814V278.604H306.826V276.552H305.926V278.604H304.198V279.378H305.926V285.516C305.926 287.1 306.826 288.072 308.482 288.072C309.184 288.072 309.94 287.856 310.408 287.406L310.03 286.776ZM317.508 278.532C315.762 278.532 314.466 279.288 313.818 280.566V274.644H312.918V288H313.818V282.996C313.818 280.764 315.168 279.342 317.382 279.342C319.29 279.342 320.424 280.458 320.424 282.582V288H321.324V282.51C321.324 279.882 319.794 278.532 317.508 278.532ZM325.029 288H325.929V274.644H325.029V288ZM336.346 278.604L332.584 287.01L328.822 278.604H327.868L332.098 287.964L331.594 289.098C331.018 290.376 330.388 290.772 329.524 290.772C328.822 290.772 328.264 290.538 327.778 290.034L327.328 290.718C327.868 291.276 328.66 291.564 329.506 291.564C330.748 291.564 331.684 291.006 332.44 289.278L337.264 278.604H336.346ZM351.181 278.604V283.608C351.181 285.84 349.867 287.262 347.743 287.262C345.781 287.262 344.647 286.146 344.647 284.022V278.604H343.747V284.094C343.747 286.722 345.277 288.072 347.671 288.072C349.327 288.072 350.605 287.298 351.217 285.984V288H352.081V278.604H351.181ZM360.18 286.776C359.802 287.118 359.28 287.298 358.722 287.298C357.57 287.298 356.976 286.632 356.976 285.426V279.378H359.964V278.604H356.976V276.552H356.076V278.604H354.348V279.378H356.076V285.516C356.076 287.1 356.976 288.072 358.632 288.072C359.334 288.072 360.09 287.856 360.558 287.406L360.18 286.776ZM363.518 276.318C363.932 276.318 364.256 275.994 364.256 275.58C364.256 275.184 363.932 274.86 363.518 274.86C363.104 274.86 362.78 275.202 362.78 275.598C362.78 275.994 363.104 276.318 363.518 276.318ZM363.068 288H363.968V278.604H363.068V288ZM367.762 288H368.662V274.644H367.762V288ZM372.905 276.318C373.319 276.318 373.643 275.994 373.643 275.58C373.643 275.184 373.319 274.86 372.905 274.86C372.491 274.86 372.167 275.202 372.167 275.598C372.167 275.994 372.491 276.318 372.905 276.318ZM372.455 288H373.355V278.604H372.455V288ZM381.432 286.776C381.054 287.118 380.532 287.298 379.974 287.298C378.822 287.298 378.228 286.632 378.228 285.426V279.378H381.216V278.604H378.228V276.552H377.328V278.604H375.6V279.378H377.328V285.516C377.328 287.1 378.228 288.072 379.884 288.072C380.586 288.072 381.342 287.856 381.81 287.406L381.432 286.776ZM390.768 278.604L387.006 287.01L383.244 278.604H382.29L386.52 287.964L386.016 289.098C385.44 290.376 384.81 290.772 383.946 290.772C383.244 290.772 382.686 290.538 382.2 290.034L381.75 290.718C382.29 291.276 383.082 291.564 383.928 291.564C385.17 291.564 386.106 291.006 386.862 289.278L391.686 278.604H390.768ZM402.993 278.532C401.337 278.532 399.933 279.342 399.177 280.746V274.644H398.277V288H399.141V285.786C399.879 287.226 401.301 288.072 402.993 288.072C405.639 288.072 407.637 286.11 407.637 283.302C407.637 280.476 405.639 278.532 402.993 278.532ZM402.939 287.262C400.779 287.262 399.159 285.66 399.159 283.302C399.159 280.944 400.779 279.342 402.939 279.342C405.099 279.342 406.737 280.944 406.737 283.302C406.737 285.66 405.099 287.262 402.939 287.262ZM410.874 276.318C411.288 276.318 411.612 275.994 411.612 275.58C411.612 275.184 411.288 274.86 410.874 274.86C410.46 274.86 410.136 275.202 410.136 275.598C410.136 275.994 410.46 276.318 410.874 276.318ZM410.424 288H411.324V278.604H410.424V288ZM415.117 288H416.017V274.644H415.117V288ZM419.81 288H420.71V274.644H419.81V288ZM424.396 288.072C424.81 288.072 425.152 287.73 425.152 287.298C425.152 286.866 424.81 286.542 424.396 286.542C423.982 286.542 423.64 286.866 423.64 287.298C423.64 287.73 423.982 288.072 424.396 288.072ZM85.608 310H86.526V298.228H91.062V297.4H81.072V298.228H85.608V310ZM97.6406 300.532C95.8946 300.532 94.5986 301.288 93.9506 302.566V296.644H93.0506V310H93.9506V304.996C93.9506 302.764 95.3006 301.342 97.5146 301.342C99.4226 301.342 100.557 302.458 100.557 304.582V310H101.457V304.51C101.457 301.882 99.9266 300.532 97.6406 300.532ZM113.135 305.266C113.135 302.476 111.227 300.532 108.653 300.532C106.079 300.532 104.153 302.512 104.153 305.302C104.153 308.092 106.151 310.072 108.995 310.072C110.417 310.072 111.713 309.55 112.541 308.542L112.019 307.948C111.299 308.83 110.201 309.262 109.013 309.262C106.763 309.262 105.125 307.75 105.035 305.518H113.117C113.117 305.428 113.135 305.338 113.135 305.266ZM108.653 301.324C110.651 301.324 112.127 302.782 112.253 304.816H105.053C105.197 302.764 106.655 301.324 108.653 301.324ZM124.215 310.072C126.915 310.072 128.913 308.092 128.913 305.302C128.913 302.512 126.915 300.532 124.215 300.532C121.515 300.532 119.517 302.512 119.517 305.302C119.517 308.092 121.515 310.072 124.215 310.072ZM124.215 309.262C122.055 309.262 120.435 307.66 120.435 305.302C120.435 302.944 122.055 301.342 124.215 301.342C126.375 301.342 127.995 302.944 127.995 305.302C127.995 307.66 126.375 309.262 124.215 309.262ZM136.295 300.532C134.513 300.532 133.199 301.324 132.569 302.638V300.604H131.705V310H132.605V304.996C132.605 302.764 133.955 301.342 136.169 301.342C138.077 301.342 139.211 302.458 139.211 304.582V310H140.111V304.51C140.111 301.882 138.581 300.532 136.295 300.532ZM143.816 310H144.716V296.644H143.816V310ZM155.134 300.604L151.372 309.01L147.61 300.604H146.656L150.886 309.964L150.382 311.098C149.806 312.376 149.176 312.772 148.312 312.772C147.61 312.772 147.052 312.538 146.566 312.034L146.116 312.718C146.656 313.276 147.448 313.564 148.294 313.564C149.536 313.564 150.472 313.006 151.228 311.278L156.052 300.604H155.134ZM170.094 296.644V302.782C169.338 301.36 167.934 300.532 166.26 300.532C163.614 300.532 161.616 302.476 161.616 305.302C161.616 308.11 163.614 310.072 166.26 310.072C167.952 310.072 169.374 309.244 170.112 307.786V310H170.994V296.644H170.094ZM166.314 309.262C164.154 309.262 162.534 307.66 162.534 305.302C162.534 302.944 164.154 301.342 166.314 301.342C168.474 301.342 170.094 302.944 170.094 305.302C170.094 307.66 168.474 309.262 166.314 309.262ZM175.239 298.318C175.653 298.318 175.977 297.994 175.977 297.58C175.977 297.184 175.653 296.86 175.239 296.86C174.825 296.86 174.501 297.202 174.501 297.598C174.501 297.994 174.825 298.318 175.239 298.318ZM174.789 310H175.689V300.604H174.789V310ZM182.308 297.346C182.866 297.346 183.388 297.526 183.766 297.868L184.126 297.184C183.676 296.77 182.956 296.572 182.272 296.572C180.598 296.572 179.662 297.598 179.662 299.164V300.604H177.934V301.378H179.662V310H180.562V301.378H183.55V300.604H180.544V299.236C180.544 297.994 181.138 297.346 182.308 297.346ZM188.214 297.346C188.772 297.346 189.294 297.526 189.672 297.868L190.032 297.184C189.582 296.77 188.862 296.572 188.178 296.572C186.504 296.572 185.568 297.598 185.568 299.164V300.604H183.84V301.378H185.568V310H186.468V301.378H189.456V300.604H186.45V299.236C186.45 297.994 187.044 297.346 188.214 297.346ZM199.093 305.266C199.093 302.476 197.185 300.532 194.611 300.532C192.037 300.532 190.111 302.512 190.111 305.302C190.111 308.092 192.109 310.072 194.953 310.072C196.375 310.072 197.671 309.55 198.499 308.542L197.977 307.948C197.257 308.83 196.159 309.262 194.971 309.262C192.721 309.262 191.083 307.75 190.993 305.518H199.075C199.075 305.428 199.093 305.338 199.093 305.266ZM194.611 301.324C196.609 301.324 198.085 302.782 198.211 304.816H191.011C191.155 302.764 192.613 301.324 194.611 301.324ZM202.741 302.656V300.604H201.877V310H202.777V305.104C202.777 302.782 204.019 301.396 206.107 301.396C206.179 301.396 206.251 301.414 206.323 301.414V300.532C204.559 300.532 203.317 301.288 202.741 302.656ZM216.671 305.266C216.671 302.476 214.763 300.532 212.189 300.532C209.615 300.532 207.689 302.512 207.689 305.302C207.689 308.092 209.687 310.072 212.531 310.072C213.953 310.072 215.249 309.55 216.077 308.542L215.555 307.948C214.835 308.83 213.737 309.262 212.549 309.262C210.299 309.262 208.661 307.75 208.571 305.518H216.653C216.653 305.428 216.671 305.338 216.671 305.266ZM212.189 301.324C214.187 301.324 215.663 302.782 215.789 304.816H208.589C208.733 302.764 210.191 301.324 212.189 301.324ZM224.045 300.532C222.263 300.532 220.949 301.324 220.319 302.638V300.604H219.455V310H220.355V304.996C220.355 302.764 221.705 301.342 223.919 301.342C225.827 301.342 226.961 302.458 226.961 304.582V310H227.861V304.51C227.861 301.882 226.331 300.532 224.045 300.532ZM235.31 310.072C236.804 310.072 238.1 309.478 238.874 308.344L238.208 307.858C237.524 308.812 236.48 309.262 235.31 309.262C233.096 309.262 231.476 307.678 231.476 305.302C231.476 302.926 233.096 301.342 235.31 301.342C236.48 301.342 237.524 301.792 238.208 302.746L238.874 302.26C238.1 301.108 236.804 300.532 235.31 300.532C232.556 300.532 230.558 302.494 230.558 305.302C230.558 308.092 232.556 310.072 235.31 310.072ZM249.366 305.266C249.366 302.476 247.458 300.532 244.884 300.532C242.31 300.532 240.384 302.512 240.384 305.302C240.384 308.092 242.382 310.072 245.226 310.072C246.648 310.072 247.944 309.55 248.772 308.542L248.25 307.948C247.53 308.83 246.432 309.262 245.244 309.262C242.994 309.262 241.356 307.75 241.266 305.518H249.348C249.348 305.428 249.366 305.338 249.366 305.266ZM244.884 301.324C246.882 301.324 248.358 302.782 248.484 304.816H241.284C241.428 302.764 242.886 301.324 244.884 301.324ZM263.397 300.604L259.635 309.01L255.873 300.604H254.919L259.149 309.964L258.645 311.098C258.069 312.376 257.439 312.772 256.575 312.772C255.873 312.772 255.315 312.538 254.829 312.034L254.379 312.718C254.919 313.276 255.711 313.564 256.557 313.564C257.799 313.564 258.735 313.006 259.491 311.278L264.315 300.604H263.397ZM269.691 310.072C272.391 310.072 274.389 308.092 274.389 305.302C274.389 302.512 272.391 300.532 269.691 300.532C266.991 300.532 264.993 302.512 264.993 305.302C264.993 308.092 266.991 310.072 269.691 310.072ZM269.691 309.262C267.531 309.262 265.911 307.66 265.911 305.302C265.911 302.944 267.531 301.342 269.691 301.342C271.851 301.342 273.471 302.944 273.471 305.302C273.471 307.66 271.851 309.262 269.691 309.262ZM284.507 300.604V305.608C284.507 307.84 283.193 309.262 281.069 309.262C279.107 309.262 277.973 308.146 277.973 306.022V300.604H277.073V306.094C277.073 308.722 278.603 310.072 280.997 310.072C282.653 310.072 283.931 309.298 284.543 307.984V310H285.407V300.604H284.507ZM289.114 296.572C288.682 296.572 288.358 296.896 288.358 297.328C288.358 297.706 288.592 297.976 288.952 298.066L288.358 300.604H289.006L289.708 298.156C289.816 297.778 289.87 297.598 289.87 297.328C289.87 296.932 289.564 296.572 289.114 296.572ZM292.826 310H293.726V296.644H292.826V310ZM297.519 310H298.419V296.644H297.519V310ZM311.426 300.532C309.644 300.532 308.33 301.324 307.7 302.638V300.604H306.836V310H307.736V304.996C307.736 302.764 309.086 301.342 311.3 301.342C313.208 301.342 314.342 302.458 314.342 304.582V310H315.242V304.51C315.242 301.882 313.712 300.532 311.426 300.532ZM322.637 310.072C325.337 310.072 327.335 308.092 327.335 305.302C327.335 302.512 325.337 300.532 322.637 300.532C319.937 300.532 317.939 302.512 317.939 305.302C317.939 308.092 319.937 310.072 322.637 310.072ZM322.637 309.262C320.477 309.262 318.857 307.66 318.857 305.302C318.857 302.944 320.477 301.342 322.637 301.342C324.797 301.342 326.417 302.944 326.417 305.302C326.417 307.66 324.797 309.262 322.637 309.262ZM334.411 308.776C334.033 309.118 333.511 309.298 332.953 309.298C331.801 309.298 331.207 308.632 331.207 307.426V301.378H334.195V300.604H331.207V298.552H330.307V300.604H328.579V301.378H330.307V307.516C330.307 309.1 331.207 310.072 332.863 310.072C333.565 310.072 334.321 309.856 334.789 309.406L334.411 308.776ZM337.749 298.318C338.163 298.318 338.487 297.994 338.487 297.58C338.487 297.184 338.163 296.86 337.749 296.86C337.335 296.86 337.011 297.202 337.011 297.598C337.011 297.994 337.335 298.318 337.749 298.318ZM337.299 310H338.199V300.604H337.299V310ZM345.718 310.072C347.212 310.072 348.508 309.478 349.282 308.344L348.616 307.858C347.932 308.812 346.888 309.262 345.718 309.262C343.504 309.262 341.884 307.678 341.884 305.302C341.884 302.926 343.504 301.342 345.718 301.342C346.888 301.342 347.932 301.792 348.616 302.746L349.282 302.26C348.508 301.108 347.212 300.532 345.718 300.532C342.964 300.532 340.966 302.494 340.966 305.302C340.966 308.092 342.964 310.072 345.718 310.072ZM359.774 305.266C359.774 302.476 357.866 300.532 355.292 300.532C352.718 300.532 350.792 302.512 350.792 305.302C350.792 308.092 352.79 310.072 355.634 310.072C357.056 310.072 358.352 309.55 359.18 308.542L358.658 307.948C357.938 308.83 356.84 309.262 355.652 309.262C353.402 309.262 351.764 307.75 351.674 305.518H359.756C359.756 305.428 359.774 305.338 359.774 305.266ZM355.292 301.324C357.29 301.324 358.766 302.782 358.892 304.816H351.692C351.836 302.764 353.294 301.324 355.292 301.324ZM367.631 298.318C368.045 298.318 368.369 297.994 368.369 297.58C368.369 297.184 368.045 296.86 367.631 296.86C367.217 296.86 366.893 297.202 366.893 297.598C366.893 297.994 367.217 298.318 367.631 298.318ZM367.181 310H368.081V300.604H367.181V310ZM374.251 310.072C376.645 310.072 377.959 309.028 377.959 307.498C377.959 303.916 371.731 305.914 371.731 303.088C371.731 302.08 372.541 301.324 374.377 301.324C375.385 301.324 376.411 301.594 377.203 302.17L377.617 301.45C376.879 300.892 375.583 300.532 374.395 300.532C372.019 300.532 370.831 301.684 370.831 303.106C370.831 306.796 377.059 304.78 377.059 307.516C377.059 308.578 376.267 309.28 374.287 309.28C372.901 309.28 371.623 308.758 370.903 308.146L370.489 308.866C371.227 309.55 372.703 310.072 374.251 310.072ZM389.378 308.776C389 309.118 388.478 309.298 387.92 309.298C386.768 309.298 386.174 308.632 386.174 307.426V301.378H389.162V300.604H386.174V298.552H385.274V300.604H383.546V301.378H385.274V307.516C385.274 309.1 386.174 310.072 387.83 310.072C388.532 310.072 389.288 309.856 389.756 309.406L389.378 308.776ZM396.855 300.532C395.109 300.532 393.813 301.288 393.165 302.566V296.644H392.265V310H393.165V304.996C393.165 302.764 394.515 301.342 396.729 301.342C398.637 301.342 399.771 302.458 399.771 304.582V310H400.671V304.51C400.671 301.882 399.141 300.532 396.855 300.532ZM407.545 300.532C406.087 300.532 404.719 301.036 403.783 301.864L404.233 302.512C405.007 301.81 406.177 301.324 407.473 301.324C409.309 301.324 410.263 302.26 410.263 304.006V304.762H407.041C404.431 304.762 403.531 305.968 403.531 307.39C403.531 308.992 404.809 310.072 406.915 310.072C408.553 310.072 409.705 309.406 410.299 308.326V310H411.163V304.042C411.163 301.72 409.867 300.532 407.545 300.532ZM407.041 309.334C405.385 309.334 404.431 308.578 404.431 307.354C404.431 306.274 405.115 305.464 407.059 305.464H410.263V307.228C409.723 308.578 408.625 309.334 407.041 309.334ZM419.155 308.776C418.777 309.118 418.255 309.298 417.697 309.298C416.545 309.298 415.951 308.632 415.951 307.426V301.378H418.939V300.604H415.951V298.552H415.051V300.604H413.323V301.378H415.051V307.516C415.051 309.1 415.951 310.072 417.607 310.072C418.309 310.072 419.065 309.856 419.533 309.406L419.155 308.776ZM86.508 332.09C89.622 332.09 91.044 330.542 91.044 328.76C91.044 324.188 83.178 326.42 83.178 322.64C83.178 321.254 84.276 320.12 86.724 320.12C87.858 320.12 89.136 320.462 90.18 321.182L90.522 320.444C89.55 319.742 88.11 319.31 86.724 319.31C83.628 319.31 82.26 320.876 82.26 322.658C82.26 327.302 90.126 325.034 90.126 328.814C90.126 330.182 89.01 331.28 86.49 331.28C84.798 331.28 83.196 330.596 82.332 329.696L81.918 330.38C82.836 331.388 84.636 332.09 86.508 332.09ZM97.5488 332.072C100.249 332.072 102.247 330.092 102.247 327.302C102.247 324.512 100.249 322.532 97.5488 322.532C94.8488 322.532 92.8508 324.512 92.8508 327.302C92.8508 330.092 94.8488 332.072 97.5488 332.072ZM97.5488 331.262C95.3888 331.262 93.7688 329.66 93.7688 327.302C93.7688 324.944 95.3888 323.342 97.5488 323.342C99.7088 323.342 101.329 324.944 101.329 327.302C101.329 329.66 99.7088 331.262 97.5488 331.262ZM112.365 322.604V327.608C112.365 329.84 111.051 331.262 108.927 331.262C106.965 331.262 105.831 330.146 105.831 328.022V322.604H104.931V328.094C104.931 330.722 106.461 332.072 108.855 332.072C110.511 332.072 111.789 331.298 112.401 329.984V332H113.265V322.604H112.365ZM117.944 324.656V322.604H117.08V332H117.98V327.104C117.98 324.782 119.222 323.396 121.31 323.396C121.382 323.396 121.454 323.414 121.526 323.414V322.532C119.762 322.532 118.52 323.288 117.944 324.656ZM127.644 332.072C129.138 332.072 130.434 331.478 131.208 330.344L130.542 329.858C129.858 330.812 128.814 331.262 127.644 331.262C125.43 331.262 123.81 329.678 123.81 327.302C123.81 324.926 125.43 323.342 127.644 323.342C128.814 323.342 129.858 323.792 130.542 324.746L131.208 324.26C130.434 323.108 129.138 322.532 127.644 322.532C124.89 322.532 122.892 324.494 122.892 327.302C122.892 330.092 124.89 332.072 127.644 332.072ZM141.7 327.266C141.7 324.476 139.792 322.532 137.218 322.532C134.644 322.532 132.718 324.512 132.718 327.302C132.718 330.092 134.716 332.072 137.56 332.072C138.982 332.072 140.278 331.55 141.106 330.542L140.584 329.948C139.864 330.83 138.766 331.262 137.578 331.262C135.328 331.262 133.69 329.75 133.6 327.518H141.682C141.682 327.428 141.7 327.338 141.7 327.266ZM137.218 323.324C139.216 323.324 140.692 324.782 140.818 326.816H133.618C133.762 324.764 135.22 323.324 137.218 323.324ZM153.913 319.4H149.395V332H150.313V327.878H153.913C157.081 327.878 158.989 326.294 158.989 323.648C158.989 320.984 157.081 319.4 153.913 319.4ZM153.913 327.05H150.313V320.228H153.913C156.613 320.228 158.053 321.47 158.053 323.648C158.053 325.808 156.613 327.05 153.913 327.05ZM165.418 332.072C168.118 332.072 170.116 330.092 170.116 327.302C170.116 324.512 168.118 322.532 165.418 322.532C162.718 322.532 160.72 324.512 160.72 327.302C160.72 330.092 162.718 332.072 165.418 332.072ZM165.418 331.262C163.258 331.262 161.638 329.66 161.638 327.302C161.638 324.944 163.258 323.342 165.418 323.342C167.578 323.342 169.198 324.944 169.198 327.302C169.198 329.66 167.578 331.262 165.418 331.262ZM185.244 322.604L182.076 330.974L178.89 322.604H178.116L174.912 330.992L171.78 322.604H170.916L174.48 332H175.308L178.494 323.846L181.662 332H182.508L186.072 322.604H185.244ZM195.858 327.266C195.858 324.476 193.95 322.532 191.376 322.532C188.802 322.532 186.876 324.512 186.876 327.302C186.876 330.092 188.874 332.072 191.718 332.072C193.14 332.072 194.436 331.55 195.264 330.542L194.742 329.948C194.022 330.83 192.924 331.262 191.736 331.262C189.486 331.262 187.848 329.75 187.758 327.518H195.84C195.84 327.428 195.858 327.338 195.858 327.266ZM191.376 323.324C193.374 323.324 194.85 324.782 194.976 326.816H187.776C187.92 324.764 189.378 323.324 191.376 323.324ZM199.506 324.656V322.604H198.642V332H199.542V327.104C199.542 324.782 200.784 323.396 202.872 323.396C202.944 323.396 203.016 323.414 203.088 323.414V322.532C201.324 322.532 200.082 323.288 199.506 324.656ZM215.965 332.09C217.747 332.09 219.349 331.496 220.447 330.326L219.871 329.732C218.791 330.794 217.477 331.244 216.001 331.244C212.779 331.244 210.349 328.868 210.349 325.7C210.349 322.532 212.779 320.156 216.001 320.156C217.477 320.156 218.791 320.588 219.871 321.65L220.447 321.056C219.349 319.886 217.747 319.31 215.965 319.31C212.221 319.31 209.431 322.028 209.431 325.7C209.431 329.372 212.221 332.09 215.965 332.09ZM226.467 332.072C229.167 332.072 231.165 330.092 231.165 327.302C231.165 324.512 229.167 322.532 226.467 322.532C223.767 322.532 221.769 324.512 221.769 327.302C221.769 330.092 223.767 332.072 226.467 332.072ZM226.467 331.262C224.307 331.262 222.687 329.66 222.687 327.302C222.687 324.944 224.307 323.342 226.467 323.342C228.627 323.342 230.247 324.944 230.247 327.302C230.247 329.66 228.627 331.262 226.467 331.262ZM245.657 322.532C243.839 322.532 242.471 323.432 241.859 324.8C241.355 323.306 240.113 322.532 238.421 322.532C236.711 322.532 235.433 323.306 234.821 324.62V322.604H233.957V332H234.857V326.996C234.857 324.764 236.171 323.342 238.295 323.342C240.131 323.342 241.229 324.458 241.229 326.582V332H242.129V326.996C242.129 324.764 243.443 323.342 245.567 323.342C247.403 323.342 248.501 324.458 248.501 326.582V332H249.401V326.51C249.401 323.882 247.925 322.532 245.657 322.532ZM257.833 322.532C256.141 322.532 254.719 323.378 253.981 324.818V322.604H253.117V335.492H254.017V329.858C254.773 331.262 256.177 332.072 257.833 332.072C260.479 332.072 262.477 330.128 262.477 327.302C262.477 324.494 260.479 322.532 257.833 322.532ZM257.779 331.262C255.619 331.262 253.999 329.66 253.999 327.302C253.999 324.944 255.619 323.342 257.779 323.342C259.939 323.342 261.577 324.944 261.577 327.302C261.577 329.66 259.939 331.262 257.779 331.262ZM268.396 322.532C266.938 322.532 265.57 323.036 264.634 323.864L265.084 324.512C265.858 323.81 267.028 323.324 268.324 323.324C270.16 323.324 271.114 324.26 271.114 326.006V326.762H267.892C265.282 326.762 264.382 327.968 264.382 329.39C264.382 330.992 265.66 332.072 267.766 332.072C269.404 332.072 270.556 331.406 271.15 330.326V332H272.014V326.042C272.014 323.72 270.718 322.532 268.396 322.532ZM267.892 331.334C266.236 331.334 265.282 330.578 265.282 329.354C265.282 328.274 265.966 327.464 267.91 327.464H271.114V329.228C270.574 330.578 269.476 331.334 267.892 331.334ZM280.312 322.532C278.53 322.532 277.216 323.324 276.586 324.638V322.604H275.722V332H276.622V326.996C276.622 324.764 277.972 323.342 280.186 323.342C282.094 323.342 283.228 324.458 283.228 326.582V332H284.128V326.51C284.128 323.882 282.598 322.532 280.312 322.532ZM294.282 322.604L290.52 331.01L286.758 322.604H285.804L290.034 331.964L289.53 333.098C288.954 334.376 288.324 334.772 287.46 334.772C286.758 334.772 286.2 334.538 285.714 334.034L285.264 334.718C285.804 335.276 286.596 335.564 287.442 335.564C288.684 335.564 289.62 335.006 290.376 333.278L295.2 322.604H294.282ZM314.391 322.604L311.223 330.974L308.037 322.604H307.263L304.059 330.992L300.927 322.604H300.063L303.627 332H304.455L307.641 323.846L310.809 332H311.655L315.219 322.604H314.391ZM317.762 320.318C318.176 320.318 318.5 319.994 318.5 319.58C318.5 319.184 318.176 318.86 317.762 318.86C317.348 318.86 317.024 319.202 317.024 319.598C317.024 319.994 317.348 320.318 317.762 320.318ZM317.312 332H318.212V322.604H317.312V332ZM322.006 332H322.906V318.644H322.006V332ZM326.699 332H327.599V318.644H326.699V332ZM340.731 322.532C339.075 322.532 337.671 323.342 336.915 324.746V318.644H336.015V332H336.879V329.786C337.617 331.226 339.039 332.072 340.731 332.072C343.377 332.072 345.375 330.11 345.375 327.302C345.375 324.476 343.377 322.532 340.731 322.532ZM340.677 331.262C338.517 331.262 336.897 329.66 336.897 327.302C336.897 324.944 338.517 323.342 340.677 323.342C342.837 323.342 344.475 324.944 344.475 327.302C344.475 329.66 342.837 331.262 340.677 331.262ZM356.118 327.266C356.118 324.476 354.21 322.532 351.636 322.532C349.062 322.532 347.136 324.512 347.136 327.302C347.136 330.092 349.134 332.072 351.978 332.072C353.4 332.072 354.696 331.55 355.524 330.542L355.002 329.948C354.282 330.83 353.184 331.262 351.996 331.262C349.746 331.262 348.108 329.75 348.018 327.518H356.1C356.1 327.428 356.118 327.338 356.118 327.266ZM351.636 323.324C353.634 323.324 355.11 324.782 355.236 326.816H348.036C348.18 324.764 349.638 323.324 351.636 323.324ZM363.525 332H364.425V318.644H363.525V332ZM368.669 320.318C369.083 320.318 369.407 319.994 369.407 319.58C369.407 319.184 369.083 318.86 368.669 318.86C368.255 318.86 367.931 319.202 367.931 319.598C367.931 319.994 368.255 320.318 368.669 320.318ZM368.219 332H369.119V322.604H368.219V332ZM375.288 332.072C377.682 332.072 378.996 331.028 378.996 329.498C378.996 325.916 372.768 327.914 372.768 325.088C372.768 324.08 373.578 323.324 375.414 323.324C376.422 323.324 377.448 323.594 378.24 324.17L378.654 323.45C377.916 322.892 376.62 322.532 375.432 322.532C373.056 322.532 371.868 323.684 371.868 325.106C371.868 328.796 378.096 326.78 378.096 329.516C378.096 330.578 377.304 331.28 375.324 331.28C373.938 331.28 372.66 330.758 371.94 330.146L371.526 330.866C372.264 331.55 373.74 332.072 375.288 332.072ZM385.792 330.776C385.414 331.118 384.892 331.298 384.334 331.298C383.182 331.298 382.588 330.632 382.588 329.426V323.378H385.576V322.604H382.588V320.552H381.688V322.604H379.96V323.378H381.688V329.516C381.688 331.1 382.588 332.072 384.244 332.072C384.946 332.072 385.702 331.856 386.17 331.406L385.792 330.776ZM396.302 327.266C396.302 324.476 394.394 322.532 391.82 322.532C389.246 322.532 387.32 324.512 387.32 327.302C387.32 330.092 389.318 332.072 392.162 332.072C393.584 332.072 394.88 331.55 395.708 330.542L395.186 329.948C394.466 330.83 393.368 331.262 392.18 331.262C389.93 331.262 388.292 329.75 388.202 327.518H396.284C396.284 327.428 396.302 327.338 396.302 327.266ZM391.82 323.324C393.818 323.324 395.294 324.782 395.42 326.816H388.22C388.364 324.764 389.822 323.324 391.82 323.324ZM406.538 318.644V324.782C405.782 323.36 404.378 322.532 402.704 322.532C400.058 322.532 398.06 324.476 398.06 327.302C398.06 330.11 400.058 332.072 402.704 332.072C404.396 332.072 405.818 331.244 406.556 329.786V332H407.438V318.644H406.538ZM402.758 331.262C400.598 331.262 398.978 329.66 398.978 327.302C398.978 324.944 400.598 323.342 402.758 323.342C404.918 323.342 406.538 324.944 406.538 327.302C406.538 329.66 404.918 331.262 402.758 331.262ZM419.023 322.532C417.565 322.532 416.197 323.036 415.261 323.864L415.711 324.512C416.485 323.81 417.655 323.324 418.951 323.324C420.787 323.324 421.741 324.26 421.741 326.006V326.762H418.519C415.909 326.762 415.009 327.968 415.009 329.39C415.009 330.992 416.287 332.072 418.393 332.072C420.031 332.072 421.183 331.406 421.777 330.326V332H422.641V326.042C422.641 323.72 421.345 322.532 419.023 322.532ZM418.519 331.334C416.863 331.334 415.909 330.578 415.909 329.354C415.909 328.274 416.593 327.464 418.537 327.464H421.741V329.228C421.201 330.578 420.103 331.334 418.519 331.334ZM428.725 332.072C431.119 332.072 432.433 331.028 432.433 329.498C432.433 325.916 426.205 327.914 426.205 325.088C426.205 324.08 427.015 323.324 428.851 323.324C429.859 323.324 430.885 323.594 431.677 324.17L432.091 323.45C431.353 322.892 430.057 322.532 428.869 322.532C426.493 322.532 425.305 323.684 425.305 325.106C425.305 328.796 431.533 326.78 431.533 329.516C431.533 330.578 430.741 331.28 428.761 331.28C427.375 331.28 426.097 330.758 425.377 330.146L424.963 330.866C425.701 331.55 427.177 332.072 428.725 332.072ZM89.532 344.604L85.77 353.01L82.008 344.604H81.054L85.284 353.964L84.78 355.098C84.204 356.376 83.574 356.772 82.71 356.772C82.008 356.772 81.45 356.538 80.964 356.034L80.514 356.718C81.054 357.276 81.846 357.564 82.692 357.564C83.934 357.564 84.87 357.006 85.626 355.278L90.45 344.604H89.532ZM95.8261 354.072C98.5261 354.072 100.524 352.092 100.524 349.302C100.524 346.512 98.5261 344.532 95.8261 344.532C93.1261 344.532 91.1281 346.512 91.1281 349.302C91.1281 352.092 93.1261 354.072 95.8261 354.072ZM95.8261 353.262C93.6661 353.262 92.0461 351.66 92.0461 349.302C92.0461 346.944 93.6661 345.342 95.8261 345.342C97.9861 345.342 99.6061 346.944 99.6061 349.302C99.6061 351.66 97.9861 353.262 95.8261 353.262ZM110.642 344.604V349.608C110.642 351.84 109.328 353.262 107.204 353.262C105.242 353.262 104.108 352.146 104.108 350.022V344.604H103.208V350.094C103.208 352.722 104.738 354.072 107.132 354.072C108.788 354.072 110.066 353.298 110.678 351.984V354H111.542V344.604H110.642ZM116.221 346.656V344.604H115.357V354H116.257V349.104C116.257 346.782 117.499 345.396 119.587 345.396C119.659 345.396 119.731 345.414 119.803 345.414V344.532C118.039 344.532 116.797 345.288 116.221 346.656ZM127.064 340.644L126.362 343.092C126.236 343.488 126.2 343.668 126.2 343.92C126.2 344.334 126.506 344.676 126.956 344.676C127.37 344.676 127.694 344.352 127.694 343.92C127.694 343.56 127.46 343.272 127.118 343.182L127.694 340.644H127.064ZM129.872 343.182L130.448 340.644H129.818L129.116 343.092C128.99 343.488 128.954 343.668 128.954 343.92C128.954 344.334 129.26 344.676 129.71 344.676C130.124 344.676 130.448 344.352 130.448 343.92C130.448 343.56 130.214 343.272 129.872 343.182ZM141.12 349.266C141.12 346.476 139.212 344.532 136.638 344.532C134.064 344.532 132.138 346.512 132.138 349.302C132.138 352.092 134.136 354.072 136.98 354.072C138.402 354.072 139.698 353.55 140.526 352.542L140.004 351.948C139.284 352.83 138.186 353.262 136.998 353.262C134.748 353.262 133.11 351.75 133.02 349.518H141.102C141.102 349.428 141.12 349.338 141.12 349.266ZM136.638 345.324C138.636 345.324 140.112 346.782 140.238 348.816H133.038C133.182 346.764 134.64 345.324 136.638 345.324ZM148.494 344.532C146.712 344.532 145.398 345.324 144.768 346.638V344.604H143.904V354H144.804V348.996C144.804 346.764 146.154 345.342 148.368 345.342C150.276 345.342 151.41 346.458 151.41 348.582V354H152.31V348.51C152.31 345.882 150.78 344.532 148.494 344.532ZM163.989 349.266C163.989 346.476 162.081 344.532 159.507 344.532C156.933 344.532 155.007 346.512 155.007 349.302C155.007 352.092 157.005 354.072 159.849 354.072C161.271 354.072 162.567 353.55 163.395 352.542L162.873 351.948C162.153 352.83 161.055 353.262 159.867 353.262C157.617 353.262 155.979 351.75 155.889 349.518H163.971C163.971 349.428 163.989 349.338 163.989 349.266ZM159.507 345.324C161.505 345.324 162.981 346.782 163.107 348.816H155.907C156.051 346.764 157.509 345.324 159.507 345.324ZM167.637 346.656V344.604H166.773V354H167.673V349.104C167.673 346.782 168.915 345.396 171.003 345.396C171.075 345.396 171.147 345.414 171.219 345.414V344.532C169.455 344.532 168.213 345.288 167.637 346.656ZM181.207 344.604V346.728C180.451 345.324 178.993 344.532 177.265 344.532C174.601 344.532 172.585 346.404 172.585 349.086C172.585 351.768 174.601 353.658 177.265 353.658C178.957 353.658 180.397 352.884 181.171 351.516V353.1C181.171 355.602 180.001 356.754 177.499 356.754C175.987 356.754 174.637 356.25 173.701 355.386L173.215 356.07C174.169 357.024 175.807 357.564 177.517 357.564C180.541 357.564 182.071 356.142 182.071 352.992V344.604H181.207ZM177.337 352.848C175.123 352.848 173.503 351.3 173.503 349.086C173.503 346.872 175.123 345.342 177.337 345.342C179.569 345.342 181.189 346.872 181.189 349.086C181.189 351.3 179.569 352.848 177.337 352.848ZM192.505 344.604L188.743 353.01L184.981 344.604H184.027L188.257 353.964L187.753 355.098C187.177 356.376 186.547 356.772 185.683 356.772C184.981 356.772 184.423 356.538 183.937 356.034L183.487 356.718C184.027 357.276 184.819 357.564 185.665 357.564C186.907 357.564 187.843 357.006 188.599 355.278L193.423 344.604H192.505ZM204.729 344.532C203.037 344.532 201.615 345.378 200.877 346.818V344.604H200.013V357.492H200.913V351.858C201.669 353.262 203.073 354.072 204.729 354.072C207.375 354.072 209.373 352.128 209.373 349.302C209.373 346.494 207.375 344.532 204.729 344.532ZM204.675 353.262C202.515 353.262 200.895 351.66 200.895 349.302C200.895 346.944 202.515 345.342 204.675 345.342C206.835 345.342 208.473 346.944 208.473 349.302C208.473 351.66 206.835 353.262 204.675 353.262ZM213.024 346.656V344.604H212.16V354H213.06V349.104C213.06 346.782 214.302 345.396 216.39 345.396C216.462 345.396 216.534 345.414 216.606 345.414V344.532C214.842 344.532 213.6 345.288 213.024 346.656ZM222.67 354.072C225.37 354.072 227.368 352.092 227.368 349.302C227.368 346.512 225.37 344.532 222.67 344.532C219.97 344.532 217.972 346.512 217.972 349.302C217.972 352.092 219.97 354.072 222.67 354.072ZM222.67 353.262C220.51 353.262 218.89 351.66 218.89 349.302C218.89 346.944 220.51 345.342 222.67 345.342C224.83 345.342 226.45 346.944 226.45 349.302C226.45 351.66 224.83 353.262 222.67 353.262ZM236.52 344.604L232.74 353.01L228.996 344.604H228.042L232.272 354H233.19L237.438 344.604H236.52ZM239.856 342.318C240.27 342.318 240.594 341.994 240.594 341.58C240.594 341.184 240.27 340.86 239.856 340.86C239.442 340.86 239.118 341.202 239.118 341.598C239.118 341.994 239.442 342.318 239.856 342.318ZM239.406 354H240.306V344.604H239.406V354ZM251.551 340.644V346.782C250.795 345.36 249.391 344.532 247.717 344.532C245.071 344.532 243.073 346.476 243.073 349.302C243.073 352.11 245.071 354.072 247.717 354.072C249.409 354.072 250.831 353.244 251.569 351.786V354H252.451V340.644H251.551ZM247.771 353.262C245.611 353.262 243.991 351.66 243.991 349.302C243.991 346.944 245.611 345.342 247.771 345.342C249.931 345.342 251.551 346.944 251.551 349.302C251.551 351.66 249.931 353.262 247.771 353.262ZM264.202 349.266C264.202 346.476 262.294 344.532 259.72 344.532C257.146 344.532 255.22 346.512 255.22 349.302C255.22 352.092 257.218 354.072 260.062 354.072C261.484 354.072 262.78 353.55 263.608 352.542L263.086 351.948C262.366 352.83 261.268 353.262 260.08 353.262C257.83 353.262 256.192 351.75 256.102 349.518H264.184C264.184 349.428 264.202 349.338 264.202 349.266ZM259.72 345.324C261.718 345.324 263.194 346.782 263.32 348.816H256.12C256.264 346.764 257.722 345.324 259.72 345.324ZM267.85 346.656V344.604H266.986V354H267.886V349.104C267.886 346.782 269.128 345.396 271.216 345.396C271.288 345.396 271.36 345.414 271.432 345.414V344.532C269.668 344.532 268.426 345.288 267.85 346.656ZM274.525 340.572C274.093 340.572 273.769 340.896 273.769 341.328C273.769 341.706 274.003 341.976 274.363 342.066L273.769 344.604H274.417L275.119 342.156C275.227 341.778 275.281 341.598 275.281 341.328C275.281 340.932 274.975 340.572 274.525 340.572ZM277.279 340.572C276.847 340.572 276.523 340.896 276.523 341.328C276.523 341.706 276.757 341.976 277.117 342.066L276.523 344.604H277.171L277.873 342.156C277.981 341.778 278.035 341.598 278.035 341.328C278.035 340.932 277.729 340.572 277.279 340.572ZM288.769 344.532C287.311 344.532 285.943 345.036 285.007 345.864L285.457 346.512C286.231 345.81 287.401 345.324 288.697 345.324C290.533 345.324 291.487 346.26 291.487 348.006V348.762H288.265C285.655 348.762 284.755 349.968 284.755 351.39C284.755 352.992 286.033 354.072 288.139 354.072C289.777 354.072 290.929 353.406 291.523 352.326V354H292.387V348.042C292.387 345.72 291.091 344.532 288.769 344.532ZM288.265 353.334C286.609 353.334 285.655 352.578 285.655 351.354C285.655 350.274 286.339 349.464 288.283 349.464H291.487V351.228C290.947 352.578 289.849 353.334 288.265 353.334ZM300.686 344.532C298.904 344.532 297.59 345.324 296.96 346.638V344.604H296.096V354H296.996V348.996C296.996 346.764 298.346 345.342 300.56 345.342C302.468 345.342 303.602 346.458 303.602 348.582V354H304.502V348.51C304.502 345.882 302.972 344.532 300.686 344.532ZM315.676 340.644V346.782C314.92 345.36 313.516 344.532 311.842 344.532C309.196 344.532 307.198 346.476 307.198 349.302C307.198 352.11 309.196 354.072 311.842 354.072C313.534 354.072 314.956 353.244 315.694 351.786V354H316.576V340.644H315.676ZM311.896 353.262C309.736 353.262 308.116 351.66 308.116 349.302C308.116 346.944 309.736 345.342 311.896 345.342C314.056 345.342 315.676 346.944 315.676 349.302C315.676 351.66 314.056 353.262 311.896 353.262ZM329.278 352.776C328.9 353.118 328.378 353.298 327.82 353.298C326.668 353.298 326.074 352.632 326.074 351.426V345.378H329.062V344.604H326.074V342.552H325.174V344.604H323.446V345.378H325.174V351.516C325.174 353.1 326.074 354.072 327.73 354.072C328.432 354.072 329.188 353.856 329.656 353.406L329.278 352.776ZM336.756 344.532C335.01 344.532 333.714 345.288 333.066 346.566V340.644H332.166V354H333.066V348.996C333.066 346.764 334.416 345.342 336.63 345.342C338.538 345.342 339.672 346.458 339.672 348.582V354H340.572V348.51C340.572 345.882 339.042 344.532 336.756 344.532ZM352.251 349.266C352.251 346.476 350.343 344.532 347.769 344.532C345.195 344.532 343.269 346.512 343.269 349.302C343.269 352.092 345.267 354.072 348.111 354.072C349.533 354.072 350.829 353.55 351.657 352.542L351.135 351.948C350.415 352.83 349.317 353.262 348.129 353.262C345.879 353.262 344.241 351.75 344.151 349.518H352.233C352.233 349.428 352.251 349.338 352.251 349.266ZM347.769 345.324C349.767 345.324 351.243 346.782 351.369 348.816H344.169C344.313 346.764 345.771 345.324 347.769 345.324ZM364.374 344.532C362.718 344.532 361.314 345.342 360.558 346.746V340.644H359.658V354H360.522V351.786C361.26 353.226 362.682 354.072 364.374 354.072C367.02 354.072 369.018 352.11 369.018 349.302C369.018 346.476 367.02 344.532 364.374 344.532ZM364.32 353.262C362.16 353.262 360.54 351.66 360.54 349.302C360.54 346.944 362.16 345.342 364.32 345.342C366.48 345.342 368.118 346.944 368.118 349.302C368.118 351.66 366.48 353.262 364.32 353.262ZM372.254 342.318C372.668 342.318 372.992 341.994 372.992 341.58C372.992 341.184 372.668 340.86 372.254 340.86C371.84 340.86 371.516 341.202 371.516 341.598C371.516 341.994 371.84 342.318 372.254 342.318ZM371.804 354H372.704V344.604H371.804V354ZM376.498 354H377.398V340.644H376.498V354ZM381.191 354H382.091V340.644H381.191V354ZM403.108 344.604L399.94 352.974L396.754 344.604H395.98L392.776 352.992L389.644 344.604H388.78L392.344 354H393.172L396.358 345.846L399.526 354H400.372L403.936 344.604H403.108ZM406.479 342.318C406.893 342.318 407.217 341.994 407.217 341.58C407.217 341.184 406.893 340.86 406.479 340.86C406.065 340.86 405.741 341.202 405.741 341.598C405.741 341.994 406.065 342.318 406.479 342.318ZM406.029 354H406.929V344.604H406.029V354ZM410.722 354H411.622V340.644H410.722V354ZM415.416 354H416.316V340.644H415.416V354ZM83.772 368.656V366.604H82.908V376H83.808V371.104C83.808 368.782 85.05 367.396 87.138 367.396C87.21 367.396 87.282 367.414 87.354 367.414V366.532C85.59 366.532 84.348 367.288 83.772 368.656ZM97.7019 371.266C97.7019 368.476 95.7939 366.532 93.2199 366.532C90.6459 366.532 88.7199 368.512 88.7199 371.302C88.7199 374.092 90.7179 376.072 93.5619 376.072C94.9839 376.072 96.2799 375.55 97.1079 374.542L96.5859 373.948C95.8659 374.83 94.7679 375.262 93.5799 375.262C91.3299 375.262 89.6919 373.75 89.6019 371.518H97.6839C97.6839 371.428 97.7019 371.338 97.7019 371.266ZM93.2199 367.324C95.2179 367.324 96.6939 368.782 96.8199 370.816H89.6199C89.7639 368.764 91.2219 367.324 93.2199 367.324ZM100.666 365.164V366.604H98.9381V367.378H100.666V376H101.566V367.378H104.554V366.604H101.548V365.236C101.548 363.994 102.142 363.346 103.312 363.346C103.87 363.346 104.392 363.526 104.77 363.868L105.13 363.184C104.68 362.77 103.96 362.572 103.276 362.572C101.602 362.572 100.666 363.598 100.666 365.164ZM106.39 362.644V376H107.29V362.644H106.39ZM119.042 371.266C119.042 368.476 117.134 366.532 114.56 366.532C111.986 366.532 110.06 368.512 110.06 371.302C110.06 374.092 112.058 376.072 114.902 376.072C116.324 376.072 117.62 375.55 118.448 374.542L117.926 373.948C117.206 374.83 116.108 375.262 114.92 375.262C112.67 375.262 111.032 373.75 110.942 371.518H119.024C119.024 371.428 119.042 371.338 119.042 371.266ZM114.56 367.324C116.558 367.324 118.034 368.782 118.16 370.816H110.96C111.104 368.764 112.562 367.324 114.56 367.324ZM125.552 376.072C127.046 376.072 128.342 375.478 129.116 374.344L128.45 373.858C127.766 374.812 126.722 375.262 125.552 375.262C123.338 375.262 121.718 373.678 121.718 371.302C121.718 368.926 123.338 367.342 125.552 367.342C126.722 367.342 127.766 367.792 128.45 368.746L129.116 368.26C128.342 367.108 127.046 366.532 125.552 366.532C122.798 366.532 120.8 368.494 120.8 371.302C120.8 374.092 122.798 376.072 125.552 376.072ZM136.2 374.776C135.822 375.118 135.3 375.298 134.742 375.298C133.59 375.298 132.996 374.632 132.996 373.426V367.378H135.984V366.604H132.996V364.552H132.096V366.604H130.368V367.378H132.096V373.516C132.096 375.1 132.996 376.072 134.652 376.072C135.354 376.072 136.11 375.856 136.578 375.406L136.2 374.776ZM150.335 366.604L146.573 375.01L142.811 366.604H141.857L146.087 375.964L145.583 377.098C145.007 378.376 144.377 378.772 143.513 378.772C142.811 378.772 142.253 378.538 141.767 378.034L141.317 378.718C141.857 379.276 142.649 379.564 143.495 379.564C144.737 379.564 145.673 379.006 146.429 377.278L151.253 366.604H150.335ZM156.629 376.072C159.329 376.072 161.327 374.092 161.327 371.302C161.327 368.512 159.329 366.532 156.629 366.532C153.929 366.532 151.931 368.512 151.931 371.302C151.931 374.092 153.929 376.072 156.629 376.072ZM156.629 375.262C154.469 375.262 152.849 373.66 152.849 371.302C152.849 368.944 154.469 367.342 156.629 367.342C158.789 367.342 160.409 368.944 160.409 371.302C160.409 373.66 158.789 375.262 156.629 375.262ZM171.445 366.604V371.608C171.445 373.84 170.131 375.262 168.007 375.262C166.045 375.262 164.911 374.146 164.911 372.022V366.604H164.011V372.094C164.011 374.722 165.541 376.072 167.935 376.072C169.591 376.072 170.869 375.298 171.481 373.984V376H172.345V366.604H171.445ZM177.024 368.656V366.604H176.16V376H177.06V371.104C177.06 368.782 178.302 367.396 180.39 367.396C180.462 367.396 180.534 367.414 180.606 367.414V366.532C178.842 366.532 177.6 367.288 177.024 368.656ZM190.243 376.072C192.637 376.072 193.951 375.028 193.951 373.498C193.951 369.916 187.723 371.914 187.723 369.088C187.723 368.08 188.533 367.324 190.369 367.324C191.377 367.324 192.403 367.594 193.195 368.17L193.609 367.45C192.871 366.892 191.575 366.532 190.387 366.532C188.011 366.532 186.823 367.684 186.823 369.106C186.823 372.796 193.051 370.78 193.051 373.516C193.051 374.578 192.259 375.28 190.279 375.28C188.893 375.28 187.615 374.758 186.895 374.146L186.481 374.866C187.219 375.55 188.695 376.072 190.243 376.072ZM200.135 376.072C202.835 376.072 204.833 374.092 204.833 371.302C204.833 368.512 202.835 366.532 200.135 366.532C197.435 366.532 195.437 368.512 195.437 371.302C195.437 374.092 197.435 376.072 200.135 376.072ZM200.135 375.262C197.975 375.262 196.355 373.66 196.355 371.302C196.355 368.944 197.975 367.342 200.135 367.342C202.295 367.342 203.915 368.944 203.915 371.302C203.915 373.66 202.295 375.262 200.135 375.262ZM207.625 376H208.525V362.644H207.625V376ZM215.486 366.532C214.028 366.532 212.66 367.036 211.724 367.864L212.174 368.512C212.948 367.81 214.118 367.324 215.414 367.324C217.25 367.324 218.204 368.26 218.204 370.006V370.762H214.982C212.372 370.762 211.472 371.968 211.472 373.39C211.472 374.992 212.75 376.072 214.856 376.072C216.494 376.072 217.646 375.406 218.24 374.326V376H219.104V370.042C219.104 367.72 217.808 366.532 215.486 366.532ZM214.982 375.334C213.326 375.334 212.372 374.578 212.372 373.354C212.372 372.274 213.056 371.464 215 371.464H218.204V373.228C217.664 374.578 216.566 375.334 214.982 375.334ZM223.676 368.656V366.604H222.812V376H223.712V371.104C223.712 368.782 224.954 367.396 227.042 367.396C227.114 367.396 227.186 367.414 227.258 367.414V366.532C225.494 366.532 224.252 367.288 223.676 368.656ZM242.475 371.266C242.475 368.476 240.567 366.532 237.993 366.532C235.419 366.532 233.493 368.512 233.493 371.302C233.493 374.092 235.491 376.072 238.335 376.072C239.757 376.072 241.053 375.55 241.881 374.542L241.359 373.948C240.639 374.83 239.541 375.262 238.353 375.262C236.103 375.262 234.465 373.75 234.375 371.518H242.457C242.457 371.428 242.475 371.338 242.475 371.266ZM237.993 367.324C239.991 367.324 241.467 368.782 241.593 370.816H234.393C234.537 368.764 235.995 367.324 237.993 367.324ZM249.85 366.532C248.068 366.532 246.754 367.324 246.124 368.638V366.604H245.26V376H246.16V370.996C246.16 368.764 247.51 367.342 249.724 367.342C251.632 367.342 252.766 368.458 252.766 370.582V376H253.666V370.51C253.666 367.882 252.136 366.532 249.85 366.532ZM265.344 371.266C265.344 368.476 263.436 366.532 260.862 366.532C258.288 366.532 256.362 368.512 256.362 371.302C256.362 374.092 258.36 376.072 261.204 376.072C262.626 376.072 263.922 375.55 264.75 374.542L264.228 373.948C263.508 374.83 262.41 375.262 261.222 375.262C258.972 375.262 257.334 373.75 257.244 371.518H265.326C265.326 371.428 265.344 371.338 265.344 371.266ZM260.862 367.324C262.86 367.324 264.336 368.782 264.462 370.816H257.262C257.406 368.764 258.864 367.324 260.862 367.324ZM268.993 368.656V366.604H268.129V376H269.029V371.104C269.029 368.782 270.271 367.396 272.359 367.396C272.431 367.396 272.503 367.414 272.575 367.414V366.532C270.811 366.532 269.569 367.288 268.993 368.656ZM282.563 366.604V368.728C281.807 367.324 280.349 366.532 278.621 366.532C275.957 366.532 273.941 368.404 273.941 371.086C273.941 373.768 275.957 375.658 278.621 375.658C280.313 375.658 281.753 374.884 282.527 373.516V375.1C282.527 377.602 281.357 378.754 278.855 378.754C277.343 378.754 275.993 378.25 275.057 377.386L274.571 378.07C275.525 379.024 277.163 379.564 278.873 379.564C281.897 379.564 283.427 378.142 283.427 374.992V366.604H282.563ZM278.693 374.848C276.479 374.848 274.859 373.3 274.859 371.086C274.859 368.872 276.479 367.342 278.693 367.342C280.925 367.342 282.545 368.872 282.545 371.086C282.545 373.3 280.925 374.848 278.693 374.848ZM293.86 366.604L290.098 375.01L286.336 366.604H285.382L289.612 375.964L289.108 377.098C288.532 378.376 287.902 378.772 287.038 378.772C286.336 378.772 285.778 378.538 285.292 378.034L284.842 378.718C285.382 379.276 286.174 379.564 287.02 379.564C288.262 379.564 289.198 379.006 289.954 377.278L294.778 366.604H293.86ZM305.095 376.072C306.589 376.072 307.885 375.478 308.659 374.344L307.993 373.858C307.309 374.812 306.265 375.262 305.095 375.262C302.881 375.262 301.261 373.678 301.261 371.302C301.261 368.926 302.881 367.342 305.095 367.342C306.265 367.342 307.309 367.792 307.993 368.746L308.659 368.26C307.885 367.108 306.589 366.532 305.095 366.532C302.341 366.532 300.343 368.494 300.343 371.302C300.343 374.092 302.341 376.072 305.095 376.072ZM312.217 368.656V366.604H311.353V376H312.253V371.104C312.253 368.782 313.495 367.396 315.583 367.396C315.655 367.396 315.727 367.414 315.799 367.414V366.532C314.035 366.532 312.793 367.288 312.217 368.656ZM326.147 371.266C326.147 368.476 324.239 366.532 321.665 366.532C319.091 366.532 317.165 368.512 317.165 371.302C317.165 374.092 319.163 376.072 322.007 376.072C323.429 376.072 324.725 375.55 325.553 374.542L325.031 373.948C324.311 374.83 323.213 375.262 322.025 375.262C319.775 375.262 318.137 373.75 318.047 371.518H326.129C326.129 371.428 326.147 371.338 326.147 371.266ZM321.665 367.324C323.663 367.324 325.139 368.782 325.265 370.816H318.065C318.209 368.764 319.667 367.324 321.665 367.324ZM336.383 362.644V368.782C335.627 367.36 334.223 366.532 332.549 366.532C329.903 366.532 327.905 368.476 327.905 371.302C327.905 374.11 329.903 376.072 332.549 376.072C334.241 376.072 335.663 375.244 336.401 373.786V376H337.283V362.644H336.383ZM332.603 375.262C330.443 375.262 328.823 373.66 328.823 371.302C328.823 368.944 330.443 367.342 332.603 367.342C334.763 367.342 336.383 368.944 336.383 371.302C336.383 373.66 334.763 375.262 332.603 375.262ZM341.528 364.318C341.942 364.318 342.266 363.994 342.266 363.58C342.266 363.184 341.942 362.86 341.528 362.86C341.114 362.86 340.79 363.202 340.79 363.598C340.79 363.994 341.114 364.318 341.528 364.318ZM341.078 376H341.978V366.604H341.078V376ZM350.055 374.776C349.677 375.118 349.155 375.298 348.597 375.298C347.445 375.298 346.851 374.632 346.851 373.426V367.378H349.839V366.604H346.851V364.552H345.951V366.604H344.223V367.378H345.951V373.516C345.951 375.1 346.851 376.072 348.507 376.072C349.209 376.072 349.965 375.856 350.433 375.406L350.055 374.776ZM355.319 376.072C357.713 376.072 359.027 375.028 359.027 373.498C359.027 369.916 352.799 371.914 352.799 369.088C352.799 368.08 353.609 367.324 355.445 367.324C356.453 367.324 357.479 367.594 358.271 368.17L358.685 367.45C357.947 366.892 356.651 366.532 355.463 366.532C353.087 366.532 351.899 367.684 351.899 369.106C351.899 372.796 358.127 370.78 358.127 373.516C358.127 374.578 357.335 375.28 355.355 375.28C353.969 375.28 352.691 374.758 351.971 374.146L351.557 374.866C352.295 375.55 353.771 376.072 355.319 376.072ZM361.431 376.072C361.845 376.072 362.187 375.73 362.187 375.298C362.187 374.866 361.845 374.542 361.431 374.542C361.017 374.542 360.675 374.866 360.675 375.298C360.675 375.73 361.017 376.072 361.431 376.072ZM374.676 376H375.594V363.4H374.676V376ZM384.287 366.532C382.505 366.532 381.191 367.324 380.561 368.638V366.604H379.697V376H380.597V370.996C380.597 368.764 381.947 367.342 384.161 367.342C386.069 367.342 387.203 368.458 387.203 370.582V376H388.103V370.51C388.103 367.882 386.573 366.532 384.287 366.532ZM86.076 388.532C84.618 388.532 83.25 389.036 82.314 389.864L82.764 390.512C83.538 389.81 84.708 389.324 86.004 389.324C87.84 389.324 88.794 390.26 88.794 392.006V392.762H85.572C82.962 392.762 82.062 393.968 82.062 395.39C82.062 396.992 83.34 398.072 85.446 398.072C87.084 398.072 88.236 397.406 88.83 396.326V398H89.694V392.042C89.694 389.72 88.398 388.532 86.076 388.532ZM85.572 397.334C83.916 397.334 82.962 396.578 82.962 395.354C82.962 394.274 83.646 393.464 85.59 393.464H88.794V395.228C88.254 396.578 87.156 397.334 85.572 397.334ZM100.872 384.644V390.782C100.116 389.36 98.7117 388.532 97.0377 388.532C94.3917 388.532 92.3937 390.476 92.3937 393.302C92.3937 396.11 94.3917 398.072 97.0377 398.072C98.7297 398.072 100.152 397.244 100.89 395.786V398H101.772V384.644H100.872ZM97.0917 397.262C94.9317 397.262 93.3117 395.66 93.3117 393.302C93.3117 390.944 94.9317 389.342 97.0917 389.342C99.2517 389.342 100.872 390.944 100.872 393.302C100.872 395.66 99.2517 397.262 97.0917 397.262ZM113.018 384.644V390.782C112.262 389.36 110.858 388.532 109.184 388.532C106.538 388.532 104.54 390.476 104.54 393.302C104.54 396.11 106.538 398.072 109.184 398.072C110.876 398.072 112.298 397.244 113.036 395.786V398H113.918V384.644H113.018ZM109.238 397.262C107.078 397.262 105.458 395.66 105.458 393.302C105.458 390.944 107.078 389.342 109.238 389.342C111.398 389.342 113.018 390.944 113.018 393.302C113.018 395.66 111.398 397.262 109.238 397.262ZM118.163 386.318C118.577 386.318 118.901 385.994 118.901 385.58C118.901 385.184 118.577 384.86 118.163 384.86C117.749 384.86 117.425 385.202 117.425 385.598C117.425 385.994 117.749 386.318 118.163 386.318ZM117.713 398H118.613V388.604H117.713V398ZM126.69 396.776C126.312 397.118 125.79 397.298 125.232 397.298C124.08 397.298 123.486 396.632 123.486 395.426V389.378H126.474V388.604H123.486V386.552H122.586V388.604H120.858V389.378H122.586V395.516C122.586 397.1 123.486 398.072 125.142 398.072C125.844 398.072 126.6 397.856 127.068 397.406L126.69 396.776ZM130.028 386.318C130.442 386.318 130.766 385.994 130.766 385.58C130.766 385.184 130.442 384.86 130.028 384.86C129.614 384.86 129.29 385.202 129.29 385.598C129.29 385.994 129.614 386.318 130.028 386.318ZM129.578 398H130.478V388.604H129.578V398ZM137.943 398.072C140.643 398.072 142.641 396.092 142.641 393.302C142.641 390.512 140.643 388.532 137.943 388.532C135.243 388.532 133.245 390.512 133.245 393.302C133.245 396.092 135.243 398.072 137.943 398.072ZM137.943 397.262C135.783 397.262 134.163 395.66 134.163 393.302C134.163 390.944 135.783 389.342 137.943 389.342C140.103 389.342 141.723 390.944 141.723 393.302C141.723 395.66 140.103 397.262 137.943 397.262ZM150.023 388.532C148.241 388.532 146.927 389.324 146.297 390.638V388.604H145.433V398H146.333V392.996C146.333 390.764 147.683 389.342 149.897 389.342C151.805 389.342 152.939 390.458 152.939 392.582V398H153.839V392.51C153.839 389.882 152.309 388.532 150.023 388.532ZM157.437 396.542C157.005 396.542 156.681 396.866 156.681 397.298C156.681 397.676 156.915 397.946 157.275 398.036L156.681 400.574H157.329L158.031 398.126C158.139 397.748 158.193 397.568 158.193 397.298C158.193 396.902 157.887 396.542 157.437 396.542ZM170.055 396.776C169.677 397.118 169.155 397.298 168.597 397.298C167.445 397.298 166.851 396.632 166.851 395.426V389.378H169.839V388.604H166.851V386.552H165.951V388.604H164.223V389.378H165.951V395.516C165.951 397.1 166.851 398.072 168.507 398.072C169.209 398.072 169.965 397.856 170.433 397.406L170.055 396.776ZM177.533 388.532C175.787 388.532 174.491 389.288 173.843 390.566V384.644H172.943V398H173.843V392.996C173.843 390.764 175.193 389.342 177.407 389.342C179.315 389.342 180.449 390.458 180.449 392.582V398H181.349V392.51C181.349 389.882 179.819 388.532 177.533 388.532ZM193.028 393.266C193.028 390.476 191.12 388.532 188.546 388.532C185.972 388.532 184.046 390.512 184.046 393.302C184.046 396.092 186.044 398.072 188.888 398.072C190.31 398.072 191.606 397.55 192.434 396.542L191.912 395.948C191.192 396.83 190.094 397.262 188.906 397.262C186.656 397.262 185.018 395.75 184.928 393.518H193.01C193.01 393.428 193.028 393.338 193.028 393.266ZM188.546 389.324C190.544 389.324 192.02 390.782 192.146 392.816H184.946C185.09 390.764 186.548 389.324 188.546 389.324ZM196.676 390.656V388.604H195.812V398H196.712V393.104C196.712 390.782 197.954 389.396 200.042 389.396C200.114 389.396 200.186 389.414 200.258 389.414V388.532C198.494 388.532 197.252 389.288 196.676 390.656ZM210.606 393.266C210.606 390.476 208.698 388.532 206.124 388.532C203.55 388.532 201.624 390.512 201.624 393.302C201.624 396.092 203.622 398.072 206.466 398.072C207.888 398.072 209.184 397.55 210.012 396.542L209.49 395.948C208.77 396.83 207.672 397.262 206.484 397.262C204.234 397.262 202.596 395.75 202.506 393.518H210.588C210.588 393.428 210.606 393.338 210.606 393.266ZM206.124 389.324C208.122 389.324 209.598 390.782 209.724 392.816H202.524C202.668 390.764 204.126 389.324 206.124 389.324ZM218.463 386.318C218.877 386.318 219.201 385.994 219.201 385.58C219.201 385.184 218.877 384.86 218.463 384.86C218.049 384.86 217.725 385.202 217.725 385.598C217.725 385.994 218.049 386.318 218.463 386.318ZM218.013 398H218.913V388.604H218.013V398ZM225.083 398.072C227.477 398.072 228.791 397.028 228.791 395.498C228.791 391.916 222.563 393.914 222.563 391.088C222.563 390.08 223.373 389.324 225.209 389.324C226.217 389.324 227.243 389.594 228.035 390.17L228.449 389.45C227.711 388.892 226.415 388.532 225.227 388.532C222.851 388.532 221.663 389.684 221.663 391.106C221.663 394.796 227.891 392.78 227.891 395.516C227.891 396.578 227.099 397.28 225.119 397.28C223.733 397.28 222.455 396.758 221.735 396.146L221.321 396.866C222.059 397.55 223.535 398.072 225.083 398.072ZM164.101 420.072C165.595 420.072 166.891 419.478 167.665 418.344L166.999 417.858C166.315 418.812 165.271 419.262 164.101 419.262C161.887 419.262 160.267 417.678 160.267 415.302C160.267 412.926 161.887 411.342 164.101 411.342C165.271 411.342 166.315 411.792 166.999 412.746L167.665 412.26C166.891 411.108 165.595 410.532 164.101 410.532C161.347 410.532 159.349 412.494 159.349 415.302C159.349 418.092 161.347 420.072 164.101 420.072ZM173.873 420.072C176.573 420.072 178.571 418.092 178.571 415.302C178.571 412.512 176.573 410.532 173.873 410.532C171.173 410.532 169.175 412.512 169.175 415.302C169.175 418.092 171.173 420.072 173.873 420.072ZM173.873 419.262C171.713 419.262 170.093 417.66 170.093 415.302C170.093 412.944 171.713 411.342 173.873 411.342C176.033 411.342 177.653 412.944 177.653 415.302C177.653 417.66 176.033 419.262 173.873 419.262ZM183.739 420.072C186.133 420.072 187.447 419.028 187.447 417.498C187.447 413.916 181.219 415.914 181.219 413.088C181.219 412.08 182.029 411.324 183.865 411.324C184.873 411.324 185.899 411.594 186.691 412.17L187.105 411.45C186.367 410.892 185.071 410.532 183.883 410.532C181.507 410.532 180.319 411.684 180.319 413.106C180.319 416.796 186.547 414.78 186.547 417.516C186.547 418.578 185.755 419.28 183.775 419.28C182.389 419.28 181.111 418.758 180.391 418.146L179.977 418.866C180.715 419.55 182.191 420.072 183.739 420.072ZM194.243 418.776C193.865 419.118 193.343 419.298 192.785 419.298C191.633 419.298 191.039 418.632 191.039 417.426V411.378H194.027V410.604H191.039V408.552H190.139V410.604H188.411V411.378H190.139V417.516C190.139 419.1 191.039 420.072 192.695 420.072C193.397 420.072 194.153 419.856 194.621 419.406L194.243 418.776ZM206.038 418.776C205.66 419.118 205.138 419.298 204.58 419.298C203.428 419.298 202.834 418.632 202.834 417.426V411.378H205.822V410.604H202.834V408.552H201.934V410.604H200.206V411.378H201.934V417.516C201.934 419.1 202.834 420.072 204.49 420.072C205.192 420.072 205.948 419.856 206.416 419.406L206.038 418.776ZM212.264 420.072C214.964 420.072 216.962 418.092 216.962 415.302C216.962 412.512 214.964 410.532 212.264 410.532C209.564 410.532 207.566 412.512 207.566 415.302C207.566 418.092 209.564 420.072 212.264 420.072ZM212.264 419.262C210.104 419.262 208.484 417.66 208.484 415.302C208.484 412.944 210.104 411.342 212.264 411.342C214.424 411.342 216.044 412.944 216.044 415.302C216.044 417.66 214.424 419.262 212.264 419.262ZM231.001 410.604L227.239 419.01L223.477 410.604H222.523L226.753 419.964L226.249 421.098C225.673 422.376 225.043 422.772 224.179 422.772C223.477 422.772 222.919 422.538 222.433 422.034L221.983 422.718C222.523 423.276 223.315 423.564 224.161 423.564C225.403 423.564 226.339 423.006 227.095 421.278L231.919 410.604H231.001ZM237.295 420.072C239.995 420.072 241.993 418.092 241.993 415.302C241.993 412.512 239.995 410.532 237.295 410.532C234.595 410.532 232.597 412.512 232.597 415.302C232.597 418.092 234.595 420.072 237.295 420.072ZM237.295 419.262C235.135 419.262 233.515 417.66 233.515 415.302C233.515 412.944 235.135 411.342 237.295 411.342C239.455 411.342 241.075 412.944 241.075 415.302C241.075 417.66 239.455 419.262 237.295 419.262ZM252.111 410.604V415.608C252.111 417.84 250.797 419.262 248.673 419.262C246.711 419.262 245.577 418.146 245.577 416.022V410.604H244.677V416.094C244.677 418.722 246.207 420.072 248.601 420.072C250.257 420.072 251.535 419.298 252.147 417.984V420H253.011V410.604H252.111ZM265.121 420.072C267.821 420.072 269.819 418.092 269.819 415.302C269.819 412.512 267.821 410.532 265.121 410.532C262.421 410.532 260.423 412.512 260.423 415.302C260.423 418.092 262.421 420.072 265.121 420.072ZM265.121 419.262C262.961 419.262 261.341 417.66 261.341 415.302C261.341 412.944 262.961 411.342 265.121 411.342C267.281 411.342 268.901 412.944 268.901 415.302C268.901 417.66 267.281 419.262 265.121 419.262ZM275.437 407.346C275.995 407.346 276.517 407.526 276.895 407.868L277.255 407.184C276.805 406.77 276.085 406.572 275.401 406.572C273.727 406.572 272.791 407.598 272.791 409.164V410.604H271.063V411.378H272.791V420H273.691V411.378H276.679V410.604H273.673V409.236C273.673 407.994 274.267 407.346 275.437 407.346ZM286.308 410.532C284.85 410.532 283.482 411.036 282.546 411.864L282.996 412.512C283.77 411.81 284.94 411.324 286.236 411.324C288.072 411.324 289.026 412.26 289.026 414.006V414.762H285.804C283.194 414.762 282.294 415.968 282.294 417.39C282.294 418.992 283.572 420.072 285.678 420.072C287.316 420.072 288.468 419.406 289.062 418.326V420H289.926V414.042C289.926 411.72 288.63 410.532 286.308 410.532ZM285.804 419.334C284.148 419.334 283.194 418.578 283.194 417.354C283.194 416.274 283.878 415.464 285.822 415.464H289.026V417.228C288.486 418.578 287.388 419.334 285.804 419.334ZM298.225 410.532C296.443 410.532 295.129 411.324 294.499 412.638V410.604H293.635V420H294.535V414.996C294.535 412.764 295.885 411.342 298.099 411.342C300.007 411.342 301.141 412.458 301.141 414.582V420H302.041V414.51C302.041 411.882 300.511 410.532 298.225 410.532ZM312.194 410.604L308.432 419.01L304.67 410.604H303.716L307.946 419.964L307.442 421.098C306.866 422.376 306.236 422.772 305.372 422.772C304.67 422.772 304.112 422.538 303.626 422.034L303.176 422.718C303.716 423.276 304.508 423.564 305.354 423.564C306.596 423.564 307.532 423.006 308.288 421.278L313.112 410.604H312.194ZM327.047 420H328.163L323.717 414.402L327.767 410.604H326.615L320.603 416.094V406.644H319.703V420H320.603V417.21L323.051 414.978L327.047 420ZM330.577 408.318C330.991 408.318 331.315 407.994 331.315 407.58C331.315 407.184 330.991 406.86 330.577 406.86C330.163 406.86 329.839 407.202 329.839 407.598C329.839 407.994 330.163 408.318 330.577 408.318ZM330.127 420H331.027V410.604H330.127V420ZM339.41 410.532C337.628 410.532 336.314 411.324 335.684 412.638V410.604H334.82V420H335.72V414.996C335.72 412.764 337.07 411.342 339.284 411.342C341.192 411.342 342.326 412.458 342.326 414.582V420H343.226V414.51C343.226 411.882 341.696 410.532 339.41 410.532ZM354.401 406.644V412.782C353.645 411.36 352.241 410.532 350.567 410.532C347.921 410.532 345.923 412.476 345.923 415.302C345.923 418.11 347.921 420.072 350.567 420.072C352.259 420.072 353.681 419.244 354.419 417.786V420H355.301V406.644H354.401ZM350.621 419.262C348.461 419.262 346.841 417.66 346.841 415.302C346.841 412.944 348.461 411.342 350.621 411.342C352.781 411.342 354.401 412.944 354.401 415.302C354.401 417.66 352.781 419.262 350.621 419.262ZM358.988 420.072C359.402 420.072 359.744 419.73 359.744 419.298C359.744 418.866 359.402 418.542 358.988 418.542C358.574 418.542 358.232 418.866 358.232 419.298C358.232 419.73 358.574 420.072 358.988 420.072Z" fill="#626768"/>
<path d="M241.2 388.172C239.886 388.172 238.752 388.622 237.996 389.45V388.316H235.314V398H238.122V393.212C238.122 391.43 239.094 390.602 240.444 390.602C241.686 390.602 242.406 391.322 242.406 392.888V398H245.214V392.456C245.214 389.504 243.486 388.172 241.2 388.172ZM252.472 398.144C255.55 398.144 257.782 396.074 257.782 393.158C257.782 390.242 255.55 388.172 252.472 388.172C249.394 388.172 247.144 390.242 247.144 393.158C247.144 396.074 249.394 398.144 252.472 398.144ZM252.472 395.84C251.068 395.84 249.988 394.832 249.988 393.158C249.988 391.484 251.068 390.476 252.472 390.476C253.876 390.476 254.938 391.484 254.938 393.158C254.938 394.832 253.876 395.84 252.472 395.84ZM269.437 398.144C271.471 398.144 273.073 397.244 273.775 395.696L271.597 394.508C271.075 395.444 270.301 395.84 269.419 395.84C267.997 395.84 266.881 394.85 266.881 393.158C266.881 391.466 267.997 390.476 269.419 390.476C270.301 390.476 271.075 390.89 271.597 391.808L273.775 390.638C273.073 389.054 271.471 388.172 269.437 388.172C266.287 388.172 264.037 390.242 264.037 393.158C264.037 396.074 266.287 398.144 269.437 398.144ZM278.074 389.594V388.316H275.392V398H278.2V393.428C278.2 391.574 279.226 390.728 280.774 390.728C280.99 390.728 281.17 390.746 281.404 390.764V388.172C279.91 388.172 278.758 388.658 278.074 389.594ZM292.471 393.194C292.471 390.08 290.275 388.172 287.431 388.172C284.479 388.172 282.265 390.26 282.265 393.158C282.265 396.038 284.443 398.144 287.791 398.144C289.537 398.144 290.887 397.604 291.787 396.578L290.293 394.958C289.627 395.588 288.889 395.894 287.863 395.894C286.387 395.894 285.361 395.156 285.091 393.95H292.417C292.435 393.716 292.471 393.41 292.471 393.194ZM287.449 390.296C288.709 390.296 289.627 391.088 289.825 392.312H285.055C285.253 391.07 286.171 390.296 287.449 390.296ZM301.397 384.644V389.342C300.695 388.55 299.687 388.172 298.499 388.172C295.763 388.172 293.657 390.116 293.657 393.158C293.657 396.2 295.763 398.144 298.499 398.144C299.795 398.144 300.821 397.73 301.523 396.884V398H304.205V384.644H301.397ZM298.985 395.84C297.581 395.84 296.501 394.832 296.501 393.158C296.501 391.484 297.581 390.476 298.985 390.476C300.371 390.476 301.451 391.484 301.451 393.158C301.451 394.832 300.371 395.84 298.985 395.84ZM308.208 386.966C309.252 386.966 309.954 386.282 309.954 385.346C309.954 384.482 309.252 383.834 308.208 383.834C307.164 383.834 306.462 384.518 306.462 385.4C306.462 386.282 307.164 386.966 308.208 386.966ZM306.804 398H309.612V388.316H306.804V398ZM317.708 395.552C317.402 395.786 316.988 395.912 316.574 395.912C315.818 395.912 315.368 395.462 315.368 394.634V390.692H317.78V388.532H315.368V386.174H312.56V388.532H311.066V390.692H312.56V394.67C312.56 396.974 313.892 398.144 316.178 398.144C317.042 398.144 317.888 397.946 318.464 397.532L317.708 395.552ZM329.818 398.144C331.852 398.144 333.454 397.244 334.156 395.696L331.978 394.508C331.456 395.444 330.682 395.84 329.8 395.84C328.378 395.84 327.262 394.85 327.262 393.158C327.262 391.466 328.378 390.476 329.8 390.476C330.682 390.476 331.456 390.89 331.978 391.808L334.156 390.638C333.454 389.054 331.852 388.172 329.818 388.172C326.668 388.172 324.418 390.242 324.418 393.158C324.418 396.074 326.668 398.144 329.818 398.144ZM341.588 388.172C340.346 388.172 339.266 388.568 338.51 389.324V384.644H335.702V398H338.51V393.212C338.51 391.43 339.482 390.602 340.832 390.602C342.074 390.602 342.794 391.322 342.794 392.888V398H345.602V392.456C345.602 389.504 343.874 388.172 341.588 388.172ZM357.739 393.194C357.739 390.08 355.543 388.172 352.699 388.172C349.747 388.172 347.533 390.26 347.533 393.158C347.533 396.038 349.711 398.144 353.059 398.144C354.805 398.144 356.155 397.604 357.055 396.578L355.561 394.958C354.895 395.588 354.157 395.894 353.131 395.894C351.655 395.894 350.629 395.156 350.359 393.95H357.685C357.703 393.716 357.739 393.41 357.739 393.194ZM352.717 390.296C353.977 390.296 354.895 391.088 355.093 392.312H350.323C350.521 391.07 351.439 390.296 352.717 390.296ZM364.289 398.144C366.323 398.144 367.925 397.244 368.627 395.696L366.449 394.508C365.927 395.444 365.153 395.84 364.271 395.84C362.849 395.84 361.733 394.85 361.733 393.158C361.733 391.466 362.849 390.476 364.271 390.476C365.153 390.476 365.927 390.89 366.449 391.808L368.627 390.638C367.925 389.054 366.323 388.172 364.289 388.172C361.139 388.172 358.889 390.242 358.889 393.158C358.889 396.074 361.139 398.144 364.289 398.144ZM377.391 398H380.793L376.401 392.42L380.433 388.316H377.085L372.981 392.204V384.644H370.173V398H372.981V395.534L374.331 394.202L377.391 398ZM391.761 398.144C394.839 398.144 397.071 396.074 397.071 393.158C397.071 390.242 394.839 388.172 391.761 388.172C388.683 388.172 386.433 390.242 386.433 393.158C386.433 396.074 388.683 398.144 391.761 398.144ZM391.761 395.84C390.357 395.84 389.277 394.832 389.277 393.158C389.277 391.484 390.357 390.476 391.761 390.476C393.165 390.476 394.227 391.484 394.227 393.158C394.227 394.832 393.165 395.84 391.761 395.84ZM401.63 389.594V388.316H398.948V398H401.756V393.428C401.756 391.574 402.782 390.728 404.33 390.728C404.546 390.728 404.726 390.746 404.96 390.764V388.172C403.466 388.172 402.314 388.658 401.63 389.594ZM89.244 410.316V415.104C89.244 416.886 88.308 417.714 87.012 417.714C85.77 417.714 85.05 416.994 85.05 415.374V410.316H82.242V415.788C82.242 418.776 83.952 420.144 86.382 420.144C87.57 420.144 88.65 419.694 89.388 418.848V420H92.052V410.316H89.244ZM100.377 410.172C99.0814 410.172 98.0374 410.586 97.3354 411.432V410.316H94.6534V423.492H97.4614V418.974C98.1814 419.766 99.1714 420.144 100.377 420.144C103.095 420.144 105.201 418.2 105.201 415.158C105.201 412.116 103.095 410.172 100.377 410.172ZM99.8914 417.84C98.4874 417.84 97.4254 416.832 97.4254 415.158C97.4254 413.484 98.4874 412.476 99.8914 412.476C101.295 412.476 102.357 413.484 102.357 415.158C102.357 416.832 101.295 417.84 99.8914 417.84ZM110.159 410.118C110.159 409.164 110.609 408.714 111.437 408.714C111.869 408.714 112.265 408.84 112.571 409.056L113.309 407.022C112.787 406.662 111.959 406.5 111.167 406.5C108.755 406.5 107.423 407.922 107.423 410.1V410.532H105.929V412.692H107.423V420H110.231V412.692H112.643V410.532H110.159V410.118ZM118.166 411.594V410.316H115.484V420H118.292V415.428C118.292 413.574 119.318 412.728 120.866 412.728C121.082 412.728 121.262 412.746 121.496 412.764V410.172C120.002 410.172 118.85 410.658 118.166 411.594ZM127.685 420.144C130.763 420.144 132.995 418.074 132.995 415.158C132.995 412.242 130.763 410.172 127.685 410.172C124.607 410.172 122.357 412.242 122.357 415.158C122.357 418.074 124.607 420.144 127.685 420.144ZM127.685 417.84C126.281 417.84 125.201 416.832 125.201 415.158C125.201 413.484 126.281 412.476 127.685 412.476C129.089 412.476 130.151 413.484 130.151 415.158C130.151 416.832 129.089 417.84 127.685 417.84ZM140.758 410.172C139.444 410.172 138.31 410.622 137.554 411.45V410.316H134.872V420H137.68V415.212C137.68 413.43 138.652 412.602 140.002 412.602C141.244 412.602 141.964 413.322 141.964 414.888V420H144.772V414.456C144.772 411.504 143.044 410.172 140.758 410.172ZM152.807 417.552C152.501 417.786 152.087 417.912 151.673 417.912C150.917 417.912 150.467 417.462 150.467 416.634V412.692H152.879V410.532H150.467V408.174H147.659V410.532H146.165V412.692H147.659V416.67C147.659 418.974 148.991 420.144 151.277 420.144C152.141 420.144 152.987 419.946 153.563 419.532L152.807 417.552Z" fill="#08122A"/>
<path d="M160.828 177.015V74.985C160.828 73.8887 159.939 73 158.843 73H86.9849C85.8886 73 84.9999 73.8887 84.9999 74.985V177.015C84.9999 178.111 85.8886 179 86.9849 179H158.843C159.939 179 160.828 178.111 160.828 177.015Z" stroke="#CECECE" stroke-width="0.794007" stroke-linecap="round" stroke-linejoin="round"/>
<path d="M85.1925 88.2775H160.553" stroke="#CECECE" stroke-width="0.794007" stroke-linecap="round" stroke-linejoin="round"/>
<path d="M85.1925 149.416H160.553" stroke="#CECECE" stroke-width="0.794007" stroke-linecap="round" stroke-linejoin="round"/>
<path d="M91.3521 158.753H154.476" stroke="#CECECE" stroke-width="0.794007" stroke-linecap="round" stroke-linejoin="round"/>
<path d="M91.3521 162.723H150.506" stroke="#CECECE" stroke-width="0.794007" stroke-linecap="round" stroke-linejoin="round"/>
<path d="M91.3521 166.693H150.506" stroke="#CECECE" stroke-width="0.794007" stroke-linecap="round" stroke-linejoin="round"/>
<path d="M91.3521 96.8202H154.476" stroke="#CECECE" stroke-width="0.794007" stroke-linecap="round" stroke-linejoin="round"/>
<path d="M91.3521 100.79H150.506" stroke="#CECECE" stroke-width="0.794007" stroke-linecap="round" stroke-linejoin="round"/>
<path d="M91.3521 104.76H150.506" stroke="#CECECE" stroke-width="0.794007" stroke-linecap="round" stroke-linejoin="round"/>
<path d="M118.745 82.3296H91.352C90.9835 82.3296 90.6301 82.1832 90.3695 81.9226C90.1089 81.662 89.9625 81.3086 89.9625 80.9401C89.9625 80.5715 90.1089 80.2181 90.3695 79.9575C90.6301 79.6969 90.9835 79.5505 91.352 79.5505H118.745C119.114 79.5505 119.467 79.6969 119.728 79.9575C119.988 80.2181 120.135 80.5715 120.135 80.9401C120.135 81.3086 119.988 81.662 119.728 81.9226C119.467 82.1832 119.114 82.3296 118.745 82.3296Z" fill="#0088C8"/>
<path d="M121.723 121.831H116.165V138.109H121.723V121.831Z" fill="#45AC66"/>
<path d="M113.783 125.802H108.225V138.109H113.783V125.802Z" fill="#45AC66"/>
<path d="M105.843 121.831H100.285V138.109H105.843V121.831Z" fill="#45AC66"/>
<path d="M97.9028 125.802H92.3447V138.109H97.9028V125.802Z" fill="#45AC66"/>
<path d="M129.663 117.861H124.105V138.109H129.663V117.861Z" fill="#45AC66"/>
<path d="M137.603 113.891H132.045V138.109H137.603V113.891Z" fill="#45AC66"/>
<path d="M145.543 117.861H139.985V138.109H145.543V117.861Z" fill="#45AC66"/>
<path d="M153.483 113.891H147.925V138.109H153.483V113.891Z" fill="#45AC66"/>
<defs>
<filter id="filter0_d" x="0" y="0" width="530" height="560" filterUnits="userSpaceOnUse" color-interpolation-filters="sRGB">
<feFlood flood-opacity="0" result="BackgroundImageFix"/>
<feColorMatrix in="SourceAlpha" type="matrix" values="0 0 0 0 0 0 0 0 0 0 0 0 0 0 0 0 0 0 127 0" result="hardAlpha"/>
<feOffset dy="4"/>
<feGaussianBlur stdDeviation="20"/>
<feColorMatrix type="matrix" values="0 0 0 0 0.639167 0 0 0 0 0.668667 0 0 0 0 0.7375 0 0 0 0.1 0"/>
<feBlend mode="normal" in2="BackgroundImageFix" result="effect1_dropShadow"/>
<feBlend mode="normal" in="SourceGraphic" in2="effect1_dropShadow" result="shape"/>
</filter>
</defs>
</svg>
