<svg width="62" height="107" viewBox="0 0 62 107" fill="none" xmlns="http://www.w3.org/2000/svg">
<path d="M10.9082 29.1249V36.9097C10.9082 44.6945 1.17725 44.6945 1.17725 54.4255V91.9425C1.17725 95.6708 2.6583 99.2464 5.29459 101.883C7.93088 104.519 11.5065 106 15.2347 106H47.4522C51.1805 106 54.7561 104.519 57.3924 101.883C60.0286 99.2464 61.5097 95.6708 61.5097 91.9425V54.4255C61.5097 44.6945 51.7784 44.6945 51.7784 36.9097V29.1249" stroke="#CECECE" stroke-width="0.644839" stroke-linecap="round" stroke-linejoin="round"/>
<path d="M31.4093 27.6953C32.7161 27.8423 42.6904 25.9406 49.9304 18.702C57.5536 11.0777 59.2567 0.420816 58.884 0.047777C58.5112 -0.325262 47.854 1.37808 40.2294 9.00234C32.6048 16.6266 31.34 27.6888 31.4093 27.6956V43.6096" fill="#45AC66"/>
<path d="M45.9401 86.5374V93.3491C45.9401 94.9612 39.4047 96.2683 31.3435 96.2683C23.2824 96.2683 16.7469 94.9615 16.7469 93.3491V86.5374" fill="white"/>
<path d="M45.9401 86.5374V93.3491C45.9401 94.9612 39.4047 96.2683 31.3435 96.2683C23.2824 96.2683 16.7469 94.9615 16.7469 93.3491V86.5374" stroke="#10192E" stroke-width="0.644839" stroke-linecap="round" stroke-linejoin="round"/>
<path d="M31.3436 89.4565C39.4051 89.4565 45.9402 88.1496 45.9402 86.5374C45.9402 84.9251 39.4051 83.6182 31.3436 83.6182C23.2822 83.6182 16.7471 84.9251 16.7471 86.5374C16.7471 88.1496 23.2822 89.4565 31.3436 89.4565Z" fill="white" stroke="#10192E" stroke-width="0.644839" stroke-linecap="round" stroke-linejoin="round"/>
<path d="M45.9401 74.8606V81.6724C45.9401 83.2845 39.4047 84.5915 31.3435 84.5915C23.2824 84.5915 16.7469 83.2848 16.7469 81.6724V74.8606" fill="white"/>
<path d="M45.9401 74.8606V81.6724C45.9401 83.2845 39.4047 84.5915 31.3435 84.5915C23.2824 84.5915 16.7469 83.2848 16.7469 81.6724V74.8606" stroke="#10192E" stroke-width="0.644839" stroke-linecap="round" stroke-linejoin="round"/>
<path d="M31.3436 77.7798C39.4051 77.7798 45.9402 76.4728 45.9402 74.8606C45.9402 73.2484 39.4051 71.9414 31.3436 71.9414C23.2822 71.9414 16.7471 73.2484 16.7471 74.8606C16.7471 76.4728 23.2822 77.7798 31.3436 77.7798Z" fill="white" stroke="#10192E" stroke-width="0.644839" stroke-linecap="round" stroke-linejoin="round"/>
<path d="M45.8465 63.1829V69.9946C45.8465 71.6067 39.311 72.9138 31.2499 72.9138C23.1888 72.9138 16.6533 71.607 16.6533 69.9946V63.1829" fill="white"/>
<path d="M45.8465 63.1829V69.9946C45.8465 71.6067 39.311 72.9138 31.2499 72.9138C23.1888 72.9138 16.6533 71.607 16.6533 69.9946V63.1829" stroke="#10192E" stroke-width="0.644839" stroke-linecap="round" stroke-linejoin="round"/>
<path d="M31.2499 66.102C39.3114 66.102 45.8465 64.7951 45.8465 63.1829C45.8465 61.5706 39.3114 60.2637 31.2499 60.2637C23.1884 60.2637 16.6533 61.5706 16.6533 63.1829C16.6533 64.7951 23.1884 66.102 31.2499 66.102Z" fill="white" stroke="#10192E" stroke-width="0.644839" stroke-linecap="round" stroke-linejoin="round"/>
<path d="M26.6879 26.3217C25.7977 26.4217 19.0033 25.1265 14.0716 20.1957C8.8787 15.0022 7.71993 7.74293 7.97238 7.48854C8.22484 7.23415 15.4848 8.39454 20.6796 13.5884C25.8744 18.7823 26.7349 26.3175 26.6879 26.322" stroke="#10192E" stroke-width="0.644839" stroke-linecap="round" stroke-linejoin="round"/>
<path d="M36.9655 33.531H26.0032C24.2226 33.531 22.7791 34.9745 22.7791 36.7552V49.652C22.7791 51.4327 24.2226 52.8762 26.0032 52.8762H36.9655C38.7462 52.8762 40.1897 51.4327 40.1897 49.652V36.7552C40.1897 34.9745 38.7462 33.531 36.9655 33.531Z" fill="white"/>
<path d="M36.9658 33.8535H26.0036C24.401 33.8535 23.1018 35.1527 23.1018 36.7553V49.6521C23.1018 51.2547 24.401 52.5539 26.0036 52.5539H36.9658C38.5685 52.5539 39.8676 51.2547 39.8676 49.6521V36.7553C39.8676 35.1527 38.5685 33.8535 36.9658 33.8535Z" stroke="#10192E" stroke-width="0.644839"/>
<path d="M22.9406 40.4631H40.0288" stroke="#10192E" stroke-width="0.644839"/>
<path d="M29.3975 42V43.3031H31.1668V50.3683H32.7209V42H29.3975Z" fill="#08122A"/>
<path d="M26.0002 38.9122H27.6294C28.8027 38.9122 29.607 38.2052 29.607 37.1191C29.607 36.0329 28.8027 35.3259 27.6294 35.3259H26.0002V38.9122ZM26.8302 38.2308V36.0073H27.5885C28.3006 36.0073 28.7668 36.4326 28.7668 37.1191C28.7668 37.8056 28.3006 38.2308 27.5885 38.2308H26.8302Z" fill="#08122A"/>
<path d="M32.8624 38.9122H33.7334L32.1298 35.3259H31.31L29.7116 38.9122H30.562L30.8797 38.1437H32.5448L32.8624 38.9122ZM31.1461 37.5136L31.7148 36.1405L32.2835 37.5136H31.1461Z" fill="#08122A"/>
<path d="M37.0002 35.3259H36.1856L35.2276 36.9193L34.2695 35.3259H33.3883L34.7767 37.6314V38.9122H35.6067V37.6416L37.0002 35.3259Z" fill="#08122A"/>
</svg>
