<svg width="78" height="108" viewBox="0 0 78 108" fill="none" xmlns="http://www.w3.org/2000/svg">
<path d="M76.8276 105.015V2.98502C76.8276 1.88872 75.9389 1 74.8426 1L2.98494 1C1.88865 1 0.999924 1.88872 0.999924 2.98502V105.015C0.999924 106.111 1.88865 107 2.98494 107H74.8426C75.9389 107 76.8276 106.111 76.8276 105.015Z" stroke="#CECECE" stroke-width="0.794007" stroke-linecap="round" stroke-linejoin="round"/>
<path d="M1.1925 16.2775H76.553" stroke="#CECECE" stroke-width="0.794007" stroke-linecap="round" stroke-linejoin="round"/>
<path d="M1.1925 77.416H76.553" stroke="#CECECE" stroke-width="0.794007" stroke-linecap="round" stroke-linejoin="round"/>
<path d="M7.35205 86.7528H70.4756" stroke="#CECECE" stroke-width="0.794007" stroke-linecap="round" stroke-linejoin="round"/>
<path d="M7.35205 90.7229H66.5056" stroke="#CECECE" stroke-width="0.794007" stroke-linecap="round" stroke-linejoin="round"/>
<path d="M7.35205 94.6929H66.5056" stroke="#CECECE" stroke-width="0.794007" stroke-linecap="round" stroke-linejoin="round"/>
<path d="M7.35205 24.8202H70.4756" stroke="#CECECE" stroke-width="0.794007" stroke-linecap="round" stroke-linejoin="round"/>
<path d="M7.35205 28.7903H66.5056" stroke="#CECECE" stroke-width="0.794007" stroke-linecap="round" stroke-linejoin="round"/>
<path d="M7.35205 32.7603H66.5056" stroke="#CECECE" stroke-width="0.794007" stroke-linecap="round" stroke-linejoin="round"/>
<path d="M34.7453 10.3296H7.35204C6.98352 10.3296 6.63009 10.1832 6.3695 9.92258C6.10892 9.662 5.96252 9.30857 5.96252 8.94005C5.96252 8.57153 6.10892 8.2181 6.3695 7.95752C6.63009 7.69693 6.98352 7.55054 7.35204 7.55054H34.7453C35.1138 7.55054 35.4672 7.69693 35.7278 7.95752C35.9884 8.2181 36.1348 8.57153 36.1348 8.94005C36.1348 9.30857 35.9884 9.662 35.7278 9.92258C35.4672 10.1832 35.1138 10.3296 34.7453 10.3296Z" fill="#0088C8"/>
<path d="M37.7228 49.8314H32.1648V66.1086H37.7228V49.8314Z" fill="#45AC66"/>
<path d="M29.7829 53.8015H24.2249V66.1086H29.7829V53.8015Z" fill="#45AC66"/>
<path d="M21.8427 49.8314H16.2847V66.1086H21.8427V49.8314Z" fill="#45AC66"/>
<path d="M13.9028 53.8015H8.34473V66.1086H13.9028V53.8015Z" fill="#45AC66"/>
<path d="M45.663 45.8615H40.105V66.1086H45.663V45.8615Z" fill="#45AC66"/>
<path d="M53.6031 41.8914H48.045V66.1086H53.6031V41.8914Z" fill="#45AC66"/>
<path d="M61.5432 45.8615H55.9851V66.1086H61.5432V45.8615Z" fill="#45AC66"/>
<path d="M69.4832 41.8914H63.9252V66.1086H69.4832V41.8914Z" fill="#45AC66"/>
</svg>
