<svg width="210" height="49" viewBox="0 0 210 49" fill="none" xmlns="http://www.w3.org/2000/svg">
<path d="M69.948 6.10188C71.0403 6.10166 72.1288 6.22861 73.1918 6.48019C74.2352 6.75088 75.2368 7.16278 76.1691 7.7045C77.1423 8.28607 77.9526 9.10511 78.5242 10.0852C79.1706 11.1847 79.5582 12.4174 79.6574 13.6896H75.4582C75.0359 11.042 73.281 9.70687 70.2151 9.70687C68.9904 9.6452 67.7776 9.97233 66.7495 10.6416C66.3362 10.9242 66.0012 11.3072 65.7759 11.7547C65.5505 12.2022 65.4422 12.6996 65.461 13.2004C65.4432 13.5914 65.5186 13.9809 65.6809 14.3368C65.8432 14.6928 66.0878 15.0049 66.3943 15.2475C67.2724 15.8503 68.2755 16.2458 69.3282 16.4045L72.3495 17.005C74.7944 17.4947 76.5927 18.2734 77.7705 19.319C78.3597 19.8572 78.8226 20.5195 79.126 21.2581C79.4294 21.9968 79.5658 22.7935 79.5253 23.5912C79.5521 24.6331 79.335 25.6668 78.8914 26.6095C78.4477 27.5523 77.7898 28.378 76.9704 29.0204C75.3042 30.3776 73.0824 31.0675 70.2836 31.0675C67.3063 31.0675 64.9048 30.3329 63.0858 28.8423C62.177 28.0977 61.4346 27.1703 60.9064 26.1201C60.3783 25.0699 60.0762 23.9203 60.0198 22.7458H64.1964C64.2826 23.4093 64.5041 24.0479 64.8472 24.6219C65.1903 25.196 65.6477 25.6932 66.1908 26.0827C67.4654 26.9477 68.985 27.3772 70.5232 27.307C71.7258 27.374 72.9202 27.0711 73.9461 26.439C74.3396 26.182 74.6606 25.8281 74.8784 25.4113C75.0962 24.9944 75.2035 24.5286 75.1899 24.0583C75.1899 22.523 74.0127 21.5441 71.6796 21.0991L67.7476 20.3204C63.26 19.4304 60.9935 17.1611 60.9935 13.5341C60.9571 12.5102 61.1567 11.4917 61.5766 10.5575C61.9966 9.62335 62.6257 8.79856 63.4152 8.14709C65.2893 6.72578 67.5993 6.00262 69.948 6.10188Z" fill="white"/>
<path d="M87.4101 9.79684C89.1517 8.05874 91.3677 6.87535 93.7793 6.39557C96.1908 5.9158 98.6902 6.16108 100.963 7.10055C103.236 8.04001 105.18 9.6317 106.552 11.6753C107.923 13.719 108.661 16.1232 108.671 18.5856C108.671 20.6332 108.167 22.6492 107.203 24.4552C106.24 26.2613 104.847 27.8017 103.148 28.9403C101.449 30.0788 99.4954 30.7804 97.4609 30.983C95.4264 31.1855 93.3735 30.8828 91.4836 30.1016C89.5938 29.3204 87.9253 28.0848 86.6258 26.504C85.3263 24.9233 84.4357 23.0461 84.033 21.0386C83.6303 19.0312 83.7277 16.9552 84.3168 14.9944C84.9058 13.0337 85.9683 11.2485 87.4101 9.79684ZM96.2302 27.1074C97.3226 27.1293 98.4074 26.9207 99.414 26.4951C100.421 26.0696 101.327 25.4366 102.073 24.6374C103.587 22.9912 104.428 20.8349 104.428 18.5966C104.428 16.3584 103.587 14.202 102.073 12.5558C101.321 11.7682 100.418 11.1413 99.4173 10.7129C98.4169 10.2846 97.3402 10.0638 96.2522 10.0638C95.1642 10.0638 94.0875 10.2846 93.087 10.7129C92.0866 11.1413 91.1833 11.7682 90.4315 12.5558C89.6584 13.3536 89.052 14.2978 88.6476 15.3332C88.2432 16.3685 88.049 17.4742 88.0764 18.5856C88.0469 19.7005 88.2401 20.8102 88.6445 21.8494C89.0489 22.8886 89.6564 23.8364 90.4315 24.6374C91.1705 25.4337 92.0688 26.0651 93.0679 26.4904C94.0669 26.9157 95.1442 27.1253 96.2296 27.1056L96.2302 27.1074Z" fill="white"/>
<path d="M134.507 6.61365V19.9195C134.507 23.3237 133.529 26.0411 131.596 28.041C129.641 30.066 127.109 31.0669 123.932 31.0669C120.755 31.0669 118.178 30.0654 116.245 28.041C114.334 26.0386 113.357 23.3463 113.357 19.9195V6.61365H117.578V19.9195C117.498 21.8128 118.124 23.6682 119.333 25.1259C119.921 25.7578 120.633 26.2617 121.424 26.6062C122.215 26.9507 123.069 27.1285 123.932 27.1285C124.794 27.1285 125.648 26.9507 126.439 26.6062C127.23 26.2617 127.942 25.7578 128.531 25.1259C129.74 23.6682 130.365 21.8128 130.285 19.9195V6.61365H134.507Z" fill="white"/>
<path d="M149.128 22.6785H144.418V30.5545H140.197V6.61365H149.994C152.727 6.61365 154.971 7.34823 156.681 8.83884C157.527 9.54428 158.202 10.4343 158.652 11.4409C159.103 12.4475 159.318 13.5439 159.28 14.6464C159.313 16.3018 158.797 17.9215 157.813 19.2522C156.799 20.5902 155.393 21.5779 153.792 22.078L160.723 30.5551H155.589L149.128 22.6785ZM144.418 18.7607H149.861C151.218 18.8214 152.557 18.4215 153.659 17.6257C154.125 17.2835 154.502 16.8338 154.757 16.3147C155.013 15.7956 155.139 15.2225 155.126 14.6439C155.144 14.0646 155.02 13.4898 154.764 12.9699C154.508 12.45 154.129 12.0009 153.659 11.6621C152.557 10.8663 151.218 10.4665 149.861 10.5272H144.418V18.7607Z" fill="white"/>
<path d="M175.653 26.9948C177.341 27.0587 178.999 26.5316 180.341 25.5042C181.648 24.4144 182.555 22.9189 182.918 21.2546H187.272C186.819 24.032 185.403 26.5608 183.273 28.3966C181.138 30.1763 178.43 31.1173 175.653 31.0442C174.013 31.0759 172.383 30.7771 170.861 30.1655C169.338 29.5539 167.954 28.642 166.79 27.4839C165.614 26.327 164.69 24.9394 164.074 23.4079C163.458 21.8764 163.165 20.2341 163.212 18.5838C163.163 16.9334 163.456 15.2908 164.072 13.7591C164.687 12.2275 165.612 10.8399 166.789 9.68361C167.956 8.52975 169.341 7.62054 170.862 7.00921C172.384 6.39788 174.013 6.0967 175.652 6.12331C178.432 6.0551 181.141 7.00448 183.272 8.79354C185.397 10.6243 186.812 13.1442 187.271 15.9135H182.918C182.55 14.2515 181.644 12.7576 180.341 11.6639C178.999 10.6365 177.342 10.1095 175.654 10.1733C174.57 10.1423 173.492 10.3358 172.487 10.7417C171.481 11.1475 170.57 11.757 169.811 12.532C169.04 13.3337 168.438 14.2827 168.041 15.3224C167.644 16.3622 167.46 17.4713 167.501 18.5838C167.465 19.6956 167.652 20.8033 168.048 21.8423C168.445 22.8813 169.044 23.8309 169.811 24.6355C170.57 25.4105 171.481 26.0201 172.486 26.4261C173.492 26.8321 174.57 27.0257 175.653 26.9948Z" fill="white"/>
<path d="M196.848 10.5315V16.8061H208.578V20.7239H196.848V26.6618H210V30.5796H192.649V6.61365H210V10.5315H196.848Z" fill="white"/>
<path d="M60.6837 36.8958H63.2386C63.9467 36.8694 64.6407 37.0984 65.1946 37.541C65.433 37.7518 65.6223 38.0126 65.749 38.3047C65.8758 38.5969 65.9369 38.9134 65.928 39.2318C65.941 39.568 65.8778 39.9029 65.7432 40.2112C65.6085 40.5195 65.4059 40.7932 65.1506 41.0119C64.5674 41.4815 63.8318 41.7191 63.0846 41.6792H61.9062V43.6595H60.7063V36.8958H60.6837ZM61.8836 40.6116H63.194C63.5981 40.627 63.9937 40.4923 64.3046 40.2333C64.4445 40.1127 64.5553 39.9619 64.6284 39.7923C64.7016 39.6226 64.7353 39.4385 64.727 39.2538C64.7348 39.0821 64.7004 38.9112 64.6268 38.756C64.5531 38.6008 64.4425 38.4661 64.3046 38.3637C63.9834 38.1287 63.5914 38.011 63.194 38.0301H61.8836V40.6116Z" fill="white"/>
<path d="M72.547 37.7859C72.8726 37.4499 73.2631 37.1839 73.6947 37.0042C74.1263 36.8244 74.59 36.7346 75.0574 36.7403C75.5215 36.7347 75.9818 36.8246 76.4099 37.0045C76.8379 37.1843 77.2245 37.4503 77.5457 37.7859C77.8764 38.1131 78.1391 38.5029 78.3183 38.9326C78.4975 39.3623 78.5898 39.8233 78.5898 40.289C78.5898 40.7547 78.4975 41.2157 78.3183 41.6454C78.1391 42.075 77.8764 42.4648 77.5457 42.7921C77.2233 43.1247 76.836 43.3872 76.4079 43.5633C75.9798 43.7394 75.5201 43.8253 75.0574 43.8156C74.5914 43.8254 74.1283 43.7396 73.6966 43.5636C73.2649 43.3876 72.8737 43.125 72.547 42.7921C72.2129 42.4662 71.9497 42.0746 71.7738 41.642C71.5979 41.2093 71.5132 40.7449 71.5251 40.278C71.5226 39.8156 71.6117 39.3572 71.7871 38.9295C71.9625 38.5018 72.2208 38.1131 72.547 37.7859ZM75.0574 42.7033C75.368 42.713 75.6772 42.6565 75.9644 42.5375C76.2517 42.4186 76.5104 42.24 76.7236 42.0134C77.1526 41.546 77.3908 40.9343 77.3908 40.2994C77.3908 39.6645 77.1526 39.0527 76.7236 38.5854C76.5103 38.3604 76.2536 38.1813 75.9691 38.0589C75.6845 37.9365 75.3781 37.8733 75.0684 37.8733C74.7587 37.8733 74.4522 37.9365 74.1677 38.0589C73.8831 38.1813 73.6264 38.3604 73.4132 38.5854C72.973 39.0457 72.7334 39.6622 72.7469 40.2994C72.7382 40.6152 72.7926 40.9295 72.907 41.2239C73.0215 41.5182 73.1935 41.7867 73.4132 42.0134C73.6233 42.2379 73.8783 42.4154 74.1617 42.5343C74.445 42.6532 74.7503 42.7108 75.0574 42.7033Z" fill="white"/>
<path d="M93.9852 36.8958L91.7194 43.7269H90.5623L88.9408 39.0543L87.3412 43.7269H86.164L83.9 36.8958H85.1664L86.766 41.8573L88.4542 36.8958H89.4542L91.1424 41.8573L92.742 36.8958H93.9852Z" fill="white"/>
<path d="M101.073 38.0081V39.7882H104.405V40.9005H101.073V42.5889H104.805V43.7012H99.8732V36.8958H104.805V38.0081H101.073Z" fill="white"/>
<path d="M113.359 41.457H112.026V43.7042H110.826V36.8958H113.603C114.288 36.8583 114.962 37.0808 115.491 37.519C115.728 37.7208 115.918 37.9736 116.045 38.2586C116.172 38.5437 116.233 38.8537 116.224 39.1657C116.234 39.6382 116.086 40.1005 115.802 40.4781C115.515 40.8549 115.119 41.1344 114.669 41.2788L116.646 43.6815H115.179L113.359 41.457ZM112.026 40.3447H113.581C113.967 40.3569 114.348 40.248 114.669 40.0331C114.8 39.9347 114.907 39.807 114.98 39.6603C115.053 39.5136 115.091 39.3518 115.091 39.1877C115.091 39.0236 115.053 38.8618 114.98 38.7151C114.907 38.5684 114.8 38.4407 114.669 38.3423C114.352 38.1178 113.968 38.0079 113.581 38.0307H112.026V40.3447Z" fill="white"/>
<path d="M132.931 42.6807C133.412 42.7014 133.884 42.5516 134.265 42.2577C134.633 41.9477 134.891 41.5258 134.998 41.056H136.242C136.125 41.8449 135.724 42.5637 135.114 43.0762C134.504 43.5887 133.727 43.8594 132.931 43.837C132.468 43.8457 132.007 43.7615 131.576 43.5896C131.145 43.4176 130.752 43.1613 130.421 42.8355C129.766 42.1543 129.399 41.2451 129.399 40.2991C129.399 39.353 129.766 38.4438 130.421 37.7626C130.752 37.4371 131.145 37.181 131.576 37.0092C132.007 36.8375 132.468 36.7535 132.931 36.7623C133.725 36.7397 134.5 37.0088 135.109 37.5189C135.715 38.0376 136.116 38.7555 136.242 39.544H134.998C134.891 39.0742 134.633 38.6523 134.265 38.3423C133.884 38.0483 133.412 37.8985 132.931 37.9193C132.623 37.9108 132.316 37.9656 132.029 38.0803C131.743 38.1951 131.483 38.3674 131.265 38.5866C130.836 39.0539 130.598 39.6657 130.598 40.3006C130.598 40.9355 130.836 41.5472 131.265 42.0146C131.483 42.2336 131.743 42.4057 132.03 42.5202C132.316 42.6347 132.623 42.6893 132.931 42.6807Z" fill="white"/>
<path d="M143.173 37.7859C143.499 37.4499 143.889 37.1839 144.321 37.0041C144.752 36.8244 145.216 36.7346 145.684 36.7403C146.148 36.7347 146.608 36.8246 147.036 37.0044C147.464 37.1843 147.851 37.4503 148.172 37.7859C148.503 38.1132 148.765 38.5029 148.944 38.9326C149.124 39.3623 149.216 39.8233 149.216 40.289C149.216 40.7547 149.124 41.2157 148.944 41.6454C148.765 42.075 148.503 42.4648 148.172 42.7921C147.849 43.1247 147.462 43.3872 147.034 43.5633C146.606 43.7394 146.146 43.8253 145.684 43.8156C145.218 43.8254 144.754 43.7396 144.323 43.5636C143.891 43.3876 143.5 43.1251 143.173 42.7921C142.518 42.1241 142.151 41.2252 142.151 40.289C142.151 39.3527 142.518 38.4539 143.173 37.7859ZM145.684 42.7033C145.994 42.713 146.303 42.6565 146.591 42.5375C146.878 42.4186 147.137 42.24 147.35 42.0134C147.779 41.5461 148.017 40.9343 148.017 40.2994C148.017 39.6645 147.779 39.0527 147.35 38.5854C147.137 38.3604 146.88 38.1813 146.595 38.0589C146.311 37.9365 146.004 37.8734 145.695 37.8734C145.385 37.8734 145.078 37.9365 144.794 38.0589C144.509 38.1813 144.253 38.3604 144.039 38.5854C143.599 39.0456 143.359 39.6622 143.373 40.2994C143.364 40.6152 143.419 40.9295 143.533 41.2239C143.648 41.5183 143.82 41.7867 144.039 42.0134C144.248 42.2396 144.503 42.4182 144.787 42.5372C145.07 42.6563 145.376 42.7129 145.684 42.7033Z" fill="white"/>
<path d="M162.257 36.8958V43.7042H161.057V39.5654L159.168 42.614H158.435L156.502 39.5214L156.524 43.7042H155.326V36.8958H156.192L158.814 41.1234L161.438 36.8958H162.257Z" fill="white"/>
<path d="M168.567 36.8958H171.122C171.83 36.8694 172.524 37.0984 173.078 37.541C173.316 37.7518 173.505 38.0126 173.632 38.3047C173.759 38.5969 173.82 38.9134 173.811 39.2318C173.824 39.568 173.761 39.9029 173.626 40.2112C173.492 40.5195 173.289 40.7932 173.034 41.0119C172.45 41.4814 171.715 41.719 170.968 41.6792H169.789V43.6595H168.589V36.8958H168.567ZM169.767 40.6116H171.077C171.481 40.627 171.877 40.4923 172.188 40.2333C172.328 40.1128 172.438 39.962 172.511 39.7923C172.585 39.6226 172.618 39.4385 172.61 39.2538C172.618 39.0821 172.583 38.9112 172.51 38.7559C172.436 38.6007 172.325 38.466 172.188 38.3637C171.866 38.1287 171.474 38.011 171.077 38.0301H169.767V40.6116Z" fill="white"/>
<path d="M183.363 42.1916H180.119L179.497 43.7048H178.208L181.185 36.8738H182.296L185.25 43.7048H183.984L183.363 42.1916ZM182.896 41.0793L181.719 38.3203L180.564 41.0793H182.896Z" fill="white"/>
<path d="M197.026 36.8958V43.7042H196.093L192.227 39.121V43.7042H191.027V36.8958H191.938L195.85 41.5904V36.8958H197.026Z" fill="white"/>
<path d="M209.353 36.8958L206.643 41.4123V43.7042H205.421V41.4123L202.691 36.8958H204.024L206.023 40.2333L208.023 36.8958H209.353Z" fill="white"/>
<path d="M13.0066 41.7018C11.94 42.9702 11.1405 43.9937 10.6075 44.6836C13.1924 46.4686 16.0965 47.7377 19.1611 48.4215L13.6955 41.7018C13.5825 41.7474 13.4616 41.7701 13.3397 41.7686L13.0066 41.7018Z" fill="url(#paint0_linear)"/>
<path d="M32.8043 44.1939L21.8486 32.9798C21.7022 33.0454 21.5425 33.0758 21.3823 33.0686C21.2224 33.0715 21.0636 33.0413 20.9159 32.9798C18.339 35.5833 16.1618 38.0081 14.4289 40.0111C14.5171 40.1751 14.5629 40.3586 14.5622 40.5449C14.5553 40.7471 14.5022 40.945 14.4069 41.1233L20.5608 48.6884C21.8467 48.8933 23.1467 48.9975 24.4488 49C26.288 48.9981 28.1212 48.7891 29.9138 48.3768C30.8025 47.3753 31.7579 46.3077 32.7798 45.1936C32.709 45.0321 32.6712 44.8581 32.6686 44.6818C32.6902 44.5135 32.7359 44.3492 32.8043 44.1939Z" fill="url(#paint1_linear)"/>
<path d="M30.6668 22.7893C33.1117 20.7869 35.6875 18.8066 38.4423 16.9376C38.4423 16.8709 38.4203 16.8042 38.4203 16.7375C38.4165 16.6552 38.4239 16.5729 38.4423 16.4926L32.1338 12.2424C28.8678 13.6604 25.7377 15.3734 22.782 17.36L29.5134 22.7893C29.6916 22.6938 29.8892 22.6406 30.0911 22.6338C30.2927 22.638 30.4904 22.6914 30.6668 22.7893Z" fill="url(#paint2_linear)"/>
<path d="M40.2882 15.7133C42.043 14.5564 43.8651 13.4441 45.7312 12.3979C44.9905 11.088 44.1277 9.85119 43.1542 8.70413C39.7349 9.43903 36.3889 10.4819 33.157 11.82L38.9777 15.7378C39.1815 15.6021 39.4219 15.5322 39.6666 15.5376C39.8866 15.5332 40.1029 15.5944 40.2882 15.7133Z" fill="url(#paint3_linear)"/>
<path d="M21.8712 30.7326C24.0038 28.6408 26.3809 26.4383 28.9584 24.2358C28.913 24.1073 28.8904 23.9717 28.8918 23.8354C28.8957 23.723 28.9107 23.6113 28.9364 23.5018L22.0051 17.9171C19.3403 19.7818 16.829 21.8576 14.4955 24.1244L20.9385 30.7106C21.0849 30.645 21.2446 30.6146 21.4049 30.6218C21.5662 30.6268 21.7249 30.6645 21.8712 30.7326Z" fill="url(#paint4_linear)"/>
<path d="M13.7401 39.3879C15.4729 37.3629 17.6721 34.9602 20.2497 32.3346C20.1862 32.1794 20.156 32.0126 20.161 31.8449C20.1636 31.6757 20.2015 31.5089 20.2723 31.3552L13.8513 24.7696C11.4906 27.149 9.33524 29.7244 7.40839 32.4681L13.0066 39.3659C13.1196 39.3203 13.2405 39.2976 13.3624 39.2991C13.491 39.3156 13.6176 39.3454 13.7401 39.3879Z" fill="url(#paint5_linear)"/>
<path d="M12.2958 39.9658L6.85277 33.2688C5.82427 34.7686 4.87515 36.3215 4.00934 37.9211C5.58203 40.3147 7.55919 42.4154 9.85207 44.129C10.3851 43.4391 11.2072 42.3936 12.297 41.1031C12.199 40.9258 12.1457 40.7273 12.1417 40.5246C12.1448 40.3283 12.1979 40.1359 12.2958 39.9658Z" fill="url(#paint6_linear)"/>
<path d="M40.8218 16.9817L48.8197 22.3442C48.5376 19.1504 47.6318 16.0432 46.1535 13.1992C44.3321 14.2227 42.5546 15.313 40.8218 16.4479C40.8491 16.5419 40.8641 16.639 40.8664 16.7368C40.8644 16.8203 40.8493 16.9029 40.8218 16.9817Z" fill="url(#paint7_linear)"/>
<path d="M48.9083 24.5021C48.9083 24.1685 48.9083 23.8348 48.8863 23.5006L40.3108 17.7378C40.107 17.8735 39.8666 17.9433 39.6219 17.9379C39.3642 17.9385 39.1138 17.8523 38.9111 17.6931C36.2009 19.562 33.6459 21.5203 31.2242 23.478C31.2835 23.6964 31.2835 23.9267 31.2242 24.1452L43.3547 33.9158C43.5301 33.8138 43.7294 33.7601 43.9323 33.7601C44.1352 33.7601 44.3345 33.8138 44.5099 33.9158C45.6431 32.959 46.7757 32.0243 47.9756 31.0901C48.6054 28.9514 48.9197 26.7319 48.9083 24.5021Z" fill="url(#paint8_linear)"/>
<path d="M45.1316 35.3832L46.0203 36.0951C46.6024 35.0077 47.1 33.8769 47.5087 32.713C46.6866 33.3582 45.9091 34.0254 45.1316 34.6933C45.1751 34.807 45.1977 34.9277 45.1982 35.0496L45.1316 35.3832Z" fill="url(#paint9_linear)"/>
<path d="M33.4901 45.818C32.8014 46.5526 32.1572 47.2645 31.5574 47.9538C32.7729 47.5772 33.9608 47.1161 35.1123 46.574L34.3788 45.8174C34.2324 45.8829 34.0727 45.9133 33.9124 45.9062C33.7677 45.9005 33.625 45.8708 33.4901 45.818Z" fill="url(#paint10_linear)"/>
<path d="M30.0917 25.0806C29.9054 25.084 29.7215 25.038 29.5587 24.9471C27.0038 27.1276 24.6487 29.3081 22.5161 31.3999C22.5816 31.5465 22.6119 31.7065 22.6048 31.867C22.6022 32.0362 22.5643 32.203 22.4935 32.3567L33.4461 43.5708C33.5926 43.5052 33.7523 43.4749 33.9125 43.482C34.0655 43.477 34.2175 43.5073 34.3569 43.5708C36.8452 40.9899 39.6886 38.2083 42.8211 35.4493C42.7775 35.3203 42.755 35.1851 42.7545 35.0489C42.7584 34.9365 42.7734 34.8248 42.7991 34.7153L30.6693 24.9471C30.4861 25.0254 30.2906 25.0706 30.0917 25.0806Z" fill="url(#paint11_linear)"/>
<path d="M43.444 36.1165C40.3114 38.8535 37.49 41.6125 35.0237 44.1713C35.0969 44.3241 35.1349 44.4915 35.1349 44.661C35.1349 44.8305 35.0969 44.9979 35.0237 45.1507L35.957 46.1075C39.9331 43.9687 43.2511 40.7837 45.5533 36.8958L44.5546 36.0945C44.3764 36.1899 44.1788 36.2431 43.977 36.25C43.7906 36.2534 43.6068 36.2073 43.444 36.1165Z" fill="url(#paint12_linear)"/>
<path d="M4.67622 24.1244L13.7407 20.1637C13.6789 19.9964 13.627 19.8255 13.5855 19.652L6.80941 20.5641L13.4718 19.0068C13.4459 18.8299 13.431 18.6516 13.4272 18.473L3.543 18.0249L13.429 17.8247C13.4403 17.6455 13.4625 17.4673 13.4956 17.2909L6.78679 15.5579L13.6295 16.6702C13.6679 16.4958 13.7198 16.3247 13.7847 16.1584L4.80947 11.9529L14.0512 15.515C14.1316 15.3546 14.2206 15.1987 14.3177 15.0479L8.63331 10.7983L14.6759 14.5141C14.7872 14.3807 14.8978 14.2246 15.009 14.0911L8.29714 6.81381L15.4956 13.6222C15.6288 13.5108 15.7621 13.4 15.9179 13.2886L12.1411 7.01399L16.4528 12.9323C16.6035 12.842 16.7592 12.7603 16.9191 12.6875L13.4736 3.38696L17.5395 12.4206C17.7066 12.3586 17.8772 12.3067 18.0505 12.2651L17.0065 5.23383L18.6947 12.1316C18.8713 12.1057 19.0493 12.0908 19.2277 12.0869L19.5608 2.18591L19.8946 12.0869L20.5608 12.1537L22.3603 5.48115L21.205 12.2896C21.4269 12.3563 21.6274 12.423 21.8493 12.5118L26.3149 3.65631L22.4495 12.7774C22.6498 12.883 22.8428 13.0021 23.0271 13.1337L27.4481 7.8606L23.5363 13.5347C23.7141 13.6902 23.8694 13.8463 24.0253 14.0018L31.7799 7.83734L25.2483 13.7557C30.8362 10.9019 36.9415 9.20672 43.1989 8.77149C39.3471 4.16192 33.937 1.13227 27.999 0.259541C22.061 -0.613183 16.0099 0.732 10.9982 4.03889C5.98646 7.34578 2.36431 12.3833 0.821578 18.1921C-0.72115 24.0009 -0.0766702 30.175 2.63227 35.5387C5.78364 30.2443 9.69934 25.4458 14.2523 21.2987C14.1548 21.1328 14.0659 20.9619 13.9858 20.7869L4.67622 24.1244Z" fill="#FCB531"/>
<path d="M54.619 2.74234H54.2633V47.1984H54.619V2.74234Z" fill="white"/>
<defs>
<linearGradient id="paint0_linear" x1="-6.20014" y1="24.8019" x2="16.8954" y2="62.2798" gradientUnits="userSpaceOnUse">
<stop offset="0.373" stop-color="#0088C8"/>
<stop offset="0.469" stop-color="#0C8DBD"/>
<stop offset="0.678" stop-color="#2B9A9F"/>
<stop offset="0.979" stop-color="#46AD64"/>
<stop offset="0.994" stop-color="#48AE60"/>
</linearGradient>
<linearGradient id="paint1_linear" x1="-0.494943" y1="19.0904" x2="26.5506" y2="54.8161" gradientUnits="userSpaceOnUse">
<stop offset="0.373" stop-color="#0088C8"/>
<stop offset="0.469" stop-color="#0C8DBD"/>
<stop offset="0.678" stop-color="#2B9A9F"/>
<stop offset="0.979" stop-color="#46AD64"/>
<stop offset="0.994" stop-color="#48AE60"/>
</linearGradient>
<linearGradient id="paint2_linear" x1="16.142" y1="2.43383" x2="33.6012" y2="41.0019" gradientUnits="userSpaceOnUse">
<stop offset="0.373" stop-color="#0088C8"/>
<stop offset="0.469" stop-color="#0C8DBD"/>
<stop offset="0.678" stop-color="#2B9A9F"/>
<stop offset="0.979" stop-color="#46AD64"/>
<stop offset="0.994" stop-color="#48AE60"/>
</linearGradient>
<linearGradient id="paint3_linear" x1="23.236" y1="-4.67394" x2="35.1891" y2="33.5998" gradientUnits="userSpaceOnUse">
<stop offset="0.373" stop-color="#0088C8"/>
<stop offset="0.469" stop-color="#0C8DBD"/>
<stop offset="0.678" stop-color="#2B9A9F"/>
<stop offset="0.979" stop-color="#46AD64"/>
<stop offset="0.994" stop-color="#48AE60"/>
</linearGradient>
<linearGradient id="paint4_linear" x1="8.20419" y1="10.3816" x2="35.9155" y2="45.7163" gradientUnits="userSpaceOnUse">
<stop offset="0.373" stop-color="#0088C8"/>
<stop offset="0.469" stop-color="#0C8DBD"/>
<stop offset="0.678" stop-color="#2B9A9F"/>
<stop offset="0.979" stop-color="#46AD64"/>
<stop offset="0.994" stop-color="#48AE60"/>
</linearGradient>
<linearGradient id="paint5_linear" x1="-0.0140881" y1="18.6153" x2="35.4381" y2="46.1203" gradientUnits="userSpaceOnUse">
<stop offset="0.373" stop-color="#0088C8"/>
<stop offset="0.469" stop-color="#0C8DBD"/>
<stop offset="0.678" stop-color="#2B9A9F"/>
<stop offset="0.979" stop-color="#46AD64"/>
<stop offset="0.994" stop-color="#48AE60"/>
</linearGradient>
<linearGradient id="paint6_linear" x1="-5.94412" y1="24.548" x2="31.8408" y2="46.5867" gradientUnits="userSpaceOnUse">
<stop offset="0.373" stop-color="#0088C8"/>
<stop offset="0.469" stop-color="#0C8DBD"/>
<stop offset="0.678" stop-color="#2B9A9F"/>
<stop offset="0.979" stop-color="#46AD64"/>
<stop offset="0.994" stop-color="#48AE60"/>
</linearGradient>
<linearGradient id="paint7_linear" x1="23.4983" y1="-4.93538" x2="59.0912" y2="22.3292" gradientUnits="userSpaceOnUse">
<stop offset="0.373" stop-color="#0088C8"/>
<stop offset="0.469" stop-color="#0C8DBD"/>
<stop offset="0.678" stop-color="#2B9A9F"/>
<stop offset="0.979" stop-color="#46AD64"/>
<stop offset="0.994" stop-color="#48AE60"/>
</linearGradient>
<linearGradient id="paint8_linear" x1="17.4128" y1="1.16206" x2="46.3999" y2="35.6636" gradientUnits="userSpaceOnUse">
<stop offset="0.373" stop-color="#0088C8"/>
<stop offset="0.469" stop-color="#0C8DBD"/>
<stop offset="0.678" stop-color="#2B9A9F"/>
<stop offset="0.979" stop-color="#46AD64"/>
<stop offset="0.994" stop-color="#48AE60"/>
</linearGradient>
<linearGradient id="paint9_linear" x1="15.4514" y1="3.1224" x2="53.85" y2="22.1211" gradientUnits="userSpaceOnUse">
<stop offset="0.373" stop-color="#0088C8"/>
<stop offset="0.469" stop-color="#0C8DBD"/>
<stop offset="0.678" stop-color="#2B9A9F"/>
<stop offset="0.979" stop-color="#46AD64"/>
<stop offset="0.994" stop-color="#48AE60"/>
</linearGradient>
<linearGradient id="paint10_linear" x1="2.35732" y1="16.228" x2="16.2523" y2="54.7607" gradientUnits="userSpaceOnUse">
<stop offset="0.373" stop-color="#0088C8"/>
<stop offset="0.469" stop-color="#0C8DBD"/>
<stop offset="0.678" stop-color="#2B9A9F"/>
<stop offset="0.979" stop-color="#46AD64"/>
<stop offset="0.994" stop-color="#48AE60"/>
</linearGradient>
<linearGradient id="paint11_linear" x1="8.81305" y1="9.76885" x2="37.7723" y2="44.3115" gradientUnits="userSpaceOnUse">
<stop offset="0.373" stop-color="#0088C8"/>
<stop offset="0.469" stop-color="#0C8DBD"/>
<stop offset="0.678" stop-color="#2B9A9F"/>
<stop offset="0.979" stop-color="#46AD64"/>
<stop offset="0.994" stop-color="#48AE60"/>
</linearGradient>
<linearGradient id="paint12_linear" x1="8.94178" y1="9.64001" x2="39.2139" y2="43.1731" gradientUnits="userSpaceOnUse">
<stop offset="0.373" stop-color="#0088C8"/>
<stop offset="0.469" stop-color="#0C8DBD"/>
<stop offset="0.678" stop-color="#2B9A9F"/>
<stop offset="0.979" stop-color="#46AD64"/>
<stop offset="0.994" stop-color="#48AE60"/>
</linearGradient>
</defs>
</svg>
