<svg width="344" height="81" viewBox="0 0 344 81" fill="none" xmlns="http://www.w3.org/2000/svg">
<path d="M114.438 9.96782C116.225 9.96746 118.006 10.1749 119.745 10.5858C121.452 11.028 123.091 11.7009 124.616 12.5858C126.209 13.5358 127.534 14.8738 128.469 16.4748C129.527 18.271 130.161 20.2847 130.323 22.3628H123.453C122.762 18.0378 119.891 15.8568 114.875 15.8568C112.872 15.7561 110.887 16.2905 109.205 17.3838C108.529 17.8455 107.981 18.471 107.612 19.2021C107.244 19.9331 107.067 20.7457 107.097 21.5638C107.068 22.2024 107.192 22.8387 107.457 23.4202C107.723 24.0016 108.123 24.5116 108.624 24.9078C110.061 25.8925 111.702 26.5387 113.424 26.7978L118.367 27.7788C122.367 28.5788 125.309 29.8508 127.236 31.5588C128.2 32.4381 128.958 33.5199 129.454 34.7266C129.95 35.9332 130.173 37.2347 130.107 38.5378C130.151 40.2398 129.796 41.9284 129.07 43.4685C128.344 45.0085 127.268 46.3573 125.927 47.4068C123.201 49.6238 119.566 50.7508 114.987 50.7508C110.116 50.7508 106.187 49.5508 103.211 47.1158C101.725 45.8995 100.51 44.3845 99.6458 42.6689C98.7818 40.9534 98.2876 39.0755 98.1953 37.1568H105.028C105.169 38.2406 105.532 39.2838 106.093 40.2215C106.654 41.1593 107.403 41.9715 108.291 42.6078C110.377 44.0209 112.863 44.7225 115.379 44.6078C117.347 44.7172 119.301 44.2224 120.979 43.1898C121.623 42.7701 122.148 42.192 122.505 41.5111C122.861 40.8301 123.036 40.069 123.014 39.3008C123.014 36.7928 121.088 35.1938 117.271 34.4668L110.838 33.1948C103.496 31.7408 99.7883 28.0338 99.7883 22.1088C99.7288 20.4363 100.055 18.7725 100.742 17.2464C101.429 15.7204 102.459 14.373 103.75 13.3088C106.816 10.987 110.596 9.80567 114.438 9.96782Z" fill="#10192E"/>
<path d="M143.007 16.0038C145.857 13.1645 149.482 11.2313 153.428 10.4476C157.373 9.66385 161.462 10.0645 165.18 11.5992C168.899 13.1339 172.08 15.734 174.324 19.0724C176.568 22.4108 177.774 26.3383 177.792 30.3608C177.791 33.7057 176.966 36.999 175.39 39.9492C173.814 42.8995 171.535 45.416 168.755 47.2759C165.975 49.1358 162.78 50.2819 159.451 50.6128C156.123 50.9437 152.764 50.4492 149.672 49.173C146.58 47.8968 143.85 45.8783 141.724 43.2961C139.598 40.7138 138.141 37.6474 137.482 34.368C136.823 31.0887 136.983 27.6975 137.947 24.4944C138.91 21.2914 140.648 18.3752 143.007 16.0038ZM157.438 44.2818C159.225 44.3176 160.999 43.9768 162.646 43.2816C164.293 42.5864 165.775 41.5524 166.996 40.2468C169.474 37.5577 170.849 34.0351 170.849 30.3788C170.849 26.7225 169.474 23.1999 166.996 20.5108C165.767 19.2241 164.289 18.2 162.652 17.5003C161.015 16.8006 159.253 16.4399 157.473 16.4399C155.693 16.4399 153.932 16.8006 152.295 17.5003C150.658 18.2 149.18 19.2241 147.951 20.5108C146.686 21.8141 145.694 23.3565 145.032 25.0478C144.37 26.739 144.053 28.5453 144.098 30.3608C144.049 32.1822 144.365 33.9948 145.027 35.6924C145.689 37.39 146.683 38.9384 147.951 40.2468C149.16 41.5477 150.629 42.5791 152.264 43.2738C153.898 43.9686 155.661 44.311 157.436 44.2788L157.438 44.2818Z" fill="#10192E"/>
<path d="M220.061 10.8038V32.5398C220.061 38.1008 218.461 42.5398 215.299 45.8068C212.099 49.1148 207.957 50.7498 202.759 50.7498C197.561 50.7498 193.345 49.1138 190.183 45.8068C187.057 42.5358 185.458 38.1378 185.458 32.5398V10.8038H192.364V32.5398C192.233 35.6326 193.257 38.6636 195.235 41.0448C196.197 42.0771 197.362 42.9002 198.656 43.463C199.951 44.0258 201.347 44.3162 202.759 44.3162C204.17 44.3162 205.566 44.0258 206.861 43.463C208.155 42.9002 209.32 42.0771 210.283 41.0448C212.261 38.6636 213.284 35.6326 213.154 32.5398V10.8038H220.061Z" fill="#10192E"/>
<path d="M243.98 37.0468H236.274V49.9128H229.368V10.8038H245.397C249.868 10.8038 253.539 12.0038 256.337 14.4388C257.722 15.5912 258.826 17.0451 259.563 18.6894C260.3 20.3338 260.652 22.1249 260.59 23.9258C260.644 26.6301 259.8 29.2759 258.19 31.4498C256.531 33.6354 254.231 35.249 251.611 36.0658L262.951 49.9138H254.551L243.98 37.0468ZM236.274 30.6468H245.179C247.4 30.746 249.59 30.0927 251.394 28.7928C252.156 28.2338 252.773 27.4991 253.19 26.6511C253.608 25.8031 253.815 24.8669 253.794 23.9218C253.823 22.9755 253.62 22.0364 253.201 21.1872C252.783 20.3379 252.162 19.6043 251.394 19.0508C249.59 17.7509 247.4 17.0976 245.179 17.1968H236.274V30.6468Z" fill="#10192E"/>
<path d="M287.377 44.0978C290.139 44.2021 292.851 43.3411 295.046 41.6628C297.185 39.8826 298.669 37.4396 299.262 34.7208H306.386C305.645 39.2579 303.329 43.3888 299.844 46.3878C296.351 49.2949 291.92 50.8322 287.377 50.7128C284.694 50.7646 282.028 50.2765 279.537 49.2773C277.046 48.2782 274.781 46.7885 272.877 44.8968C270.953 43.007 269.44 40.7401 268.433 38.2383C267.425 35.7365 266.946 33.0537 267.023 30.3578C266.943 27.6618 267.422 24.9785 268.429 22.4764C269.436 19.9744 270.95 17.7077 272.875 15.8188C274.784 13.9339 277.05 12.4486 279.539 11.45C282.029 10.4513 284.693 9.95934 287.375 10.0028C291.923 9.89139 296.356 11.4423 299.842 14.3648C303.318 17.3554 305.634 21.472 306.384 25.9958H299.263C298.661 23.2807 297.179 20.8404 295.047 19.0538C292.852 17.3755 290.14 16.5145 287.378 16.6188C285.605 16.5681 283.841 16.8842 282.196 17.5472C280.551 18.2102 279.061 19.2059 277.819 20.4718C276.558 21.7814 275.573 23.3317 274.923 25.0302C274.274 26.7287 273.973 28.5406 274.039 30.3578C273.982 32.174 274.286 33.9835 274.935 35.6808C275.584 37.3781 276.565 38.9293 277.819 40.2438C279.061 41.5098 280.551 42.5056 282.196 43.1688C283.841 43.832 285.605 44.1482 287.377 44.0978Z" fill="#10192E"/>
<path d="M322.053 17.2038V27.4538H341.244V33.8538H322.053V43.5538H343.57V49.9538H315.183V10.8038H343.57V17.2038H322.053Z" fill="#10192E"/>
<path d="M99.2817 60.2718H103.462C104.62 60.2287 105.756 60.6027 106.662 61.3258C107.052 61.6702 107.361 62.0961 107.569 62.5734C107.776 63.0506 107.876 63.5676 107.862 64.0878C107.883 64.6371 107.78 65.1841 107.559 65.6877C107.339 66.1913 107.008 66.6386 106.59 66.9958C105.636 67.7628 104.432 68.151 103.21 68.0858H101.282V71.3208H99.3187V60.2718H99.2817ZM101.245 66.3418H103.389C104.05 66.367 104.697 66.1469 105.206 65.7238C105.435 65.5269 105.616 65.2806 105.736 65.0034C105.855 64.7262 105.91 64.4254 105.897 64.1238C105.91 63.8434 105.853 63.5641 105.733 63.3105C105.612 63.057 105.431 62.8369 105.206 62.6698C104.68 62.2858 104.039 62.0935 103.389 62.1248H101.245V66.3418Z" fill="#10192E"/>
<path d="M118.691 61.7258C119.223 61.177 119.862 60.7425 120.568 60.4489C121.275 60.1552 122.033 60.0085 122.798 60.0178C123.557 60.0087 124.31 60.1556 125.011 60.4494C125.711 60.7432 126.343 61.1776 126.869 61.7258C127.41 62.2604 127.84 62.8972 128.133 63.5991C128.426 64.301 128.577 65.0541 128.577 65.8148C128.577 66.5755 128.426 67.3286 128.133 68.0306C127.84 68.7325 127.41 69.3692 126.869 69.9038C126.342 70.4471 125.708 70.876 125.007 71.1637C124.307 71.4513 123.555 71.5916 122.798 71.5758C122.036 71.5918 121.278 71.4517 120.572 71.1641C119.865 70.8766 119.225 70.4477 118.691 69.9038C118.144 69.3714 117.714 68.7318 117.426 68.025C117.138 67.3182 117 66.5596 117.019 65.7968C117.015 65.0414 117.161 64.2928 117.448 63.594C117.735 62.8953 118.157 62.2603 118.691 61.7258ZM122.798 69.7588C123.306 69.7746 123.812 69.6822 124.282 69.488C124.752 69.2937 125.175 69.0019 125.524 68.6318C126.226 67.8683 126.615 66.869 126.615 65.8318C126.615 64.7947 126.226 63.7953 125.524 63.0318C125.175 62.6644 124.755 62.3717 124.29 62.1718C123.824 61.9718 123.323 61.8687 122.816 61.8687C122.309 61.8687 121.808 61.9718 121.342 62.1718C120.877 62.3717 120.457 62.6644 120.108 63.0318C119.388 63.7838 118.996 64.7909 119.018 65.8318C119.004 66.3477 119.093 66.8611 119.28 67.342C119.467 67.8229 119.749 68.2614 120.108 68.6318C120.452 68.9985 120.869 69.2884 121.332 69.4826C121.796 69.6769 122.295 69.771 122.798 69.7588Z" fill="#10192E"/>
<path d="M153.765 60.2718L150.058 71.4308H148.165L145.512 63.7978L142.895 71.4308H140.969L137.265 60.2718H139.337L141.954 68.3768L144.716 60.2718H146.352L149.114 68.3768L151.731 60.2718H153.765Z" fill="#10192E"/>
<path d="M165.361 62.0888V64.9968H170.813V66.8138H165.361V69.5718H171.467V71.3888H163.398V60.2718H171.467V62.0888H165.361Z" fill="#10192E"/>
<path d="M185.461 67.7228H183.28V71.3938H181.317V60.2718H185.86C186.981 60.2106 188.084 60.5741 188.949 61.2898C189.338 61.6195 189.648 62.0325 189.855 62.4981C190.063 62.9637 190.163 63.4701 190.149 63.9798C190.166 64.7517 189.922 65.5069 189.458 66.1238C188.988 66.7394 188.341 67.1959 187.604 67.4318L190.839 71.3568H188.439L185.461 67.7228ZM183.28 65.9058H185.824C186.456 65.9258 187.079 65.7479 187.605 65.3968C187.819 65.236 187.993 65.0275 188.113 64.7878C188.233 64.5481 188.296 64.2838 188.296 64.0158C188.296 63.7478 188.233 63.4835 188.113 63.2438C187.993 63.0041 187.819 62.7956 187.605 62.6348C187.086 62.268 186.458 62.0885 185.824 62.1258H183.28V65.9058Z" fill="#10192E"/>
<path d="M217.483 69.7218C218.268 69.7557 219.041 69.511 219.664 69.0308C220.267 68.5245 220.688 67.8353 220.864 67.0678H222.899C222.708 68.3565 222.052 69.5307 221.054 70.3679C220.055 71.2051 218.785 71.6473 217.483 71.6108C216.724 71.6249 215.97 71.4875 215.264 71.2066C214.559 70.9256 213.917 70.5069 213.376 69.9748C212.303 68.862 211.704 67.3768 211.704 65.8313C211.704 64.2858 212.303 62.8006 213.376 61.6878C213.917 61.1561 214.559 60.7377 215.265 60.4571C215.97 60.1766 216.724 60.0394 217.483 60.0538C218.781 60.0168 220.048 60.4564 221.045 61.2898C222.036 62.1371 222.694 63.3098 222.899 64.5978H220.864C220.688 63.8303 220.267 63.1411 219.664 62.6348C219.041 62.1546 218.268 61.9098 217.483 61.9438C216.978 61.9299 216.476 62.0194 216.007 62.2069C215.538 62.3943 215.113 62.6757 214.757 63.0338C214.055 63.7973 213.665 64.7966 213.665 65.8338C213.665 66.871 214.055 67.8703 214.757 68.6338C215.113 68.9915 215.538 69.2726 216.007 69.4597C216.476 69.6468 216.978 69.736 217.483 69.7218Z" fill="#10192E"/>
<path d="M234.239 61.7258C234.771 61.177 235.41 60.7424 236.116 60.4488C236.823 60.1551 237.581 60.0085 238.346 60.0178C239.105 60.0086 239.858 60.1555 240.559 60.4493C241.259 60.7431 241.891 61.1776 242.417 61.7258C242.958 62.2604 243.388 62.8972 243.681 63.5991C243.974 64.301 244.125 65.0541 244.125 65.8148C244.125 66.5755 243.974 67.3286 243.681 68.0306C243.388 68.7325 242.958 69.3692 242.417 69.9038C241.889 70.4471 241.256 70.876 240.555 71.1637C239.855 71.4513 239.103 71.5916 238.346 71.5758C237.584 71.5918 236.826 71.4517 236.12 71.1641C235.413 70.8766 234.773 70.4477 234.239 69.9038C233.167 68.8126 232.567 67.3443 232.567 65.8148C232.567 64.2854 233.167 62.8171 234.239 61.7258ZM238.346 69.7588C238.854 69.7746 239.36 69.6822 239.83 69.488C240.3 69.2937 240.723 69.0019 241.072 68.6318C241.774 67.8683 242.163 66.869 242.163 65.8318C242.163 64.7947 241.774 63.7953 241.072 63.0318C240.723 62.6644 240.303 62.3717 239.837 62.1718C239.372 61.9718 238.871 61.8687 238.364 61.8687C237.857 61.8687 237.356 61.9718 236.89 62.1718C236.425 62.3717 236.005 62.6644 235.656 63.0318C234.936 63.7837 234.544 64.7909 234.566 65.8318C234.551 66.3477 234.641 66.8612 234.828 67.342C235.015 67.8229 235.297 68.2615 235.656 68.6318C235.997 69.0013 236.414 69.2931 236.878 69.4875C237.343 69.6819 237.843 69.7745 238.346 69.7588Z" fill="#10192E"/>
<path d="M265.461 60.2718V71.3938H263.498V64.6328L260.408 69.6128H259.208L256.046 64.5608L256.082 71.3938H254.121V60.2718H255.539L259.828 67.1778L264.121 60.2718H265.461Z" fill="#10192E"/>
<path d="M275.784 60.2718H279.964C281.122 60.2287 282.258 60.6027 283.164 61.3258C283.554 61.6702 283.863 62.0961 284.071 62.5734C284.278 63.0506 284.378 63.5676 284.364 64.0878C284.385 64.6371 284.282 65.1841 284.061 65.6877C283.841 66.1913 283.51 66.6386 283.092 66.9958C282.138 67.7628 280.934 68.1509 279.712 68.0858H277.784V71.3208H275.821V60.2718H275.784ZM277.747 66.3418H279.891C280.552 66.367 281.199 66.1469 281.708 65.7238C281.937 65.527 282.118 65.2806 282.238 65.0034C282.357 64.7262 282.412 64.4254 282.399 64.1238C282.412 63.8433 282.355 63.564 282.235 63.3105C282.114 63.0569 281.933 62.8369 281.708 62.6698C281.182 62.2858 280.541 62.0935 279.891 62.1248H277.747V66.3418Z" fill="#10192E"/>
<path d="M299.991 68.9228H294.684L293.666 71.3948H291.558L296.428 60.2358H298.245L303.079 71.3948H301.008L299.991 68.9228ZM299.228 67.1058L297.302 62.5988L295.412 67.1058H299.228Z" fill="#10192E"/>
<path d="M322.345 60.2718V71.3938H320.818L314.494 63.9068V71.3938H312.531V60.2718H314.021L320.421 67.9408V60.2718H322.345Z" fill="#10192E"/>
<path d="M342.513 60.2718L338.079 67.6498V71.3938H336.079V67.6498L331.613 60.2718H333.794L337.065 65.7238L340.336 60.2718H342.513Z" fill="#10192E"/>
<path d="M21.2795 68.1228C19.5345 70.1948 18.2265 71.8668 17.3545 72.9938C21.5834 75.9096 26.3347 77.9828 31.3485 79.0998L22.4065 68.1228C22.2216 68.1973 22.0238 68.2343 21.8245 68.2318L21.2795 68.1228Z" fill="url(#paint0_linear)"/>
<path d="M53.6698 72.1938L35.7458 53.8748C35.5062 53.9819 35.245 54.0315 34.9828 54.0198C34.7212 54.0245 34.4614 53.9752 34.2198 53.8748C30.0038 58.1278 26.4418 62.0888 23.6068 65.3608C23.751 65.6288 23.8259 65.9285 23.8248 66.2328C23.8136 66.5631 23.7267 66.8864 23.5708 67.1778L33.6388 79.5358C35.7427 79.8706 37.8695 80.0408 39.9998 80.0448C43.0089 80.0418 46.0081 79.7003 48.9408 79.0268C50.3948 77.3908 51.9578 75.6468 53.6298 73.8268C53.5139 73.5631 53.452 73.2788 53.4478 72.9908C53.4832 72.7159 53.5579 72.4474 53.6698 72.1938Z" fill="url(#paint1_linear)"/>
<path d="M50.1725 37.2278C54.1725 33.9568 58.3865 30.7218 62.8935 27.6688C62.8935 27.5598 62.8575 27.4508 62.8575 27.3418C62.8514 27.2075 62.8635 27.0729 62.8935 26.9418L52.5725 19.9988C47.2292 22.3152 42.1081 25.1134 37.2725 28.3588L48.2855 37.2278C48.5769 37.0719 48.9002 36.985 49.2305 36.9738C49.5604 36.9808 49.8837 37.0679 50.1725 37.2278Z" fill="url(#paint2_linear)"/>
<path d="M65.9136 25.6688C68.7846 23.7788 71.7656 21.9618 74.8186 20.2528C73.6068 18.113 72.1952 16.0926 70.6026 14.2188C65.0084 15.4193 59.5341 17.1229 54.2466 19.3088L63.7696 25.7088C64.103 25.4871 64.4963 25.373 64.8966 25.3818C65.2565 25.3746 65.6105 25.4745 65.9136 25.6688Z" fill="url(#paint3_linear)"/>
<path d="M35.7823 50.2038C39.2713 46.7868 43.1603 43.1888 47.3773 39.5908C47.303 39.3809 47.2661 39.1595 47.2683 38.9368C47.2747 38.7532 47.2992 38.5707 47.3413 38.3918L36.0013 29.2688C31.6415 32.315 27.533 35.7059 23.7153 39.4088L34.2563 50.1678C34.4959 50.0608 34.7572 50.0111 35.0193 50.0228C35.2833 50.031 35.5429 50.0925 35.7823 50.2038Z" fill="url(#paint4_linear)"/>
<path d="M22.4796 64.3428C25.3146 61.0348 28.9126 57.1098 33.1296 52.8208C33.0258 52.5672 32.9764 52.2947 32.9846 52.0208C32.9888 51.7444 33.0508 51.4719 33.1666 51.2208L22.6616 40.4628C18.7993 44.3498 15.273 48.5568 12.1206 53.0388L21.2796 64.3068C21.4645 64.2324 21.6623 64.1953 21.8616 64.1978C22.0721 64.2247 22.2791 64.2733 22.4796 64.3428Z" fill="url(#paint5_linear)"/>
<path d="M20.1166 65.2868L11.2116 54.3468C9.52888 56.7969 7.97608 59.3337 6.55957 61.9468C9.13258 65.8568 12.3673 69.2885 16.1186 72.0878C16.9906 70.9608 18.3356 69.2528 20.1186 67.1448C19.9582 66.8552 19.871 66.5308 19.8646 66.1998C19.8697 65.879 19.9564 65.5648 20.1166 65.2868Z" fill="url(#paint6_linear)"/>
<path d="M66.7866 27.7408L79.8716 36.5008C79.4102 31.2835 77.9281 26.2077 75.5096 21.5618C72.5296 23.2338 69.6216 25.0148 66.7866 26.8688C66.8313 27.0223 66.8559 27.181 66.8596 27.3408C66.8563 27.4771 66.8317 27.6121 66.7866 27.7408Z" fill="url(#paint7_linear)"/>
<path d="M80.0165 40.0258C80.0165 39.4808 80.0165 38.9358 79.9805 38.3898L65.9505 28.9758C65.6171 29.1975 65.2238 29.3116 64.8235 29.3028C64.4019 29.3038 63.9923 29.1629 63.6605 28.9028C59.2265 31.9558 55.0465 35.1548 51.0845 38.3528C51.1814 38.7097 51.1814 39.0859 51.0845 39.4428L70.9305 55.4038C71.2175 55.2371 71.5435 55.1493 71.8755 55.1493C72.2074 55.1493 72.5334 55.2371 72.8205 55.4038C74.6745 53.8408 76.5275 52.3138 78.4905 50.7878C79.5209 47.294 80.035 43.6683 80.0165 40.0258Z" fill="url(#paint8_linear)"/>
<path d="M73.8374 57.8008L75.2914 58.9638C76.2437 57.1874 77.0578 55.3403 77.7264 53.4388C76.3814 54.4928 75.1094 55.5828 73.8374 56.6738C73.9086 56.8596 73.9455 57.0568 73.9464 57.2558L73.8374 57.8008Z" fill="url(#paint9_linear)"/>
<path d="M54.7914 74.8468C53.6647 76.0468 52.6107 77.2098 51.6294 78.3358C53.6181 77.7205 55.5615 76.9674 57.4454 76.0818L56.2454 74.8458C56.0058 74.9529 55.7446 75.0025 55.4824 74.9908C55.2457 74.9817 55.0121 74.933 54.7914 74.8468Z" fill="url(#paint10_linear)"/>
<path d="M49.2318 40.9708C48.927 40.9764 48.6261 40.9012 48.3598 40.7528C44.1798 44.3148 40.3268 47.8768 36.8378 51.2938C36.9449 51.5334 36.9945 51.7947 36.9828 52.0568C36.9786 52.3333 36.9166 52.6058 36.8008 52.8568L54.7198 71.1758C54.9594 71.0688 55.2206 71.0191 55.4828 71.0308C55.733 71.0226 55.9818 71.0722 56.2098 71.1758C60.2808 66.9598 64.9328 62.4158 70.0578 57.9088C69.9863 57.6981 69.9495 57.4773 69.9488 57.2548C69.9552 57.0712 69.9796 56.8886 70.0218 56.7098L50.1768 40.7528C49.8771 40.8807 49.5572 40.9545 49.2318 40.9708Z" fill="url(#paint11_linear)"/>
<path d="M71.0768 58.9988C65.9518 63.4698 61.3358 67.9768 57.3008 72.1568C57.4205 72.4065 57.4827 72.6799 57.4827 72.9568C57.4827 73.2338 57.4205 73.5071 57.3008 73.7568L58.8278 75.3198C65.3329 71.8259 70.7612 66.623 74.5278 60.2718L72.8938 58.9628C72.6024 59.1187 72.2791 59.2056 71.9488 59.2168C71.644 59.2224 71.3431 59.1472 71.0768 58.9988Z" fill="url(#paint12_linear)"/>
<path d="M7.65053 39.4088L22.4805 32.9388C22.3793 32.6655 22.2945 32.3863 22.2265 32.1028L11.1405 33.5928L22.0405 31.0488C21.9982 30.7599 21.9738 30.4687 21.9675 30.1768L5.79653 29.4448L21.9705 29.1178C21.989 28.8252 22.0254 28.534 22.0795 28.2458L11.1035 25.4148L22.2985 27.2318C22.3614 26.947 22.4463 26.6675 22.5525 26.3958L7.86853 19.5258L22.9885 25.3448C23.1201 25.0829 23.2656 24.8281 23.4245 24.5818L14.1245 17.6398L24.0105 23.7098C24.1925 23.4918 24.3735 23.2368 24.5555 23.0188L13.5745 11.1308L25.3515 22.2528C25.5695 22.0708 25.7875 21.8898 26.0425 21.7078L19.8635 11.4578L26.9175 21.1258C27.1642 20.9783 27.4189 20.8448 27.6805 20.7258L22.0435 5.53282L28.6955 20.2898C28.9689 20.1886 29.2481 20.1038 29.5315 20.0358L27.8235 8.54982L30.5855 19.8178C30.8744 19.7755 31.1656 19.7511 31.4575 19.7448L32.0025 3.57083L32.5485 19.7448L33.6385 19.8538L36.5825 8.95382L34.6925 20.0758C35.0555 20.1848 35.3835 20.2938 35.7465 20.4388L43.0525 5.97282L36.7285 20.8728C37.0563 21.0453 37.372 21.2397 37.6735 21.4548L44.9065 12.8408L38.5065 22.1098C38.7975 22.3638 39.0515 22.6188 39.3065 22.8728L51.9935 12.8028L41.3075 22.4708C50.4496 17.8091 60.4382 15.0398 70.6755 14.3288C64.3739 6.79878 55.5227 1.84963 45.8078 0.423978C36.0929 -1.00168 26.193 1.19577 17.9936 6.5978C9.79415 11.9998 3.86812 20.229 1.34414 29.718C-1.17984 39.2071 -0.125436 49.293 4.30653 58.0548C9.46233 49.4062 15.8686 41.5674 23.3175 34.7928C23.158 34.5218 23.0125 34.2428 22.8815 33.9568L7.65053 39.4088Z" fill="#FCB531"/>
<path d="M89.3593 4.47983H88.7773V77.1018H89.3593V4.47983Z" fill="#10192E"/>
<defs>
<linearGradient id="paint0_linear" x1="-10.1437" y1="40.5156" x2="27.5586" y2="101.789" gradientUnits="userSpaceOnUse">
<stop offset="0.373" stop-color="#0088C8"/>
<stop offset="0.469" stop-color="#0C8DBD"/>
<stop offset="0.678" stop-color="#2B9A9F"/>
<stop offset="0.979" stop-color="#46AD64"/>
<stop offset="0.994" stop-color="#48AE60"/>
</linearGradient>
<linearGradient id="paint1_linear" x1="-0.809394" y1="31.1854" x2="43.3532" y2="89.6104" gradientUnits="userSpaceOnUse">
<stop offset="0.373" stop-color="#0088C8"/>
<stop offset="0.469" stop-color="#0C8DBD"/>
<stop offset="0.678" stop-color="#2B9A9F"/>
<stop offset="0.979" stop-color="#46AD64"/>
<stop offset="0.994" stop-color="#48AE60"/>
</linearGradient>
<linearGradient id="paint2_linear" x1="26.4092" y1="3.97584" x2="54.9013" y2="67.0119" gradientUnits="userSpaceOnUse">
<stop offset="0.373" stop-color="#0088C8"/>
<stop offset="0.469" stop-color="#0C8DBD"/>
<stop offset="0.678" stop-color="#2B9A9F"/>
<stop offset="0.979" stop-color="#46AD64"/>
<stop offset="0.994" stop-color="#48AE60"/>
</linearGradient>
<linearGradient id="paint3_linear" x1="38.0153" y1="-7.63517" x2="57.5172" y2="54.9045" gradientUnits="userSpaceOnUse">
<stop offset="0.373" stop-color="#0088C8"/>
<stop offset="0.469" stop-color="#0C8DBD"/>
<stop offset="0.678" stop-color="#2B9A9F"/>
<stop offset="0.979" stop-color="#46AD64"/>
<stop offset="0.994" stop-color="#48AE60"/>
</linearGradient>
<linearGradient id="paint4_linear" x1="13.4224" y1="16.9591" x2="58.6742" y2="74.7474" gradientUnits="userSpaceOnUse">
<stop offset="0.373" stop-color="#0088C8"/>
<stop offset="0.469" stop-color="#0C8DBD"/>
<stop offset="0.678" stop-color="#2B9A9F"/>
<stop offset="0.979" stop-color="#46AD64"/>
<stop offset="0.994" stop-color="#48AE60"/>
</linearGradient>
<linearGradient id="paint5_linear" x1="-0.0229374" y1="30.4094" x2="57.9125" y2="75.4259" gradientUnits="userSpaceOnUse">
<stop offset="0.373" stop-color="#0088C8"/>
<stop offset="0.469" stop-color="#0C8DBD"/>
<stop offset="0.678" stop-color="#2B9A9F"/>
<stop offset="0.979" stop-color="#46AD64"/>
<stop offset="0.994" stop-color="#48AE60"/>
</linearGradient>
<linearGradient id="paint6_linear" x1="-9.72479" y1="40.1008" x2="52.0455" y2="76.1842" gradientUnits="userSpaceOnUse">
<stop offset="0.373" stop-color="#0088C8"/>
<stop offset="0.469" stop-color="#0C8DBD"/>
<stop offset="0.678" stop-color="#2B9A9F"/>
<stop offset="0.979" stop-color="#46AD64"/>
<stop offset="0.994" stop-color="#48AE60"/>
</linearGradient>
<linearGradient id="paint7_linear" x1="38.4445" y1="-8.06225" x2="96.6108" y2="36.5615" gradientUnits="userSpaceOnUse">
<stop offset="0.373" stop-color="#0088C8"/>
<stop offset="0.469" stop-color="#0C8DBD"/>
<stop offset="0.678" stop-color="#2B9A9F"/>
<stop offset="0.979" stop-color="#46AD64"/>
<stop offset="0.994" stop-color="#48AE60"/>
</linearGradient>
<linearGradient id="paint8_linear" x1="28.4882" y1="1.89828" x2="75.8282" y2="58.3297" gradientUnits="userSpaceOnUse">
<stop offset="0.373" stop-color="#0088C8"/>
<stop offset="0.469" stop-color="#0C8DBD"/>
<stop offset="0.678" stop-color="#2B9A9F"/>
<stop offset="0.979" stop-color="#46AD64"/>
<stop offset="0.994" stop-color="#48AE60"/>
</linearGradient>
<linearGradient id="paint9_linear" x1="25.2793" y1="5.10064" x2="88.0636" y2="36.2119" gradientUnits="userSpaceOnUse">
<stop offset="0.373" stop-color="#0088C8"/>
<stop offset="0.469" stop-color="#0C8DBD"/>
<stop offset="0.678" stop-color="#2B9A9F"/>
<stop offset="0.979" stop-color="#46AD64"/>
<stop offset="0.994" stop-color="#48AE60"/>
</linearGradient>
<linearGradient id="paint10_linear" x1="3.85669" y1="26.5095" x2="26.5286" y2="89.4773" gradientUnits="userSpaceOnUse">
<stop offset="0.373" stop-color="#0088C8"/>
<stop offset="0.469" stop-color="#0C8DBD"/>
<stop offset="0.678" stop-color="#2B9A9F"/>
<stop offset="0.979" stop-color="#46AD64"/>
<stop offset="0.994" stop-color="#48AE60"/>
</linearGradient>
<linearGradient id="paint11_linear" x1="14.4188" y1="15.9581" x2="61.7131" y2="72.4565" gradientUnits="userSpaceOnUse">
<stop offset="0.373" stop-color="#0088C8"/>
<stop offset="0.469" stop-color="#0C8DBD"/>
<stop offset="0.678" stop-color="#2B9A9F"/>
<stop offset="0.979" stop-color="#46AD64"/>
<stop offset="0.994" stop-color="#48AE60"/>
</linearGradient>
<linearGradient id="paint12_linear" x1="14.6295" y1="15.7477" x2="64.0734" y2="70.601" gradientUnits="userSpaceOnUse">
<stop offset="0.373" stop-color="#0088C8"/>
<stop offset="0.469" stop-color="#0C8DBD"/>
<stop offset="0.678" stop-color="#2B9A9F"/>
<stop offset="0.979" stop-color="#46AD64"/>
<stop offset="0.994" stop-color="#48AE60"/>
</linearGradient>
</defs>
</svg>
